<svg xmlns="http://www.w3.org/2000/svg" xmlns:xlink="http://www.w3.org/1999/xlink" width="600" height="400" viewBox="0 0 2400 1600">
<defs>
  <clipPath id="clip920">
    <rect x="0" y="0" width="2400" height="1600"></rect>
  </clipPath>
</defs>
<path clip-path="url(#clip920)" d="M0 1600 L2400 1600 L2400 0 L0 0  Z" fill="#ffffff" fill-rule="evenodd" fill-opacity="1"></path>
<defs>
  <clipPath id="clip921">
    <rect x="480" y="0" width="1681" height="1600"></rect>
  </clipPath>
</defs>
<path clip-path="url(#clip920)" d="M249.542 1423.18 L2352.76 1423.18 L2352.76 123.472 L249.542 123.472  Z" fill="#ffffff" fill-rule="evenodd" fill-opacity="1"></path>
<defs>
  <clipPath id="clip922">
    <rect x="249" y="123" width="2104" height="1301"></rect>
  </clipPath>
</defs>
<polyline clip-path="url(#clip922)" style="stroke:#000000; stroke-linecap:round; stroke-linejoin:round; stroke-width:2; stroke-opacity:0.1; fill:none" points="309.067,1423.18 309.067,123.472 "></polyline>
<polyline clip-path="url(#clip922)" style="stroke:#000000; stroke-linecap:round; stroke-linejoin:round; stroke-width:2; stroke-opacity:0.1; fill:none" points="805.108,1423.18 805.108,123.472 "></polyline>
<polyline clip-path="url(#clip922)" style="stroke:#000000; stroke-linecap:round; stroke-linejoin:round; stroke-width:2; stroke-opacity:0.1; fill:none" points="1301.15,1423.18 1301.15,123.472 "></polyline>
<polyline clip-path="url(#clip922)" style="stroke:#000000; stroke-linecap:round; stroke-linejoin:round; stroke-width:2; stroke-opacity:0.1; fill:none" points="1797.19,1423.18 1797.19,123.472 "></polyline>
<polyline clip-path="url(#clip922)" style="stroke:#000000; stroke-linecap:round; stroke-linejoin:round; stroke-width:2; stroke-opacity:0.1; fill:none" points="2293.23,1423.18 2293.23,123.472 "></polyline>
<polyline clip-path="url(#clip920)" style="stroke:#000000; stroke-linecap:round; stroke-linejoin:round; stroke-width:4; stroke-opacity:1; fill:none" points="249.542,1423.18 2352.76,1423.18 "></polyline>
<polyline clip-path="url(#clip920)" style="stroke:#000000; stroke-linecap:round; stroke-linejoin:round; stroke-width:4; stroke-opacity:1; fill:none" points="309.067,1423.18 309.067,1404.28 "></polyline>
<polyline clip-path="url(#clip920)" style="stroke:#000000; stroke-linecap:round; stroke-linejoin:round; stroke-width:4; stroke-opacity:1; fill:none" points="805.108,1423.18 805.108,1404.28 "></polyline>
<polyline clip-path="url(#clip920)" style="stroke:#000000; stroke-linecap:round; stroke-linejoin:round; stroke-width:4; stroke-opacity:1; fill:none" points="1301.15,1423.18 1301.15,1404.28 "></polyline>
<polyline clip-path="url(#clip920)" style="stroke:#000000; stroke-linecap:round; stroke-linejoin:round; stroke-width:4; stroke-opacity:1; fill:none" points="1797.19,1423.18 1797.19,1404.28 "></polyline>
<polyline clip-path="url(#clip920)" style="stroke:#000000; stroke-linecap:round; stroke-linejoin:round; stroke-width:4; stroke-opacity:1; fill:none" points="2293.23,1423.18 2293.23,1404.28 "></polyline>
<path clip-path="url(#clip920)" d="M271.37 1454.1 Q267.759 1454.1 265.931 1457.66 Q264.125 1461.2 264.125 1468.33 Q264.125 1475.44 265.931 1479.01 Q267.759 1482.55 271.37 1482.55 Q275.005 1482.55 276.81 1479.01 Q278.639 1475.44 278.639 1468.33 Q278.639 1461.2 276.81 1457.66 Q275.005 1454.1 271.37 1454.1 M271.37 1450.39 Q277.181 1450.39 280.236 1455 Q283.315 1459.58 283.315 1468.33 Q283.315 1477.06 280.236 1481.67 Q277.181 1486.25 271.37 1486.25 Q265.56 1486.25 262.482 1481.67 Q259.426 1477.06 259.426 1468.33 Q259.426 1459.58 262.482 1455 Q265.56 1450.39 271.37 1450.39 Z" fill="#000000" fill-rule="nonzero" fill-opacity="1"></path><path clip-path="url(#clip920)" d="M291.532 1479.7 L296.417 1479.7 L296.417 1485.58 L291.532 1485.58 L291.532 1479.7 Z" fill="#000000" fill-rule="nonzero" fill-opacity="1"></path><path clip-path="url(#clip920)" d="M316.602 1454.1 Q312.991 1454.1 311.162 1457.66 Q309.356 1461.2 309.356 1468.33 Q309.356 1475.44 311.162 1479.01 Q312.991 1482.55 316.602 1482.55 Q320.236 1482.55 322.041 1479.01 Q323.87 1475.44 323.87 1468.33 Q323.87 1461.2 322.041 1457.66 Q320.236 1454.1 316.602 1454.1 M316.602 1450.39 Q322.412 1450.39 325.467 1455 Q328.546 1459.58 328.546 1468.33 Q328.546 1477.06 325.467 1481.67 Q322.412 1486.25 316.602 1486.25 Q310.791 1486.25 307.713 1481.67 Q304.657 1477.06 304.657 1468.33 Q304.657 1459.58 307.713 1455 Q310.791 1450.39 316.602 1450.39 Z" fill="#000000" fill-rule="nonzero" fill-opacity="1"></path><path clip-path="url(#clip920)" d="M346.764 1454.1 Q343.152 1454.1 341.324 1457.66 Q339.518 1461.2 339.518 1468.33 Q339.518 1475.44 341.324 1479.01 Q343.152 1482.55 346.764 1482.55 Q350.398 1482.55 352.203 1479.01 Q354.032 1475.44 354.032 1468.33 Q354.032 1461.2 352.203 1457.66 Q350.398 1454.1 346.764 1454.1 M346.764 1450.39 Q352.574 1450.39 355.629 1455 Q358.708 1459.58 358.708 1468.33 Q358.708 1477.06 355.629 1481.67 Q352.574 1486.25 346.764 1486.25 Q340.953 1486.25 337.875 1481.67 Q334.819 1477.06 334.819 1468.33 Q334.819 1459.58 337.875 1455 Q340.953 1450.39 346.764 1450.39 Z" fill="#000000" fill-rule="nonzero" fill-opacity="1"></path><path clip-path="url(#clip920)" d="M767.909 1454.1 Q764.298 1454.1 762.469 1457.66 Q760.664 1461.2 760.664 1468.33 Q760.664 1475.44 762.469 1479.01 Q764.298 1482.55 767.909 1482.55 Q771.543 1482.55 773.349 1479.01 Q775.178 1475.44 775.178 1468.33 Q775.178 1461.2 773.349 1457.66 Q771.543 1454.1 767.909 1454.1 M767.909 1450.39 Q773.719 1450.39 776.775 1455 Q779.853 1459.58 779.853 1468.33 Q779.853 1477.06 776.775 1481.67 Q773.719 1486.25 767.909 1486.25 Q762.099 1486.25 759.02 1481.67 Q755.965 1477.06 755.965 1468.33 Q755.965 1459.58 759.02 1455 Q762.099 1450.39 767.909 1450.39 Z" fill="#000000" fill-rule="nonzero" fill-opacity="1"></path><path clip-path="url(#clip920)" d="M788.071 1479.7 L792.955 1479.7 L792.955 1485.58 L788.071 1485.58 L788.071 1479.7 Z" fill="#000000" fill-rule="nonzero" fill-opacity="1"></path><path clip-path="url(#clip920)" d="M807.168 1481.64 L823.487 1481.64 L823.487 1485.58 L801.543 1485.58 L801.543 1481.64 Q804.205 1478.89 808.788 1474.26 Q813.395 1469.61 814.576 1468.27 Q816.821 1465.74 817.7 1464.01 Q818.603 1462.25 818.603 1460.56 Q818.603 1457.8 816.659 1456.07 Q814.738 1454.33 811.636 1454.33 Q809.437 1454.33 806.983 1455.09 Q804.552 1455.86 801.775 1457.41 L801.775 1452.69 Q804.599 1451.55 807.052 1450.97 Q809.506 1450.39 811.543 1450.39 Q816.913 1450.39 820.108 1453.08 Q823.302 1455.77 823.302 1460.26 Q823.302 1462.39 822.492 1464.31 Q821.705 1466.2 819.599 1468.8 Q819.02 1469.47 815.918 1472.69 Q812.816 1475.88 807.168 1481.64 Z" fill="#000000" fill-rule="nonzero" fill-opacity="1"></path><path clip-path="url(#clip920)" d="M833.349 1451.02 L851.705 1451.02 L851.705 1454.96 L837.631 1454.96 L837.631 1463.43 Q838.649 1463.08 839.668 1462.92 Q840.686 1462.73 841.705 1462.73 Q847.492 1462.73 850.872 1465.9 Q854.251 1469.08 854.251 1474.49 Q854.251 1480.07 850.779 1483.17 Q847.307 1486.25 840.987 1486.25 Q838.811 1486.25 836.543 1485.88 Q834.298 1485.51 831.89 1484.77 L831.89 1480.07 Q833.974 1481.2 836.196 1481.76 Q838.418 1482.32 840.895 1482.32 Q844.899 1482.32 847.237 1480.21 Q849.575 1478.1 849.575 1474.49 Q849.575 1470.88 847.237 1468.77 Q844.899 1466.67 840.895 1466.67 Q839.02 1466.67 837.145 1467.08 Q835.293 1467.5 833.349 1468.38 L833.349 1451.02 Z" fill="#000000" fill-rule="nonzero" fill-opacity="1"></path><path clip-path="url(#clip920)" d="M1263.45 1454.1 Q1259.84 1454.1 1258.01 1457.66 Q1256.21 1461.2 1256.21 1468.33 Q1256.21 1475.44 1258.01 1479.01 Q1259.84 1482.55 1263.45 1482.55 Q1267.09 1482.55 1268.89 1479.01 Q1270.72 1475.44 1270.72 1468.33 Q1270.72 1461.2 1268.89 1457.66 Q1267.09 1454.1 1263.45 1454.1 M1263.45 1450.39 Q1269.26 1450.39 1272.32 1455 Q1275.4 1459.58 1275.4 1468.33 Q1275.4 1477.06 1272.32 1481.67 Q1269.26 1486.25 1263.45 1486.25 Q1257.64 1486.25 1254.56 1481.67 Q1251.51 1477.06 1251.51 1468.33 Q1251.51 1459.58 1254.56 1455 Q1257.64 1450.39 1263.45 1450.39 Z" fill="#000000" fill-rule="nonzero" fill-opacity="1"></path><path clip-path="url(#clip920)" d="M1283.61 1479.7 L1288.5 1479.7 L1288.5 1485.58 L1283.61 1485.58 L1283.61 1479.7 Z" fill="#000000" fill-rule="nonzero" fill-opacity="1"></path><path clip-path="url(#clip920)" d="M1298.73 1451.02 L1317.09 1451.02 L1317.09 1454.96 L1303.01 1454.96 L1303.01 1463.43 Q1304.03 1463.08 1305.05 1462.92 Q1306.07 1462.73 1307.09 1462.73 Q1312.87 1462.73 1316.25 1465.9 Q1319.63 1469.08 1319.63 1474.49 Q1319.63 1480.07 1316.16 1483.17 Q1312.69 1486.25 1306.37 1486.25 Q1304.19 1486.25 1301.92 1485.88 Q1299.68 1485.51 1297.27 1484.77 L1297.27 1480.07 Q1299.35 1481.2 1301.58 1481.76 Q1303.8 1482.32 1306.28 1482.32 Q1310.28 1482.32 1312.62 1480.21 Q1314.96 1478.1 1314.96 1474.49 Q1314.96 1470.88 1312.62 1468.77 Q1310.28 1466.67 1306.28 1466.67 Q1304.4 1466.67 1302.53 1467.08 Q1300.67 1467.5 1298.73 1468.38 L1298.73 1451.02 Z" fill="#000000" fill-rule="nonzero" fill-opacity="1"></path><path clip-path="url(#clip920)" d="M1338.85 1454.1 Q1335.23 1454.1 1333.41 1457.66 Q1331.6 1461.2 1331.6 1468.33 Q1331.6 1475.44 1333.41 1479.01 Q1335.23 1482.55 1338.85 1482.55 Q1342.48 1482.55 1344.29 1479.01 Q1346.11 1475.44 1346.11 1468.33 Q1346.11 1461.2 1344.29 1457.66 Q1342.48 1454.1 1338.85 1454.1 M1338.85 1450.39 Q1344.66 1450.39 1347.71 1455 Q1350.79 1459.58 1350.79 1468.33 Q1350.79 1477.06 1347.71 1481.67 Q1344.66 1486.25 1338.85 1486.25 Q1333.04 1486.25 1329.96 1481.67 Q1326.9 1477.06 1326.9 1468.33 Q1326.9 1459.58 1329.96 1455 Q1333.04 1450.39 1338.85 1450.39 Z" fill="#000000" fill-rule="nonzero" fill-opacity="1"></path><path clip-path="url(#clip920)" d="M1759.99 1454.1 Q1756.38 1454.1 1754.55 1457.66 Q1752.75 1461.2 1752.75 1468.33 Q1752.75 1475.44 1754.55 1479.01 Q1756.38 1482.55 1759.99 1482.55 Q1763.63 1482.55 1765.43 1479.01 Q1767.26 1475.44 1767.26 1468.33 Q1767.26 1461.2 1765.43 1457.66 Q1763.63 1454.1 1759.99 1454.1 M1759.99 1450.39 Q1765.8 1450.39 1768.86 1455 Q1771.94 1459.58 1771.94 1468.33 Q1771.94 1477.06 1768.86 1481.67 Q1765.8 1486.25 1759.99 1486.25 Q1754.18 1486.25 1751.1 1481.67 Q1748.05 1477.06 1748.05 1468.33 Q1748.05 1459.58 1751.1 1455 Q1754.18 1450.39 1759.99 1450.39 Z" fill="#000000" fill-rule="nonzero" fill-opacity="1"></path><path clip-path="url(#clip920)" d="M1780.15 1479.7 L1785.04 1479.7 L1785.04 1485.58 L1780.15 1485.58 L1780.15 1479.7 Z" fill="#000000" fill-rule="nonzero" fill-opacity="1"></path><path clip-path="url(#clip920)" d="M1794.04 1451.02 L1816.26 1451.02 L1816.26 1453.01 L1803.72 1485.58 L1798.83 1485.58 L1810.64 1454.96 L1794.04 1454.96 L1794.04 1451.02 Z" fill="#000000" fill-rule="nonzero" fill-opacity="1"></path><path clip-path="url(#clip920)" d="M1825.43 1451.02 L1843.79 1451.02 L1843.79 1454.96 L1829.71 1454.96 L1829.71 1463.43 Q1830.73 1463.08 1831.75 1462.92 Q1832.77 1462.73 1833.79 1462.73 Q1839.57 1462.73 1842.95 1465.9 Q1846.33 1469.08 1846.33 1474.49 Q1846.33 1480.07 1842.86 1483.17 Q1839.39 1486.25 1833.07 1486.25 Q1830.89 1486.25 1828.62 1485.88 Q1826.38 1485.51 1823.97 1484.77 L1823.97 1480.07 Q1826.06 1481.2 1828.28 1481.76 Q1830.5 1482.32 1832.98 1482.32 Q1836.98 1482.32 1839.32 1480.21 Q1841.66 1478.1 1841.66 1474.49 Q1841.66 1470.88 1839.32 1468.77 Q1836.98 1466.67 1832.98 1466.67 Q1831.1 1466.67 1829.23 1467.08 Q1827.38 1467.5 1825.43 1468.38 L1825.43 1451.02 Z" fill="#000000" fill-rule="nonzero" fill-opacity="1"></path><path clip-path="url(#clip920)" d="M2245.3 1481.64 L2252.94 1481.64 L2252.94 1455.28 L2244.63 1456.95 L2244.63 1452.69 L2252.9 1451.02 L2257.57 1451.02 L2257.57 1481.64 L2265.21 1481.64 L2265.21 1485.58 L2245.3 1485.58 L2245.3 1481.64 Z" fill="#000000" fill-rule="nonzero" fill-opacity="1"></path><path clip-path="url(#clip920)" d="M2274.65 1479.7 L2279.54 1479.7 L2279.54 1485.58 L2274.65 1485.58 L2274.65 1479.7 Z" fill="#000000" fill-rule="nonzero" fill-opacity="1"></path><path clip-path="url(#clip920)" d="M2299.72 1454.1 Q2296.11 1454.1 2294.28 1457.66 Q2292.48 1461.2 2292.48 1468.33 Q2292.48 1475.44 2294.28 1479.01 Q2296.11 1482.55 2299.72 1482.55 Q2303.36 1482.55 2305.16 1479.01 Q2306.99 1475.44 2306.99 1468.33 Q2306.99 1461.2 2305.16 1457.66 Q2303.36 1454.1 2299.72 1454.1 M2299.72 1450.39 Q2305.53 1450.39 2308.59 1455 Q2311.67 1459.58 2311.67 1468.33 Q2311.67 1477.06 2308.59 1481.67 Q2305.53 1486.25 2299.72 1486.25 Q2293.91 1486.25 2290.84 1481.67 Q2287.78 1477.06 2287.78 1468.33 Q2287.78 1459.58 2290.84 1455 Q2293.91 1450.39 2299.72 1450.39 Z" fill="#000000" fill-rule="nonzero" fill-opacity="1"></path><path clip-path="url(#clip920)" d="M2329.89 1454.1 Q2326.27 1454.1 2324.45 1457.66 Q2322.64 1461.2 2322.64 1468.33 Q2322.64 1475.44 2324.45 1479.01 Q2326.27 1482.55 2329.89 1482.55 Q2333.52 1482.55 2335.33 1479.01 Q2337.15 1475.44 2337.15 1468.33 Q2337.15 1461.2 2335.33 1457.66 Q2333.52 1454.1 2329.89 1454.1 M2329.89 1450.39 Q2335.7 1450.39 2338.75 1455 Q2341.83 1459.58 2341.83 1468.33 Q2341.83 1477.06 2338.75 1481.67 Q2335.7 1486.25 2329.89 1486.25 Q2324.08 1486.25 2321 1481.67 Q2317.94 1477.06 2317.94 1468.33 Q2317.94 1459.58 2321 1455 Q2324.08 1450.39 2329.89 1450.39 Z" fill="#000000" fill-rule="nonzero" fill-opacity="1"></path><path clip-path="url(#clip920)" d="M1003.17 1520.52 L1030.48 1520.52 L1030.48 1525.93 L1009.6 1525.93 L1009.6 1539.94 L1028.44 1539.94 L1028.44 1545.35 L1009.6 1545.35 L1009.6 1568.04 L1003.17 1568.04 L1003.17 1520.52 Z" fill="#000000" fill-rule="nonzero" fill-opacity="1"></path><path clip-path="url(#clip920)" d="M1050.63 1550.12 Q1043.53 1550.12 1040.79 1551.75 Q1038.05 1553.37 1038.05 1557.29 Q1038.05 1560.4 1040.09 1562.25 Q1042.16 1564.07 1045.69 1564.07 Q1050.56 1564.07 1053.49 1560.63 Q1056.45 1557.16 1056.45 1551.43 L1056.45 1550.12 L1050.63 1550.12 M1062.31 1547.71 L1062.31 1568.04 L1056.45 1568.04 L1056.45 1562.63 Q1054.45 1565.88 1051.45 1567.44 Q1048.46 1568.97 1044.13 1568.97 Q1038.66 1568.97 1035.41 1565.91 Q1032.2 1562.82 1032.2 1557.67 Q1032.2 1551.65 1036.21 1548.6 Q1040.25 1545.54 1048.24 1545.54 L1056.45 1545.54 L1056.45 1544.97 Q1056.45 1540.93 1053.78 1538.73 Q1051.14 1536.5 1046.33 1536.5 Q1043.27 1536.5 1040.38 1537.23 Q1037.48 1537.97 1034.81 1539.43 L1034.81 1534.02 Q1038.02 1532.78 1041.05 1532.17 Q1044.07 1531.54 1046.93 1531.54 Q1054.67 1531.54 1058.49 1535.55 Q1062.31 1539.56 1062.31 1547.71 Z" fill="#000000" fill-rule="nonzero" fill-opacity="1"></path><path clip-path="url(#clip920)" d="M1074.37 1518.52 L1080.23 1518.52 L1080.23 1568.04 L1074.37 1568.04 L1074.37 1518.52 Z" fill="#000000" fill-rule="nonzero" fill-opacity="1"></path><path clip-path="url(#clip920)" d="M1115.21 1533.45 L1115.21 1538.98 Q1112.72 1537.71 1110.05 1537.07 Q1107.38 1536.44 1104.51 1536.44 Q1100.15 1536.44 1097.96 1537.77 Q1095.79 1539.11 1095.79 1541.79 Q1095.79 1543.82 1097.35 1545 Q1098.91 1546.15 1103.62 1547.2 L1105.63 1547.64 Q1111.86 1548.98 1114.47 1551.43 Q1117.12 1553.85 1117.12 1558.21 Q1117.12 1563.17 1113.17 1566.07 Q1109.25 1568.97 1102.38 1568.97 Q1099.52 1568.97 1096.4 1568.39 Q1093.31 1567.85 1089.87 1566.74 L1089.87 1560.69 Q1093.12 1562.38 1096.27 1563.24 Q1099.42 1564.07 1102.51 1564.07 Q1106.64 1564.07 1108.87 1562.66 Q1111.1 1561.23 1111.1 1558.65 Q1111.1 1556.27 1109.48 1554.99 Q1107.89 1553.72 1102.44 1552.54 L1100.41 1552.07 Q1094.96 1550.92 1092.54 1548.56 Q1090.13 1546.18 1090.13 1542.04 Q1090.13 1537.01 1093.69 1534.27 Q1097.26 1531.54 1103.81 1531.54 Q1107.06 1531.54 1109.92 1532.01 Q1112.79 1532.49 1115.21 1533.45 Z" fill="#000000" fill-rule="nonzero" fill-opacity="1"></path><path clip-path="url(#clip920)" d="M1156.93 1548.76 L1156.93 1551.62 L1130.01 1551.62 Q1130.39 1557.67 1133.64 1560.85 Q1136.91 1564 1142.74 1564 Q1146.11 1564 1149.26 1563.17 Q1152.45 1562.35 1155.57 1560.69 L1155.57 1566.23 Q1152.41 1567.57 1149.1 1568.27 Q1145.79 1568.97 1142.39 1568.97 Q1133.86 1568.97 1128.86 1564 Q1123.9 1559.04 1123.9 1550.57 Q1123.9 1541.82 1128.61 1536.69 Q1133.35 1531.54 1141.37 1531.54 Q1148.56 1531.54 1152.73 1536.18 Q1156.93 1540.8 1156.93 1548.76 M1151.08 1547.04 Q1151.01 1542.23 1148.37 1539.37 Q1145.76 1536.5 1141.43 1536.5 Q1136.53 1536.5 1133.57 1539.27 Q1130.64 1542.04 1130.2 1547.07 L1151.08 1547.04 Z" fill="#000000" fill-rule="nonzero" fill-opacity="1"></path><path clip-path="url(#clip920)" d="M1193.95 1525.81 L1193.95 1543.66 L1202.03 1543.66 Q1206.52 1543.66 1208.97 1541.34 Q1211.42 1539.02 1211.42 1534.72 Q1211.42 1530.45 1208.97 1528.13 Q1206.52 1525.81 1202.03 1525.81 L1193.95 1525.81 M1187.52 1520.52 L1202.03 1520.52 Q1210.02 1520.52 1214.1 1524.15 Q1218.2 1527.75 1218.2 1534.72 Q1218.2 1541.75 1214.1 1545.35 Q1210.02 1548.95 1202.03 1548.95 L1193.95 1548.95 L1193.95 1568.04 L1187.52 1568.04 L1187.52 1520.52 Z" fill="#000000" fill-rule="nonzero" fill-opacity="1"></path><path clip-path="url(#clip920)" d="M1238.06 1536.5 Q1233.35 1536.5 1230.62 1540.19 Q1227.88 1543.85 1227.88 1550.25 Q1227.88 1556.65 1230.59 1560.34 Q1233.32 1564 1238.06 1564 Q1242.74 1564 1245.48 1560.31 Q1248.22 1556.62 1248.22 1550.25 Q1248.22 1543.92 1245.48 1540.23 Q1242.74 1536.5 1238.06 1536.5 M1238.06 1531.54 Q1245.7 1531.54 1250.06 1536.5 Q1254.42 1541.47 1254.42 1550.25 Q1254.42 1559 1250.06 1564 Q1245.7 1568.97 1238.06 1568.97 Q1230.39 1568.97 1226.03 1564 Q1221.7 1559 1221.7 1550.25 Q1221.7 1541.47 1226.03 1536.5 Q1230.39 1531.54 1238.06 1531.54 Z" fill="#000000" fill-rule="nonzero" fill-opacity="1"></path><path clip-path="url(#clip920)" d="M1286.86 1533.45 L1286.86 1538.98 Q1284.38 1537.71 1281.7 1537.07 Q1279.03 1536.44 1276.16 1536.44 Q1271.8 1536.44 1269.61 1537.77 Q1267.44 1539.11 1267.44 1541.79 Q1267.44 1543.82 1269 1545 Q1270.56 1546.15 1275.27 1547.2 L1277.28 1547.64 Q1283.52 1548.98 1286.13 1551.43 Q1288.77 1553.85 1288.77 1558.21 Q1288.77 1563.17 1284.82 1566.07 Q1280.91 1568.97 1274.03 1568.97 Q1271.17 1568.97 1268.05 1568.39 Q1264.96 1567.85 1261.52 1566.74 L1261.52 1560.69 Q1264.77 1562.38 1267.92 1563.24 Q1271.07 1564.07 1274.16 1564.07 Q1278.3 1564.07 1280.52 1562.66 Q1282.75 1561.23 1282.75 1558.65 Q1282.75 1556.27 1281.13 1554.99 Q1279.54 1553.72 1274.09 1552.54 L1272.06 1552.07 Q1266.62 1550.92 1264.2 1548.56 Q1261.78 1546.18 1261.78 1542.04 Q1261.78 1537.01 1265.34 1534.27 Q1268.91 1531.54 1275.46 1531.54 Q1278.71 1531.54 1281.57 1532.01 Q1284.44 1532.49 1286.86 1533.45 Z" fill="#000000" fill-rule="nonzero" fill-opacity="1"></path><path clip-path="url(#clip920)" d="M1298.09 1532.4 L1303.95 1532.4 L1303.95 1568.04 L1298.09 1568.04 L1298.09 1532.4 M1298.09 1518.52 L1303.95 1518.52 L1303.95 1525.93 L1298.09 1525.93 L1298.09 1518.52 Z" fill="#000000" fill-rule="nonzero" fill-opacity="1"></path><path clip-path="url(#clip920)" d="M1322 1522.27 L1322 1532.4 L1334.06 1532.4 L1334.06 1536.95 L1322 1536.95 L1322 1556.3 Q1322 1560.66 1323.17 1561.9 Q1324.38 1563.14 1328.04 1563.14 L1334.06 1563.14 L1334.06 1568.04 L1328.04 1568.04 Q1321.26 1568.04 1318.69 1565.53 Q1316.11 1562.98 1316.11 1556.3 L1316.11 1536.95 L1311.81 1536.95 L1311.81 1532.4 L1316.11 1532.4 L1316.11 1522.27 L1322 1522.27 Z" fill="#000000" fill-rule="nonzero" fill-opacity="1"></path><path clip-path="url(#clip920)" d="M1341.76 1532.4 L1347.62 1532.4 L1347.62 1568.04 L1341.76 1568.04 L1341.76 1532.4 M1341.76 1518.52 L1347.62 1518.52 L1347.62 1525.93 L1341.76 1525.93 L1341.76 1518.52 Z" fill="#000000" fill-rule="nonzero" fill-opacity="1"></path><path clip-path="url(#clip920)" d="M1355.67 1532.4 L1361.88 1532.4 L1373.02 1562.31 L1384.16 1532.4 L1390.36 1532.4 L1377 1568.04 L1369.04 1568.04 L1355.67 1532.4 Z" fill="#000000" fill-rule="nonzero" fill-opacity="1"></path><path clip-path="url(#clip920)" d="M1428.94 1548.76 L1428.94 1551.62 L1402.01 1551.62 Q1402.4 1557.67 1405.64 1560.85 Q1408.92 1564 1414.75 1564 Q1418.12 1564 1421.27 1563.17 Q1424.45 1562.35 1427.57 1560.69 L1427.57 1566.23 Q1424.42 1567.57 1421.11 1568.27 Q1417.8 1568.97 1414.39 1568.97 Q1405.86 1568.97 1400.87 1564 Q1395.9 1559.04 1395.9 1550.57 Q1395.9 1541.82 1400.61 1536.69 Q1405.36 1531.54 1413.38 1531.54 Q1420.57 1531.54 1424.74 1536.18 Q1428.94 1540.8 1428.94 1548.76 M1423.08 1547.04 Q1423.02 1542.23 1420.38 1539.37 Q1417.77 1536.5 1413.44 1536.5 Q1408.54 1536.5 1405.58 1539.27 Q1402.65 1542.04 1402.2 1547.07 L1423.08 1547.04 Z" fill="#000000" fill-rule="nonzero" fill-opacity="1"></path><path clip-path="url(#clip920)" d="M1482.06 1545.76 Q1484.13 1546.46 1486.07 1548.76 Q1488.05 1551.05 1490.02 1555.06 L1496.54 1568.04 L1489.64 1568.04 L1483.56 1555.85 Q1481.2 1551.08 1478.97 1549.52 Q1476.78 1547.96 1472.96 1547.96 L1465.96 1547.96 L1465.96 1568.04 L1459.53 1568.04 L1459.53 1520.52 L1474.04 1520.52 Q1482.19 1520.52 1486.2 1523.93 Q1490.21 1527.34 1490.21 1534.21 Q1490.21 1538.7 1488.11 1541.66 Q1486.04 1544.62 1482.06 1545.76 M1465.96 1525.81 L1465.96 1542.68 L1474.04 1542.68 Q1478.69 1542.68 1481.04 1540.54 Q1483.43 1538.38 1483.43 1534.21 Q1483.43 1530.04 1481.04 1527.94 Q1478.69 1525.81 1474.04 1525.81 L1465.96 1525.81 Z" fill="#000000" fill-rule="nonzero" fill-opacity="1"></path><path clip-path="url(#clip920)" d="M1519.33 1550.12 Q1512.24 1550.12 1509.5 1551.75 Q1506.76 1553.37 1506.76 1557.29 Q1506.76 1560.4 1508.8 1562.25 Q1510.87 1564.07 1514.4 1564.07 Q1519.27 1564.07 1522.2 1560.63 Q1525.16 1557.16 1525.16 1551.43 L1525.16 1550.12 L1519.33 1550.12 M1531.01 1547.71 L1531.01 1568.04 L1525.16 1568.04 L1525.16 1562.63 Q1523.15 1565.88 1520.16 1567.44 Q1517.17 1568.97 1512.84 1568.97 Q1507.37 1568.97 1504.12 1565.91 Q1500.9 1562.82 1500.9 1557.67 Q1500.9 1551.65 1504.92 1548.6 Q1508.96 1545.54 1516.95 1545.54 L1525.16 1545.54 L1525.16 1544.97 Q1525.16 1540.93 1522.48 1538.73 Q1519.84 1536.5 1515.04 1536.5 Q1511.98 1536.5 1509.08 1537.23 Q1506.19 1537.97 1503.51 1539.43 L1503.51 1534.02 Q1506.73 1532.78 1509.75 1532.17 Q1512.78 1531.54 1515.64 1531.54 Q1523.38 1531.54 1527.2 1535.55 Q1531.01 1539.56 1531.01 1547.71 Z" fill="#000000" fill-rule="nonzero" fill-opacity="1"></path><path clip-path="url(#clip920)" d="M1548.87 1522.27 L1548.87 1532.4 L1560.93 1532.4 L1560.93 1536.95 L1548.87 1536.95 L1548.87 1556.3 Q1548.87 1560.66 1550.05 1561.9 Q1551.26 1563.14 1554.92 1563.14 L1560.93 1563.14 L1560.93 1568.04 L1554.92 1568.04 Q1548.14 1568.04 1545.56 1565.53 Q1542.98 1562.98 1542.98 1556.3 L1542.98 1536.95 L1538.69 1536.95 L1538.69 1532.4 L1542.98 1532.4 L1542.98 1522.27 L1548.87 1522.27 Z" fill="#000000" fill-rule="nonzero" fill-opacity="1"></path><path clip-path="url(#clip920)" d="M1599.13 1548.76 L1599.13 1551.62 L1572.2 1551.62 Q1572.58 1557.67 1575.83 1560.85 Q1579.11 1564 1584.93 1564 Q1588.31 1564 1591.46 1563.17 Q1594.64 1562.35 1597.76 1560.69 L1597.76 1566.23 Q1594.61 1567.57 1591.3 1568.27 Q1587.99 1568.97 1584.58 1568.97 Q1576.05 1568.97 1571.05 1564 Q1566.09 1559.04 1566.09 1550.57 Q1566.09 1541.82 1570.8 1536.69 Q1575.54 1531.54 1583.56 1531.54 Q1590.76 1531.54 1594.93 1536.18 Q1599.13 1540.8 1599.13 1548.76 M1593.27 1547.04 Q1593.21 1542.23 1590.57 1539.37 Q1587.96 1536.5 1583.63 1536.5 Q1578.73 1536.5 1575.77 1539.27 Q1572.84 1542.04 1572.39 1547.07 L1593.27 1547.04 Z" fill="#000000" fill-rule="nonzero" fill-opacity="1"></path><polyline clip-path="url(#clip922)" style="stroke:#000000; stroke-linecap:round; stroke-linejoin:round; stroke-width:2; stroke-opacity:0.1; fill:none" points="249.542,1397.54 2352.76,1397.54 "></polyline>
<polyline clip-path="url(#clip922)" style="stroke:#000000; stroke-linecap:round; stroke-linejoin:round; stroke-width:2; stroke-opacity:0.1; fill:none" points="249.542,1088.22 2352.76,1088.22 "></polyline>
<polyline clip-path="url(#clip922)" style="stroke:#000000; stroke-linecap:round; stroke-linejoin:round; stroke-width:2; stroke-opacity:0.1; fill:none" points="249.542,778.899 2352.76,778.899 "></polyline>
<polyline clip-path="url(#clip922)" style="stroke:#000000; stroke-linecap:round; stroke-linejoin:round; stroke-width:2; stroke-opacity:0.1; fill:none" points="249.542,469.578 2352.76,469.578 "></polyline>
<polyline clip-path="url(#clip922)" style="stroke:#000000; stroke-linecap:round; stroke-linejoin:round; stroke-width:2; stroke-opacity:0.1; fill:none" points="249.542,160.256 2352.76,160.256 "></polyline>
<polyline clip-path="url(#clip920)" style="stroke:#000000; stroke-linecap:round; stroke-linejoin:round; stroke-width:4; stroke-opacity:1; fill:none" points="249.542,1423.18 249.542,123.472 "></polyline>
<polyline clip-path="url(#clip920)" style="stroke:#000000; stroke-linecap:round; stroke-linejoin:round; stroke-width:4; stroke-opacity:1; fill:none" points="249.542,1397.54 268.44,1397.54 "></polyline>
<polyline clip-path="url(#clip920)" style="stroke:#000000; stroke-linecap:round; stroke-linejoin:round; stroke-width:4; stroke-opacity:1; fill:none" points="249.542,1088.22 268.44,1088.22 "></polyline>
<polyline clip-path="url(#clip920)" style="stroke:#000000; stroke-linecap:round; stroke-linejoin:round; stroke-width:4; stroke-opacity:1; fill:none" points="249.542,778.899 268.44,778.899 "></polyline>
<polyline clip-path="url(#clip920)" style="stroke:#000000; stroke-linecap:round; stroke-linejoin:round; stroke-width:4; stroke-opacity:1; fill:none" points="249.542,469.578 268.44,469.578 "></polyline>
<polyline clip-path="url(#clip920)" style="stroke:#000000; stroke-linecap:round; stroke-linejoin:round; stroke-width:4; stroke-opacity:1; fill:none" points="249.542,160.256 268.44,160.256 "></polyline>
<path clip-path="url(#clip920)" d="M126.205 1383.34 Q122.593 1383.34 120.765 1386.91 Q118.959 1390.45 118.959 1397.58 Q118.959 1404.68 120.765 1408.25 Q122.593 1411.79 126.205 1411.79 Q129.839 1411.79 131.644 1408.25 Q133.473 1404.68 133.473 1397.58 Q133.473 1390.45 131.644 1386.91 Q129.839 1383.34 126.205 1383.34 M126.205 1379.64 Q132.015 1379.64 135.07 1384.24 Q138.149 1388.83 138.149 1397.58 Q138.149 1406.3 135.07 1410.91 Q132.015 1415.49 126.205 1415.49 Q120.394 1415.49 117.316 1410.91 Q114.26 1406.3 114.26 1397.58 Q114.26 1388.83 117.316 1384.24 Q120.394 1379.64 126.205 1379.64 Z" fill="#000000" fill-rule="nonzero" fill-opacity="1"></path><path clip-path="url(#clip920)" d="M146.366 1408.94 L151.251 1408.94 L151.251 1414.82 L146.366 1414.82 L146.366 1408.94 Z" fill="#000000" fill-rule="nonzero" fill-opacity="1"></path><path clip-path="url(#clip920)" d="M171.436 1383.34 Q167.825 1383.34 165.996 1386.91 Q164.19 1390.45 164.19 1397.58 Q164.19 1404.68 165.996 1408.25 Q167.825 1411.79 171.436 1411.79 Q175.07 1411.79 176.876 1408.25 Q178.704 1404.68 178.704 1397.58 Q178.704 1390.45 176.876 1386.91 Q175.07 1383.34 171.436 1383.34 M171.436 1379.64 Q177.246 1379.64 180.301 1384.24 Q183.38 1388.83 183.38 1397.58 Q183.38 1406.3 180.301 1410.91 Q177.246 1415.49 171.436 1415.49 Q165.626 1415.49 162.547 1410.91 Q159.491 1406.3 159.491 1397.58 Q159.491 1388.83 162.547 1384.24 Q165.626 1379.64 171.436 1379.64 Z" fill="#000000" fill-rule="nonzero" fill-opacity="1"></path><path clip-path="url(#clip920)" d="M201.598 1383.34 Q197.987 1383.34 196.158 1386.91 Q194.352 1390.45 194.352 1397.58 Q194.352 1404.68 196.158 1408.25 Q197.987 1411.79 201.598 1411.79 Q205.232 1411.79 207.037 1408.25 Q208.866 1404.68 208.866 1397.58 Q208.866 1390.45 207.037 1386.91 Q205.232 1383.34 201.598 1383.34 M201.598 1379.64 Q207.408 1379.64 210.463 1384.24 Q213.542 1388.83 213.542 1397.58 Q213.542 1406.3 210.463 1410.91 Q207.408 1415.49 201.598 1415.49 Q195.787 1415.49 192.709 1410.91 Q189.653 1406.3 189.653 1397.58 Q189.653 1388.83 192.709 1384.24 Q195.787 1379.64 201.598 1379.64 Z" fill="#000000" fill-rule="nonzero" fill-opacity="1"></path><path clip-path="url(#clip920)" d="M127.2 1074.02 Q123.589 1074.02 121.76 1077.58 Q119.955 1081.13 119.955 1088.26 Q119.955 1095.36 121.76 1098.93 Q123.589 1102.47 127.2 1102.47 Q130.834 1102.47 132.64 1098.93 Q134.468 1095.36 134.468 1088.26 Q134.468 1081.13 132.64 1077.58 Q130.834 1074.02 127.2 1074.02 M127.2 1070.32 Q133.01 1070.32 136.066 1074.92 Q139.144 1079.51 139.144 1088.26 Q139.144 1096.98 136.066 1101.59 Q133.01 1106.17 127.2 1106.17 Q121.39 1106.17 118.311 1101.59 Q115.256 1096.98 115.256 1088.26 Q115.256 1079.51 118.311 1074.92 Q121.39 1070.32 127.2 1070.32 Z" fill="#000000" fill-rule="nonzero" fill-opacity="1"></path><path clip-path="url(#clip920)" d="M147.362 1099.62 L152.246 1099.62 L152.246 1105.5 L147.362 1105.5 L147.362 1099.62 Z" fill="#000000" fill-rule="nonzero" fill-opacity="1"></path><path clip-path="url(#clip920)" d="M166.459 1101.57 L182.778 1101.57 L182.778 1105.5 L160.834 1105.5 L160.834 1101.57 Q163.496 1098.81 168.079 1094.18 Q172.686 1089.53 173.866 1088.19 Q176.112 1085.66 176.991 1083.93 Q177.894 1082.17 177.894 1080.48 Q177.894 1077.72 175.95 1075.99 Q174.028 1074.25 170.927 1074.25 Q168.727 1074.25 166.274 1075.01 Q163.843 1075.78 161.065 1077.33 L161.065 1072.61 Q163.89 1071.47 166.343 1070.89 Q168.797 1070.32 170.834 1070.32 Q176.204 1070.32 179.399 1073 Q182.593 1075.69 182.593 1080.18 Q182.593 1082.31 181.783 1084.23 Q180.996 1086.13 178.889 1088.72 Q178.311 1089.39 175.209 1092.61 Q172.107 1095.8 166.459 1101.57 Z" fill="#000000" fill-rule="nonzero" fill-opacity="1"></path><path clip-path="url(#clip920)" d="M192.639 1070.94 L210.996 1070.94 L210.996 1074.88 L196.922 1074.88 L196.922 1083.35 Q197.94 1083 198.959 1082.84 Q199.977 1082.65 200.996 1082.65 Q206.783 1082.65 210.162 1085.83 Q213.542 1089 213.542 1094.41 Q213.542 1099.99 210.07 1103.09 Q206.598 1106.17 200.278 1106.17 Q198.102 1106.17 195.834 1105.8 Q193.588 1105.43 191.181 1104.69 L191.181 1099.99 Q193.264 1101.13 195.487 1101.68 Q197.709 1102.24 200.186 1102.24 Q204.19 1102.24 206.528 1100.13 Q208.866 1098.02 208.866 1094.41 Q208.866 1090.8 206.528 1088.7 Q204.19 1086.59 200.186 1086.59 Q198.311 1086.59 196.436 1087.01 Q194.584 1087.42 192.639 1088.3 L192.639 1070.94 Z" fill="#000000" fill-rule="nonzero" fill-opacity="1"></path><path clip-path="url(#clip920)" d="M126.205 764.698 Q122.593 764.698 120.765 768.263 Q118.959 771.804 118.959 778.934 Q118.959 786.041 120.765 789.605 Q122.593 793.147 126.205 793.147 Q129.839 793.147 131.644 789.605 Q133.473 786.041 133.473 778.934 Q133.473 771.804 131.644 768.263 Q129.839 764.698 126.205 764.698 M126.205 760.994 Q132.015 760.994 135.07 765.601 Q138.149 770.184 138.149 778.934 Q138.149 787.661 135.07 792.267 Q132.015 796.851 126.205 796.851 Q120.394 796.851 117.316 792.267 Q114.26 787.661 114.26 778.934 Q114.26 770.184 117.316 765.601 Q120.394 760.994 126.205 760.994 Z" fill="#000000" fill-rule="nonzero" fill-opacity="1"></path><path clip-path="url(#clip920)" d="M146.366 790.3 L151.251 790.3 L151.251 796.179 L146.366 796.179 L146.366 790.3 Z" fill="#000000" fill-rule="nonzero" fill-opacity="1"></path><path clip-path="url(#clip920)" d="M161.482 761.619 L179.839 761.619 L179.839 765.555 L165.765 765.555 L165.765 774.027 Q166.783 773.679 167.802 773.517 Q168.82 773.332 169.839 773.332 Q175.626 773.332 179.005 776.504 Q182.385 779.675 182.385 785.091 Q182.385 790.67 178.913 793.772 Q175.44 796.851 169.121 796.851 Q166.945 796.851 164.677 796.48 Q162.431 796.11 160.024 795.369 L160.024 790.67 Q162.107 791.804 164.329 792.36 Q166.552 792.915 169.028 792.915 Q173.033 792.915 175.371 790.809 Q177.709 788.703 177.709 785.091 Q177.709 781.48 175.371 779.374 Q173.033 777.267 169.028 777.267 Q167.153 777.267 165.278 777.684 Q163.427 778.101 161.482 778.98 L161.482 761.619 Z" fill="#000000" fill-rule="nonzero" fill-opacity="1"></path><path clip-path="url(#clip920)" d="M201.598 764.698 Q197.987 764.698 196.158 768.263 Q194.352 771.804 194.352 778.934 Q194.352 786.041 196.158 789.605 Q197.987 793.147 201.598 793.147 Q205.232 793.147 207.037 789.605 Q208.866 786.041 208.866 778.934 Q208.866 771.804 207.037 768.263 Q205.232 764.698 201.598 764.698 M201.598 760.994 Q207.408 760.994 210.463 765.601 Q213.542 770.184 213.542 778.934 Q213.542 787.661 210.463 792.267 Q207.408 796.851 201.598 796.851 Q195.787 796.851 192.709 792.267 Q189.653 787.661 189.653 778.934 Q189.653 770.184 192.709 765.601 Q195.787 760.994 201.598 760.994 Z" fill="#000000" fill-rule="nonzero" fill-opacity="1"></path><path clip-path="url(#clip920)" d="M127.2 455.377 Q123.589 455.377 121.76 458.941 Q119.955 462.483 119.955 469.613 Q119.955 476.719 121.76 480.284 Q123.589 483.825 127.2 483.825 Q130.834 483.825 132.64 480.284 Q134.468 476.719 134.468 469.613 Q134.468 462.483 132.64 458.941 Q130.834 455.377 127.2 455.377 M127.2 451.673 Q133.01 451.673 136.066 456.279 Q139.144 460.863 139.144 469.613 Q139.144 478.339 136.066 482.946 Q133.01 487.529 127.2 487.529 Q121.39 487.529 118.311 482.946 Q115.256 478.339 115.256 469.613 Q115.256 460.863 118.311 456.279 Q121.39 451.673 127.2 451.673 Z" fill="#000000" fill-rule="nonzero" fill-opacity="1"></path><path clip-path="url(#clip920)" d="M147.362 480.978 L152.246 480.978 L152.246 486.858 L147.362 486.858 L147.362 480.978 Z" fill="#000000" fill-rule="nonzero" fill-opacity="1"></path><path clip-path="url(#clip920)" d="M161.251 452.298 L183.473 452.298 L183.473 454.289 L170.927 486.858 L166.042 486.858 L177.848 456.233 L161.251 456.233 L161.251 452.298 Z" fill="#000000" fill-rule="nonzero" fill-opacity="1"></path><path clip-path="url(#clip920)" d="M192.639 452.298 L210.996 452.298 L210.996 456.233 L196.922 456.233 L196.922 464.705 Q197.94 464.358 198.959 464.196 Q199.977 464.011 200.996 464.011 Q206.783 464.011 210.162 467.182 Q213.542 470.353 213.542 475.77 Q213.542 481.349 210.07 484.45 Q206.598 487.529 200.278 487.529 Q198.102 487.529 195.834 487.159 Q193.588 486.788 191.181 486.048 L191.181 481.349 Q193.264 482.483 195.487 483.038 Q197.709 483.594 200.186 483.594 Q204.19 483.594 206.528 481.487 Q208.866 479.381 208.866 475.77 Q208.866 472.159 206.528 470.052 Q204.19 467.946 200.186 467.946 Q198.311 467.946 196.436 468.363 Q194.584 468.779 192.639 469.659 L192.639 452.298 Z" fill="#000000" fill-rule="nonzero" fill-opacity="1"></path><path clip-path="url(#clip920)" d="M117.015 173.601 L124.654 173.601 L124.654 147.236 L116.343 148.902 L116.343 144.643 L124.607 142.976 L129.283 142.976 L129.283 173.601 L136.922 173.601 L136.922 177.536 L117.015 177.536 L117.015 173.601 Z" fill="#000000" fill-rule="nonzero" fill-opacity="1"></path><path clip-path="url(#clip920)" d="M146.366 171.657 L151.251 171.657 L151.251 177.536 L146.366 177.536 L146.366 171.657 Z" fill="#000000" fill-rule="nonzero" fill-opacity="1"></path><path clip-path="url(#clip920)" d="M171.436 146.055 Q167.825 146.055 165.996 149.62 Q164.19 153.161 164.19 160.291 Q164.19 167.397 165.996 170.962 Q167.825 174.504 171.436 174.504 Q175.07 174.504 176.876 170.962 Q178.704 167.397 178.704 160.291 Q178.704 153.161 176.876 149.62 Q175.07 146.055 171.436 146.055 M171.436 142.351 Q177.246 142.351 180.301 146.958 Q183.38 151.541 183.38 160.291 Q183.38 169.018 180.301 173.624 Q177.246 178.208 171.436 178.208 Q165.626 178.208 162.547 173.624 Q159.491 169.018 159.491 160.291 Q159.491 151.541 162.547 146.958 Q165.626 142.351 171.436 142.351 Z" fill="#000000" fill-rule="nonzero" fill-opacity="1"></path><path clip-path="url(#clip920)" d="M201.598 146.055 Q197.987 146.055 196.158 149.62 Q194.352 153.161 194.352 160.291 Q194.352 167.397 196.158 170.962 Q197.987 174.504 201.598 174.504 Q205.232 174.504 207.037 170.962 Q208.866 167.397 208.866 160.291 Q208.866 153.161 207.037 149.62 Q205.232 146.055 201.598 146.055 M201.598 142.351 Q207.408 142.351 210.463 146.958 Q213.542 151.541 213.542 160.291 Q213.542 169.018 210.463 173.624 Q207.408 178.208 201.598 178.208 Q195.787 178.208 192.709 173.624 Q189.653 169.018 189.653 160.291 Q189.653 151.541 192.709 146.958 Q195.787 142.351 201.598 142.351 Z" fill="#000000" fill-rule="nonzero" fill-opacity="1"></path><path clip-path="url(#clip920)" d="M16.4842 1062.01 L16.4842 1021.81 L21.895 1021.81 L21.895 1038.68 L64.0042 1038.68 L64.0042 1045.14 L21.895 1045.14 L21.895 1062.01 L16.4842 1062.01 Z" fill="#000000" fill-rule="nonzero" fill-opacity="1"></path><path clip-path="url(#clip920)" d="M33.8307 1004.78 Q33.2578 1005.77 33.0032 1006.95 Q32.7167 1008.09 32.7167 1009.49 Q32.7167 1014.46 35.9632 1017.13 Q39.1779 1019.77 45.2253 1019.77 L64.0042 1019.77 L64.0042 1025.66 L28.3562 1025.66 L28.3562 1019.77 L33.8944 1019.77 Q30.6479 1017.93 29.0883 1014.97 Q27.4968 1012.01 27.4968 1007.77 Q27.4968 1007.17 27.5923 1006.44 Q27.656 1005.71 27.8151 1004.81 L33.8307 1004.78 Z" fill="#000000" fill-rule="nonzero" fill-opacity="1"></path><path clip-path="url(#clip920)" d="M49.9359 999.245 L28.3562 999.245 L28.3562 993.388 L49.7131 993.388 Q54.7739 993.388 57.3202 991.415 Q59.8346 989.442 59.8346 985.495 Q59.8346 980.753 56.8109 978.015 Q53.7872 975.246 48.5673 975.246 L28.3562 975.246 L28.3562 969.39 L64.0042 969.39 L64.0042 975.246 L58.5296 975.246 Q61.7762 977.379 63.3676 980.211 Q64.9272 983.012 64.9272 986.736 Q64.9272 992.879 61.1078 996.062 Q57.2883 999.245 49.9359 999.245 M27.4968 984.508 L27.4968 984.508 Z" fill="#000000" fill-rule="nonzero" fill-opacity="1"></path><path clip-path="url(#clip920)" d="M44.7161 926.835 L47.5806 926.835 L47.5806 953.762 Q53.6281 953.38 56.8109 950.133 Q59.9619 946.855 59.9619 941.031 Q59.9619 937.657 59.1344 934.506 Q58.3069 931.323 56.6518 928.204 L62.1899 928.204 Q63.5267 931.355 64.227 934.665 Q64.9272 937.975 64.9272 941.381 Q64.9272 949.911 59.9619 954.908 Q54.9967 959.873 46.5303 959.873 Q37.7774 959.873 32.6531 955.162 Q27.4968 950.42 27.4968 942.399 Q27.4968 935.206 32.1438 931.036 Q36.7589 926.835 44.7161 926.835 M42.9973 932.691 Q38.1912 932.755 35.3266 935.397 Q32.4621 938.007 32.4621 942.335 Q32.4621 947.237 35.2312 950.197 Q38.0002 953.125 43.0292 953.571 L42.9973 932.691 Z" fill="#000000" fill-rule="nonzero" fill-opacity="1"></path><path clip-path="url(#clip920)" d="M21.7677 889.818 L39.6235 889.818 L39.6235 881.734 Q39.6235 877.246 37.3 874.795 Q34.9765 872.345 30.6797 872.345 Q26.4147 872.345 24.0912 874.795 Q21.7677 877.246 21.7677 881.734 L21.7677 889.818 M16.4842 896.248 L16.4842 881.734 Q16.4842 873.745 20.1126 869.671 Q23.7092 865.565 30.6797 865.565 Q37.7138 865.565 41.3104 869.671 Q44.907 873.745 44.907 881.734 L44.907 889.818 L64.0042 889.818 L64.0042 896.248 L16.4842 896.248 Z" fill="#000000" fill-rule="nonzero" fill-opacity="1"></path><path clip-path="url(#clip920)" d="M32.4621 845.704 Q32.4621 850.415 36.1542 853.152 Q39.8145 855.889 46.212 855.889 Q52.6095 855.889 56.3017 853.184 Q59.9619 850.447 59.9619 845.704 Q59.9619 841.025 56.2698 838.288 Q52.5777 835.551 46.212 835.551 Q39.8781 835.551 36.186 838.288 Q32.4621 841.025 32.4621 845.704 M27.4968 845.704 Q27.4968 838.065 32.4621 833.705 Q37.4273 829.344 46.212 829.344 Q54.9649 829.344 59.9619 833.705 Q64.9272 838.065 64.9272 845.704 Q64.9272 853.375 59.9619 857.735 Q54.9649 862.064 46.212 862.064 Q37.4273 862.064 32.4621 857.735 Q27.4968 853.375 27.4968 845.704 Z" fill="#000000" fill-rule="nonzero" fill-opacity="1"></path><path clip-path="url(#clip920)" d="M29.4065 796.911 L34.9447 796.911 Q33.6716 799.394 33.035 802.067 Q32.3984 804.741 32.3984 807.605 Q32.3984 811.966 33.7352 814.162 Q35.072 816.326 37.7456 816.326 Q39.7826 816.326 40.9603 814.767 Q42.1061 813.207 43.1565 808.497 L43.6021 806.491 Q44.9389 800.253 47.3897 797.643 Q49.8086 795.001 54.1691 795.001 Q59.1344 795.001 62.0308 798.948 Q64.9272 802.863 64.9272 809.738 Q64.9272 812.602 64.3543 815.722 Q63.8132 818.809 62.6992 822.246 L56.6518 822.246 Q58.3387 819 59.198 815.849 Q60.0256 812.698 60.0256 809.611 Q60.0256 805.473 58.6251 803.245 Q57.1929 801.017 54.6147 801.017 Q52.2276 801.017 50.9545 802.64 Q49.6813 804.231 48.5037 809.674 L48.0262 811.711 Q46.8804 817.154 44.5251 819.573 Q42.138 821.992 38.0002 821.992 Q32.9713 821.992 30.2341 818.427 Q27.4968 814.862 27.4968 808.306 Q27.4968 805.059 27.9743 802.194 Q28.4517 799.33 29.4065 796.911 Z" fill="#000000" fill-rule="nonzero" fill-opacity="1"></path><path clip-path="url(#clip920)" d="M28.3562 785.675 L28.3562 779.819 L64.0042 779.819 L64.0042 785.675 L28.3562 785.675 M14.479 785.675 L14.479 779.819 L21.895 779.819 L21.895 785.675 L14.479 785.675 Z" fill="#000000" fill-rule="nonzero" fill-opacity="1"></path><path clip-path="url(#clip920)" d="M18.2347 761.772 L28.3562 761.772 L28.3562 749.709 L32.9077 749.709 L32.9077 761.772 L52.2594 761.772 Q56.6199 761.772 57.8613 760.595 Q59.1026 759.385 59.1026 755.725 L59.1026 749.709 L64.0042 749.709 L64.0042 755.725 Q64.0042 762.504 61.4897 765.082 Q58.9434 767.661 52.2594 767.661 L32.9077 767.661 L32.9077 771.957 L28.3562 771.957 L28.3562 767.661 L18.2347 767.661 L18.2347 761.772 Z" fill="#000000" fill-rule="nonzero" fill-opacity="1"></path><path clip-path="url(#clip920)" d="M28.3562 742.007 L28.3562 736.15 L64.0042 736.15 L64.0042 742.007 L28.3562 742.007 M14.479 742.007 L14.479 736.15 L21.895 736.15 L21.895 742.007 L14.479 742.007 Z" fill="#000000" fill-rule="nonzero" fill-opacity="1"></path><path clip-path="url(#clip920)" d="M28.3562 728.098 L28.3562 721.891 L58.275 710.751 L28.3562 699.611 L28.3562 693.405 L64.0042 706.773 L64.0042 714.73 L28.3562 728.098 Z" fill="#000000" fill-rule="nonzero" fill-opacity="1"></path><path clip-path="url(#clip920)" d="M44.7161 654.828 L47.5806 654.828 L47.5806 681.755 Q53.6281 681.373 56.8109 678.127 Q59.9619 674.849 59.9619 669.024 Q59.9619 665.65 59.1344 662.499 Q58.3069 659.316 56.6518 656.197 L62.1899 656.197 Q63.5267 659.348 64.227 662.658 Q64.9272 665.968 64.9272 669.374 Q64.9272 677.904 59.9619 682.901 Q54.9967 687.866 46.5303 687.866 Q37.7774 687.866 32.6531 683.156 Q27.4968 678.413 27.4968 670.393 Q27.4968 663.199 32.1438 659.03 Q36.7589 654.828 44.7161 654.828 M42.9973 660.685 Q38.1912 660.748 35.3266 663.39 Q32.4621 666 32.4621 670.329 Q32.4621 675.23 35.2312 678.19 Q38.0002 681.119 43.0292 681.564 L42.9973 660.685 Z" fill="#000000" fill-rule="nonzero" fill-opacity="1"></path><path clip-path="url(#clip920)" d="M41.7242 601.707 Q42.4244 599.638 44.7161 597.696 Q47.0077 595.723 51.0181 593.749 L64.0042 587.225 L64.0042 594.131 L51.8138 600.211 Q47.0395 602.566 45.48 604.794 Q43.9204 606.99 43.9204 610.809 L43.9204 617.812 L64.0042 617.812 L64.0042 624.241 L16.4842 624.241 L16.4842 609.727 Q16.4842 601.579 19.8898 597.569 Q23.2955 593.558 30.1704 593.558 Q34.6582 593.558 37.6183 595.659 Q40.5784 597.728 41.7242 601.707 M21.7677 617.812 L38.6368 617.812 L38.6368 609.727 Q38.6368 605.08 36.5043 602.725 Q34.34 600.338 30.1704 600.338 Q26.0009 600.338 23.9002 602.725 Q21.7677 605.08 21.7677 609.727 L21.7677 617.812 Z" fill="#000000" fill-rule="nonzero" fill-opacity="1"></path><path clip-path="url(#clip920)" d="M46.0847 564.435 Q46.0847 571.533 47.7079 574.27 Q49.3312 577.008 53.2461 577.008 Q56.3653 577.008 58.2114 574.971 Q60.0256 572.902 60.0256 569.369 Q60.0256 564.499 56.5881 561.571 Q53.1188 558.611 47.3897 558.611 L46.0847 558.611 L46.0847 564.435 M43.6657 552.754 L64.0042 552.754 L64.0042 558.611 L58.5933 558.611 Q61.8398 560.616 63.3994 563.608 Q64.9272 566.6 64.9272 570.928 Q64.9272 576.403 61.8716 579.649 Q58.7843 582.864 53.6281 582.864 Q47.6125 582.864 44.5569 578.854 Q41.5014 574.811 41.5014 566.822 L41.5014 558.611 L40.9285 558.611 Q36.8862 558.611 34.6901 561.284 Q32.4621 563.926 32.4621 568.732 Q32.4621 571.788 33.1941 574.684 Q33.9262 577.581 35.3903 580.254 L29.9795 580.254 Q28.7381 577.039 28.1334 574.016 Q27.4968 570.992 27.4968 568.127 Q27.4968 560.393 31.5072 556.574 Q35.5176 552.754 43.6657 552.754 Z" fill="#000000" fill-rule="nonzero" fill-opacity="1"></path><path clip-path="url(#clip920)" d="M18.2347 534.898 L28.3562 534.898 L28.3562 522.835 L32.9077 522.835 L32.9077 534.898 L52.2594 534.898 Q56.6199 534.898 57.8613 533.721 Q59.1026 532.511 59.1026 528.851 L59.1026 522.835 L64.0042 522.835 L64.0042 528.851 Q64.0042 535.63 61.4897 538.209 Q58.9434 540.787 52.2594 540.787 L32.9077 540.787 L32.9077 545.084 L28.3562 545.084 L28.3562 540.787 L18.2347 540.787 L18.2347 534.898 Z" fill="#000000" fill-rule="nonzero" fill-opacity="1"></path><path clip-path="url(#clip920)" d="M44.7161 484.641 L47.5806 484.641 L47.5806 511.568 Q53.6281 511.186 56.8109 507.94 Q59.9619 504.661 59.9619 498.837 Q59.9619 495.463 59.1344 492.312 Q58.3069 489.129 56.6518 486.01 L62.1899 486.01 Q63.5267 489.161 64.227 492.471 Q64.9272 495.781 64.9272 499.187 Q64.9272 507.717 59.9619 512.714 Q54.9967 517.679 46.5303 517.679 Q37.7774 517.679 32.6531 512.969 Q27.4968 508.226 27.4968 500.205 Q27.4968 493.012 32.1438 488.843 Q36.7589 484.641 44.7161 484.641 M42.9973 490.498 Q38.1912 490.561 35.3266 493.203 Q32.4621 495.813 32.4621 500.142 Q32.4621 505.043 35.2312 508.003 Q38.0002 510.932 43.0292 511.377 L42.9973 490.498 Z" fill="#000000" fill-rule="nonzero" fill-opacity="1"></path><path clip-path="url(#clip920)" d="M808.519 16.7545 L808.519 25.383 Q804.387 21.5346 799.688 19.6307 Q795.029 17.7268 789.763 17.7268 Q779.393 17.7268 773.883 24.0867 Q768.374 30.4061 768.374 42.3968 Q768.374 54.3469 773.883 60.7069 Q779.393 67.0263 789.763 67.0263 Q795.029 67.0263 799.688 65.1223 Q804.387 63.2184 808.519 59.3701 L808.519 67.9175 Q804.225 70.8341 799.404 72.2924 Q794.624 73.7508 789.277 73.7508 Q775.544 73.7508 767.645 65.3654 Q759.746 56.9395 759.746 42.3968 Q759.746 27.8135 767.645 19.4281 Q775.544 11.0023 789.277 11.0023 Q794.705 11.0023 799.485 12.4606 Q804.306 13.8784 808.519 16.7545 Z" fill="#000000" fill-rule="nonzero" fill-opacity="1"></path><path clip-path="url(#clip920)" d="M820.064 54.671 L820.064 27.2059 L827.517 27.2059 L827.517 54.3874 Q827.517 60.8284 830.029 64.0691 Q832.54 67.2693 837.563 67.2693 Q843.599 67.2693 847.083 63.421 Q850.607 59.5726 850.607 52.9291 L850.607 27.2059 L858.061 27.2059 L858.061 72.576 L850.607 72.576 L850.607 65.6084 Q847.893 69.7404 844.288 71.7658 Q840.723 73.7508 835.984 73.7508 Q828.165 73.7508 824.114 68.8897 Q820.064 64.0286 820.064 54.671 M838.819 26.1121 L838.819 26.1121 Z" fill="#000000" fill-rule="nonzero" fill-opacity="1"></path><path clip-path="url(#clip920)" d="M899.704 34.1734 Q898.449 33.4443 896.95 33.1202 Q895.491 32.7556 893.709 32.7556 Q887.39 32.7556 883.987 36.8875 Q880.625 40.9789 880.625 48.6757 L880.625 72.576 L873.13 72.576 L873.13 27.2059 L880.625 27.2059 L880.625 34.2544 Q882.974 30.1225 886.741 28.1376 Q890.509 26.1121 895.897 26.1121 Q896.666 26.1121 897.598 26.2337 Q898.53 26.3147 899.664 26.5172 L899.704 34.1734 Z" fill="#000000" fill-rule="nonzero" fill-opacity="1"></path><path clip-path="url(#clip920)" d="M902.175 27.2059 L910.075 27.2059 L924.253 65.2844 L938.431 27.2059 L946.33 27.2059 L929.316 72.576 L919.189 72.576 L902.175 27.2059 Z" fill="#000000" fill-rule="nonzero" fill-opacity="1"></path><path clip-path="url(#clip920)" d="M977.239 49.7694 Q968.205 49.7694 964.721 51.8354 Q961.238 53.9013 961.238 58.8839 Q961.238 62.8538 963.83 65.2034 Q966.463 67.5124 970.96 67.5124 Q977.158 67.5124 980.884 63.1374 Q984.652 58.7219 984.652 51.4303 L984.652 49.7694 L977.239 49.7694 M992.105 46.6907 L992.105 72.576 L984.652 72.576 L984.652 65.6895 Q982.1 69.8214 978.292 71.8063 Q974.484 73.7508 968.975 73.7508 Q962.007 73.7508 957.875 69.8619 Q953.784 65.9325 953.784 59.3701 Q953.784 51.7138 958.888 47.825 Q964.033 43.9361 974.2 43.9361 L984.652 43.9361 L984.652 43.2069 Q984.652 38.0623 981.249 35.2672 Q977.887 32.4315 971.77 32.4315 Q967.881 32.4315 964.195 33.3632 Q960.508 34.295 957.106 36.1584 L957.106 29.2718 Q961.197 27.692 965.045 26.9223 Q968.894 26.1121 972.54 26.1121 Q982.383 26.1121 987.244 31.2163 Q992.105 36.3204 992.105 46.6907 Z" fill="#000000" fill-rule="nonzero" fill-opacity="1"></path><path clip-path="url(#clip920)" d="M1062.83 44.2197 Q1065.47 45.1109 1067.94 48.0275 Q1070.45 50.9442 1072.96 56.0483 L1081.27 72.576 L1072.48 72.576 L1064.74 57.061 Q1061.74 50.9847 1058.9 48.9997 Q1056.11 47.0148 1051.25 47.0148 L1042.34 47.0148 L1042.34 72.576 L1034.15 72.576 L1034.15 12.096 L1052.63 12.096 Q1063 12.096 1068.1 16.4305 Q1073.2 20.7649 1073.2 29.5149 Q1073.2 35.2267 1070.53 38.994 Q1067.9 42.7613 1062.83 44.2197 M1042.34 18.8205 L1042.34 40.2903 L1052.63 40.2903 Q1058.54 40.2903 1061.54 37.5762 Q1064.58 34.8216 1064.58 29.5149 Q1064.58 24.2082 1061.54 21.5346 Q1058.54 18.8205 1052.63 18.8205 L1042.34 18.8205 Z" fill="#000000" fill-rule="nonzero" fill-opacity="1"></path><path clip-path="url(#clip920)" d="M1116.35 17.6457 Q1107.43 17.6457 1102.17 24.2892 Q1096.94 30.9327 1096.94 42.3968 Q1096.94 53.8203 1102.17 60.4638 Q1107.43 67.1073 1116.35 67.1073 Q1125.26 67.1073 1130.44 60.4638 Q1135.67 53.8203 1135.67 42.3968 Q1135.67 30.9327 1130.44 24.2892 Q1125.26 17.6457 1116.35 17.6457 M1116.35 11.0023 Q1129.07 11.0023 1136.68 19.5497 Q1144.3 28.0566 1144.3 42.3968 Q1144.3 56.6965 1136.68 65.2439 Q1129.07 73.7508 1116.35 73.7508 Q1103.59 73.7508 1095.93 65.2439 Q1088.31 56.737 1088.31 42.3968 Q1088.31 28.0566 1095.93 19.5497 Q1103.59 11.0023 1116.35 11.0023 Z" fill="#000000" fill-rule="nonzero" fill-opacity="1"></path><path clip-path="url(#clip920)" d="M1202.39 16.7545 L1202.39 25.383 Q1198.26 21.5346 1193.56 19.6307 Q1188.9 17.7268 1183.63 17.7268 Q1173.26 17.7268 1167.75 24.0867 Q1162.24 30.4061 1162.24 42.3968 Q1162.24 54.3469 1167.75 60.7069 Q1173.26 67.0263 1183.63 67.0263 Q1188.9 67.0263 1193.56 65.1223 Q1198.26 63.2184 1202.39 59.3701 L1202.39 67.9175 Q1198.09 70.8341 1193.27 72.2924 Q1188.49 73.7508 1183.15 73.7508 Q1169.41 73.7508 1161.51 65.3654 Q1153.62 56.9395 1153.62 42.3968 Q1153.62 27.8135 1161.51 19.4281 Q1169.41 11.0023 1183.15 11.0023 Q1188.57 11.0023 1193.35 12.4606 Q1198.17 13.8784 1202.39 16.7545 Z" fill="#000000" fill-rule="nonzero" fill-opacity="1"></path><path clip-path="url(#clip920)" d="M1248.28 65.7705 L1248.28 89.8329 L1240.79 89.8329 L1240.79 27.2059 L1248.28 27.2059 L1248.28 34.0924 Q1250.63 30.0415 1254.2 28.0971 Q1257.8 26.1121 1262.79 26.1121 Q1271.05 26.1121 1276.2 32.6746 Q1281.38 39.2371 1281.38 49.9314 Q1281.38 60.6258 1276.2 67.1883 Q1271.05 73.7508 1262.79 73.7508 Q1257.8 73.7508 1254.2 71.8063 Q1250.63 69.8214 1248.28 65.7705 M1273.64 49.9314 Q1273.64 41.7081 1270.24 37.0496 Q1266.88 32.3505 1260.96 32.3505 Q1255.05 32.3505 1251.65 37.0496 Q1248.28 41.7081 1248.28 49.9314 Q1248.28 58.1548 1251.65 62.8538 Q1255.05 67.5124 1260.96 67.5124 Q1266.88 67.5124 1270.24 62.8538 Q1273.64 58.1548 1273.64 49.9314 Z" fill="#000000" fill-rule="nonzero" fill-opacity="1"></path><path clip-path="url(#clip920)" d="M1314.35 49.7694 Q1305.32 49.7694 1301.84 51.8354 Q1298.35 53.9013 1298.35 58.8839 Q1298.35 62.8538 1300.95 65.2034 Q1303.58 67.5124 1308.08 67.5124 Q1314.27 67.5124 1318 63.1374 Q1321.77 58.7219 1321.77 51.4303 L1321.77 49.7694 L1314.35 49.7694 M1329.22 46.6907 L1329.22 72.576 L1321.77 72.576 L1321.77 65.6895 Q1319.22 69.8214 1315.41 71.8063 Q1311.6 73.7508 1306.09 73.7508 Q1299.12 73.7508 1294.99 69.8619 Q1290.9 65.9325 1290.9 59.3701 Q1290.9 51.7138 1296 47.825 Q1301.15 43.9361 1311.32 43.9361 L1321.77 43.9361 L1321.77 43.2069 Q1321.77 38.0623 1318.37 35.2672 Q1315 32.4315 1308.89 32.4315 Q1305 32.4315 1301.31 33.3632 Q1297.62 34.295 1294.22 36.1584 L1294.22 29.2718 Q1298.31 27.692 1302.16 26.9223 Q1306.01 26.1121 1309.66 26.1121 Q1319.5 26.1121 1324.36 31.2163 Q1329.22 36.3204 1329.22 46.6907 Z" fill="#000000" fill-rule="nonzero" fill-opacity="1"></path><path clip-path="url(#clip920)" d="M1370.87 34.1734 Q1369.61 33.4443 1368.11 33.1202 Q1366.65 32.7556 1364.87 32.7556 Q1358.55 32.7556 1355.15 36.8875 Q1351.79 40.9789 1351.79 48.6757 L1351.79 72.576 L1344.29 72.576 L1344.29 27.2059 L1351.79 27.2059 L1351.79 34.2544 Q1354.13 30.1225 1357.9 28.1376 Q1361.67 26.1121 1367.06 26.1121 Q1367.83 26.1121 1368.76 26.2337 Q1369.69 26.3147 1370.82 26.5172 L1370.87 34.1734 Z" fill="#000000" fill-rule="nonzero" fill-opacity="1"></path><path clip-path="url(#clip920)" d="M1399.3 49.7694 Q1390.27 49.7694 1386.79 51.8354 Q1383.3 53.9013 1383.3 58.8839 Q1383.3 62.8538 1385.89 65.2034 Q1388.53 67.5124 1393.02 67.5124 Q1399.22 67.5124 1402.95 63.1374 Q1406.72 58.7219 1406.72 51.4303 L1406.72 49.7694 L1399.3 49.7694 M1414.17 46.6907 L1414.17 72.576 L1406.72 72.576 L1406.72 65.6895 Q1404.16 69.8214 1400.36 71.8063 Q1396.55 73.7508 1391.04 73.7508 Q1384.07 73.7508 1379.94 69.8619 Q1375.85 65.9325 1375.85 59.3701 Q1375.85 51.7138 1380.95 47.825 Q1386.1 43.9361 1396.26 43.9361 L1406.72 43.9361 L1406.72 43.2069 Q1406.72 38.0623 1403.31 35.2672 Q1399.95 32.4315 1393.83 32.4315 Q1389.94 32.4315 1386.26 33.3632 Q1382.57 34.295 1379.17 36.1584 L1379.17 29.2718 Q1383.26 27.692 1387.11 26.9223 Q1390.96 26.1121 1394.6 26.1121 Q1404.45 26.1121 1409.31 31.2163 Q1414.17 36.3204 1414.17 46.6907 Z" fill="#000000" fill-rule="nonzero" fill-opacity="1"></path><path clip-path="url(#clip920)" d="M1456.22 12.096 L1468.41 12.096 L1483.84 53.2532 L1499.36 12.096 L1511.55 12.096 L1511.55 72.576 L1503.57 72.576 L1503.57 19.4686 L1487.98 60.9499 L1479.75 60.9499 L1464.16 19.4686 L1464.16 72.576 L1456.22 72.576 L1456.22 12.096 Z" fill="#000000" fill-rule="nonzero" fill-opacity="1"></path><path clip-path="url(#clip920)" d="M1561.95 65.6895 L1590.51 65.6895 L1590.51 72.576 L1552.1 72.576 L1552.1 65.6895 Q1556.76 60.8689 1564.78 52.7671 Q1572.84 44.6248 1574.91 42.2752 Q1578.84 37.8598 1580.38 34.8216 Q1581.96 31.7429 1581.96 28.7857 Q1581.96 23.9651 1578.55 20.927 Q1575.19 17.8888 1569.76 17.8888 Q1565.92 17.8888 1561.62 19.2256 Q1557.37 20.5624 1552.51 23.2765 L1552.51 15.0127 Q1557.45 13.0277 1561.74 12.015 Q1566.04 11.0023 1569.6 11.0023 Q1579 11.0023 1584.59 15.7013 Q1590.18 20.4004 1590.18 28.2591 Q1590.18 31.9859 1588.76 35.3482 Q1587.39 38.6699 1583.7 43.2069 Q1582.69 44.3817 1577.26 50.0125 Q1571.83 55.6027 1561.95 65.6895 Z" fill="#000000" fill-rule="nonzero" fill-opacity="1"></path><path clip-path="url(#clip920)" d="M1641.51 18.8205 L1641.51 65.8515 L1651.39 65.8515 Q1663.91 65.8515 1669.7 60.1802 Q1675.53 54.509 1675.53 42.2752 Q1675.53 30.1225 1669.7 24.4918 Q1663.91 18.8205 1651.39 18.8205 L1641.51 18.8205 M1633.32 12.096 L1650.13 12.096 Q1667.72 12.096 1675.94 19.4281 Q1684.16 26.7198 1684.16 42.2752 Q1684.16 57.9117 1675.9 65.2439 Q1667.63 72.576 1650.13 72.576 L1633.32 72.576 L1633.32 12.096 Z" fill="#000000" fill-rule="nonzero" fill-opacity="1"></path><path clip-path="url(#clip920)" d="M1714.79 9.62495 Q1709.36 18.942 1706.73 28.0566 Q1704.09 37.1711 1704.09 46.5287 Q1704.09 55.8863 1706.73 65.0818 Q1709.4 74.2369 1714.79 83.5134 L1708.31 83.5134 Q1702.23 73.9938 1699.19 64.7983 Q1696.19 55.6027 1696.19 46.5287 Q1696.19 37.4952 1699.19 28.3401 Q1702.19 19.1851 1708.31 9.62495 L1714.79 9.62495 Z" fill="#000000" fill-rule="nonzero" fill-opacity="1"></path><path clip-path="url(#clip920)" d="M1758.17 28.5427 L1758.17 35.5912 Q1755.01 33.9709 1751.61 33.1607 Q1748.21 32.3505 1744.56 32.3505 Q1739.01 32.3505 1736.22 34.0519 Q1733.46 35.7533 1733.46 39.156 Q1733.46 41.7486 1735.45 43.2475 Q1737.43 44.7058 1743.43 46.0426 L1745.98 46.6097 Q1753.92 48.3111 1757.24 51.4303 Q1760.6 54.509 1760.6 60.0587 Q1760.6 66.3781 1755.58 70.0644 Q1750.6 73.7508 1741.85 73.7508 Q1738.2 73.7508 1734.23 73.0216 Q1730.3 72.3329 1725.93 70.9151 L1725.93 63.2184 Q1730.06 65.3654 1734.07 66.4591 Q1738.08 67.5124 1742.01 67.5124 Q1747.28 67.5124 1750.11 65.73 Q1752.95 63.9071 1752.95 60.6258 Q1752.95 57.5877 1750.88 55.9673 Q1748.85 54.3469 1741.93 52.8481 L1739.34 52.2405 Q1732.41 50.7821 1729.33 47.7845 Q1726.25 44.7463 1726.25 39.4801 Q1726.25 33.0797 1730.79 29.5959 Q1735.32 26.1121 1743.67 26.1121 Q1747.8 26.1121 1751.45 26.7198 Q1755.09 27.3274 1758.17 28.5427 Z" fill="#000000" fill-rule="nonzero" fill-opacity="1"></path><path clip-path="url(#clip920)" d="M1805.04 49.9314 Q1805.04 41.7081 1801.64 37.0496 Q1798.28 32.3505 1792.36 32.3505 Q1786.45 32.3505 1783.04 37.0496 Q1779.68 41.7081 1779.68 49.9314 Q1779.68 58.1548 1783.04 62.8538 Q1786.45 67.5124 1792.36 67.5124 Q1798.28 67.5124 1801.64 62.8538 Q1805.04 58.1548 1805.04 49.9314 M1779.68 34.0924 Q1782.03 30.0415 1785.6 28.0971 Q1789.2 26.1121 1794.18 26.1121 Q1802.45 26.1121 1807.59 32.6746 Q1812.78 39.2371 1812.78 49.9314 Q1812.78 60.6258 1807.59 67.1883 Q1802.45 73.7508 1794.18 73.7508 Q1789.2 73.7508 1785.6 71.8063 Q1782.03 69.8214 1779.68 65.7705 L1779.68 72.576 L1772.19 72.576 L1772.19 9.54393 L1779.68 9.54393 L1779.68 34.0924 Z" fill="#000000" fill-rule="nonzero" fill-opacity="1"></path><path clip-path="url(#clip920)" d="M1823.96 9.62495 L1830.44 9.62495 Q1836.52 19.1851 1839.51 28.3401 Q1842.55 37.4952 1842.55 46.5287 Q1842.55 55.6027 1839.51 64.7983 Q1836.52 73.9938 1830.44 83.5134 L1823.96 83.5134 Q1829.35 74.2369 1831.98 65.0818 Q1834.65 55.8863 1834.65 46.5287 Q1834.65 37.1711 1831.98 28.0566 Q1829.35 18.942 1823.96 9.62495 Z" fill="#000000" fill-rule="nonzero" fill-opacity="1"></path><polyline clip-path="url(#clip922)" style="stroke:#0000ff; stroke-linecap:round; stroke-linejoin:round; stroke-width:8; stroke-opacity:1; fill:none" points="309.067,1386.4 309.067,1352.96 309.067,1319.52 318.086,1274.93 345.143,1230.34 372.199,1107.73 399.256,1051.99 453.37,951.674 579.635,884.793 805.108,728.739 1229,505.805 1860.32,316.31 2166.97,160.256 2293.23,160.256 "></polyline>
<polyline clip-path="url(#clip922)" style="stroke:#008000; stroke-linecap:round; stroke-linejoin:round; stroke-width:8; stroke-opacity:1; fill:none" points="444.351,1007.41 2293.23,160.256 "></polyline>
<polyline clip-path="url(#clip922)" style="stroke:#ff0000; stroke-linecap:round; stroke-linejoin:round; stroke-width:8; stroke-opacity:1; fill:none" points="327.105,1364.1 327.105,1352.96 354.162,1163.46 381.218,1118.87 390.237,1107.73 390.237,1096.58 399.256,1096.58 426.313,996.26 426.313,985.114 444.351,985.114 471.408,985.114 669.824,795.619 678.843,784.473 714.919,773.326 823.146,695.299 2013.64,294.017 2040.7,282.87 2103.83,249.43 2239.12,204.843 2275.19,171.403 2284.21,160.256 2293.23,160.256 "></polyline>
<polyline clip-path="url(#clip922)" style="stroke:#800080; stroke-linecap:round; stroke-linejoin:round; stroke-width:8; stroke-opacity:1; fill:none" points="327.105,1330.66 381.218,1096.58 696.881,728.739 2085.8,260.577 2248.14,193.696 2293.23,160.256 "></polyline>
<path clip-path="url(#clip920)" d="M319.649 425.996 L774.668 425.996 L774.668 166.796 L319.649 166.796  Z" fill="#ffffff" fill-rule="evenodd" fill-opacity="1"></path>
<polyline clip-path="url(#clip920)" style="stroke:#000000; stroke-linecap:round; stroke-linejoin:round; stroke-width:4; stroke-opacity:1; fill:none" points="319.649,425.996 774.668,425.996 774.668,166.796 319.649,166.796 319.649,425.996 "></polyline>
<polyline clip-path="url(#clip920)" style="stroke:#0000ff; stroke-linecap:round; stroke-linejoin:round; stroke-width:8; stroke-opacity:1; fill:none" points="343.018,218.636 483.232,218.636 "></polyline>
<path clip-path="url(#clip920)" d="M525.375 222.976 Q525.375 218.277 523.43 215.615 Q521.509 212.93 518.129 212.93 Q514.75 212.93 512.805 215.615 Q510.884 218.277 510.884 222.976 Q510.884 227.675 512.805 230.36 Q514.75 233.022 518.129 233.022 Q521.509 233.022 523.43 230.36 Q525.375 227.675 525.375 222.976 M510.884 213.925 Q512.226 211.61 514.264 210.499 Q516.324 209.365 519.171 209.365 Q523.893 209.365 526.833 213.115 Q529.796 216.865 529.796 222.976 Q529.796 229.087 526.833 232.837 Q523.893 236.587 519.171 236.587 Q516.324 236.587 514.264 235.476 Q512.226 234.342 510.884 232.027 L510.884 235.916 L506.602 235.916 L506.602 199.897 L510.884 199.897 L510.884 213.925 Z" fill="#000000" fill-rule="nonzero" fill-opacity="1"></path><path clip-path="url(#clip920)" d="M559.032 221.888 L559.032 223.971 L539.449 223.971 Q539.726 228.369 542.087 230.684 Q544.472 232.976 548.708 232.976 Q551.161 232.976 553.453 232.374 Q555.768 231.772 558.036 230.569 L558.036 234.596 Q555.745 235.568 553.337 236.078 Q550.93 236.587 548.453 236.587 Q542.249 236.587 538.615 232.976 Q535.004 229.365 535.004 223.207 Q535.004 216.842 538.43 213.115 Q541.879 209.365 547.712 209.365 Q552.944 209.365 555.976 212.745 Q559.032 216.101 559.032 221.888 M554.773 220.638 Q554.726 217.143 552.805 215.059 Q550.907 212.976 547.759 212.976 Q544.194 212.976 542.041 214.99 Q539.912 217.004 539.587 220.661 L554.773 220.638 Z" fill="#000000" fill-rule="nonzero" fill-opacity="1"></path><path clip-path="url(#clip920)" d="M570.235 202.629 L570.235 209.99 L579.009 209.99 L579.009 213.3 L570.235 213.3 L570.235 227.374 Q570.235 230.545 571.092 231.448 Q571.972 232.351 574.634 232.351 L579.009 232.351 L579.009 235.916 L574.634 235.916 Q569.703 235.916 567.828 234.087 Q565.953 232.235 565.953 227.374 L565.953 213.3 L562.828 213.3 L562.828 209.99 L565.953 209.99 L565.953 202.629 L570.235 202.629 Z" fill="#000000" fill-rule="nonzero" fill-opacity="1"></path><path clip-path="url(#clip920)" d="M596.393 222.883 Q591.231 222.883 589.24 224.064 Q587.249 225.244 587.249 228.092 Q587.249 230.36 588.731 231.703 Q590.235 233.022 592.805 233.022 Q596.346 233.022 598.476 230.522 Q600.629 227.999 600.629 223.832 L600.629 222.883 L596.393 222.883 M604.888 221.124 L604.888 235.916 L600.629 235.916 L600.629 231.981 Q599.17 234.342 596.995 235.476 Q594.819 236.587 591.67 236.587 Q587.689 236.587 585.328 234.365 Q582.99 232.119 582.99 228.369 Q582.99 223.994 585.907 221.772 Q588.846 219.55 594.657 219.55 L600.629 219.55 L600.629 219.133 Q600.629 216.194 598.684 214.596 Q596.763 212.976 593.268 212.976 Q591.045 212.976 588.939 213.508 Q586.833 214.041 584.888 215.106 L584.888 211.17 Q587.226 210.268 589.425 209.828 Q591.624 209.365 593.708 209.365 Q599.332 209.365 602.11 212.282 Q604.888 215.198 604.888 221.124 Z" fill="#000000" fill-rule="nonzero" fill-opacity="1"></path><path clip-path="url(#clip920)" d="M629.286 214.388 L658.962 214.388 L658.962 218.277 L629.286 218.277 L629.286 214.388 M629.286 223.832 L658.962 223.832 L658.962 227.768 L629.286 227.768 L629.286 223.832 Z" fill="#000000" fill-rule="nonzero" fill-opacity="1"></path><path clip-path="url(#clip920)" d="M694.124 204.434 Q690.513 204.434 688.684 207.999 Q686.878 211.541 686.878 218.67 Q686.878 225.777 688.684 229.342 Q690.513 232.883 694.124 232.883 Q697.758 232.883 699.563 229.342 Q701.392 225.777 701.392 218.67 Q701.392 211.541 699.563 207.999 Q697.758 204.434 694.124 204.434 M694.124 200.731 Q699.934 200.731 702.989 205.337 Q706.068 209.92 706.068 218.67 Q706.068 227.397 702.989 232.004 Q699.934 236.587 694.124 236.587 Q688.313 236.587 685.235 232.004 Q682.179 227.397 682.179 218.67 Q682.179 209.92 685.235 205.337 Q688.313 200.731 694.124 200.731 Z" fill="#000000" fill-rule="nonzero" fill-opacity="1"></path><path clip-path="url(#clip920)" d="M714.286 230.036 L719.17 230.036 L719.17 235.916 L714.286 235.916 L714.286 230.036 Z" fill="#000000" fill-rule="nonzero" fill-opacity="1"></path><path clip-path="url(#clip920)" d="M730.165 231.981 L737.804 231.981 L737.804 205.615 L729.494 207.282 L729.494 203.022 L737.758 201.356 L742.434 201.356 L742.434 231.981 L750.072 231.981 L750.072 235.916 L730.165 235.916 L730.165 231.981 Z" fill="#000000" fill-rule="nonzero" fill-opacity="1"></path><polyline clip-path="url(#clip920)" style="stroke:#008000; stroke-linecap:round; stroke-linejoin:round; stroke-width:8; stroke-opacity:1; fill:none" points="343.018,270.476 483.232,270.476 "></polyline>
<path clip-path="url(#clip920)" d="M525.375 274.816 Q525.375 270.117 523.43 267.455 Q521.509 264.77 518.129 264.77 Q514.75 264.77 512.805 267.455 Q510.884 270.117 510.884 274.816 Q510.884 279.515 512.805 282.2 Q514.75 284.862 518.129 284.862 Q521.509 284.862 523.43 282.2 Q525.375 279.515 525.375 274.816 M510.884 265.765 Q512.226 263.45 514.264 262.339 Q516.324 261.205 519.171 261.205 Q523.893 261.205 526.833 264.955 Q529.796 268.705 529.796 274.816 Q529.796 280.927 526.833 284.677 Q523.893 288.427 519.171 288.427 Q516.324 288.427 514.264 287.316 Q512.226 286.182 510.884 283.867 L510.884 287.756 L506.602 287.756 L506.602 251.737 L510.884 251.737 L510.884 265.765 Z" fill="#000000" fill-rule="nonzero" fill-opacity="1"></path><path clip-path="url(#clip920)" d="M559.032 273.728 L559.032 275.811 L539.449 275.811 Q539.726 280.209 542.087 282.524 Q544.472 284.816 548.708 284.816 Q551.161 284.816 553.453 284.214 Q555.768 283.612 558.036 282.409 L558.036 286.436 Q555.745 287.408 553.337 287.918 Q550.93 288.427 548.453 288.427 Q542.249 288.427 538.615 284.816 Q535.004 281.205 535.004 275.047 Q535.004 268.682 538.43 264.955 Q541.879 261.205 547.712 261.205 Q552.944 261.205 555.976 264.585 Q559.032 267.941 559.032 273.728 M554.773 272.478 Q554.726 268.983 552.805 266.899 Q550.907 264.816 547.759 264.816 Q544.194 264.816 542.041 266.83 Q539.912 268.844 539.587 272.501 L554.773 272.478 Z" fill="#000000" fill-rule="nonzero" fill-opacity="1"></path><path clip-path="url(#clip920)" d="M570.235 254.469 L570.235 261.83 L579.009 261.83 L579.009 265.14 L570.235 265.14 L570.235 279.214 Q570.235 282.385 571.092 283.288 Q571.972 284.191 574.634 284.191 L579.009 284.191 L579.009 287.756 L574.634 287.756 Q569.703 287.756 567.828 285.927 Q565.953 284.075 565.953 279.214 L565.953 265.14 L562.828 265.14 L562.828 261.83 L565.953 261.83 L565.953 254.469 L570.235 254.469 Z" fill="#000000" fill-rule="nonzero" fill-opacity="1"></path><path clip-path="url(#clip920)" d="M596.393 274.723 Q591.231 274.723 589.24 275.904 Q587.249 277.084 587.249 279.932 Q587.249 282.2 588.731 283.543 Q590.235 284.862 592.805 284.862 Q596.346 284.862 598.476 282.362 Q600.629 279.839 600.629 275.672 L600.629 274.723 L596.393 274.723 M604.888 272.964 L604.888 287.756 L600.629 287.756 L600.629 283.821 Q599.17 286.182 596.995 287.316 Q594.819 288.427 591.67 288.427 Q587.689 288.427 585.328 286.205 Q582.99 283.959 582.99 280.209 Q582.99 275.834 585.907 273.612 Q588.846 271.39 594.657 271.39 L600.629 271.39 L600.629 270.973 Q600.629 268.034 598.684 266.436 Q596.763 264.816 593.268 264.816 Q591.045 264.816 588.939 265.348 Q586.833 265.881 584.888 266.946 L584.888 263.01 Q587.226 262.108 589.425 261.668 Q591.624 261.205 593.708 261.205 Q599.332 261.205 602.11 264.122 Q604.888 267.038 604.888 272.964 Z" fill="#000000" fill-rule="nonzero" fill-opacity="1"></path><path clip-path="url(#clip920)" d="M629.286 266.228 L658.962 266.228 L658.962 270.117 L629.286 270.117 L629.286 266.228 M629.286 275.672 L658.962 275.672 L658.962 279.608 L629.286 279.608 L629.286 275.672 Z" fill="#000000" fill-rule="nonzero" fill-opacity="1"></path><path clip-path="url(#clip920)" d="M694.124 256.274 Q690.513 256.274 688.684 259.839 Q686.878 263.381 686.878 270.51 Q686.878 277.617 688.684 281.182 Q690.513 284.723 694.124 284.723 Q697.758 284.723 699.563 281.182 Q701.392 277.617 701.392 270.51 Q701.392 263.381 699.563 259.839 Q697.758 256.274 694.124 256.274 M694.124 252.571 Q699.934 252.571 702.989 257.177 Q706.068 261.76 706.068 270.51 Q706.068 279.237 702.989 283.844 Q699.934 288.427 694.124 288.427 Q688.313 288.427 685.235 283.844 Q682.179 279.237 682.179 270.51 Q682.179 261.76 685.235 257.177 Q688.313 252.571 694.124 252.571 Z" fill="#000000" fill-rule="nonzero" fill-opacity="1"></path><path clip-path="url(#clip920)" d="M714.286 281.876 L719.17 281.876 L719.17 287.756 L714.286 287.756 L714.286 281.876 Z" fill="#000000" fill-rule="nonzero" fill-opacity="1"></path><path clip-path="url(#clip920)" d="M729.401 253.196 L747.758 253.196 L747.758 257.131 L733.684 257.131 L733.684 265.603 Q734.702 265.256 735.721 265.094 Q736.739 264.909 737.758 264.909 Q743.545 264.909 746.924 268.08 Q750.304 271.251 750.304 276.668 Q750.304 282.246 746.832 285.348 Q743.359 288.427 737.04 288.427 Q734.864 288.427 732.596 288.057 Q730.35 287.686 727.943 286.946 L727.943 282.246 Q730.026 283.381 732.248 283.936 Q734.471 284.492 736.947 284.492 Q740.952 284.492 743.29 282.385 Q745.628 280.279 745.628 276.668 Q745.628 273.057 743.29 270.95 Q740.952 268.844 736.947 268.844 Q735.073 268.844 733.198 269.26 Q731.346 269.677 729.401 270.557 L729.401 253.196 Z" fill="#000000" fill-rule="nonzero" fill-opacity="1"></path><polyline clip-path="url(#clip920)" style="stroke:#ff0000; stroke-linecap:round; stroke-linejoin:round; stroke-width:8; stroke-opacity:1; fill:none" points="343.018,322.316 483.232,322.316 "></polyline>
<path clip-path="url(#clip920)" d="M525.375 326.656 Q525.375 321.957 523.43 319.295 Q521.509 316.61 518.129 316.61 Q514.75 316.61 512.805 319.295 Q510.884 321.957 510.884 326.656 Q510.884 331.355 512.805 334.04 Q514.75 336.702 518.129 336.702 Q521.509 336.702 523.43 334.04 Q525.375 331.355 525.375 326.656 M510.884 317.605 Q512.226 315.29 514.264 314.179 Q516.324 313.045 519.171 313.045 Q523.893 313.045 526.833 316.795 Q529.796 320.545 529.796 326.656 Q529.796 332.767 526.833 336.517 Q523.893 340.267 519.171 340.267 Q516.324 340.267 514.264 339.156 Q512.226 338.022 510.884 335.707 L510.884 339.596 L506.602 339.596 L506.602 303.577 L510.884 303.577 L510.884 317.605 Z" fill="#000000" fill-rule="nonzero" fill-opacity="1"></path><path clip-path="url(#clip920)" d="M559.032 325.568 L559.032 327.651 L539.449 327.651 Q539.726 332.049 542.087 334.364 Q544.472 336.656 548.708 336.656 Q551.161 336.656 553.453 336.054 Q555.768 335.452 558.036 334.249 L558.036 338.276 Q555.745 339.248 553.337 339.758 Q550.93 340.267 548.453 340.267 Q542.249 340.267 538.615 336.656 Q535.004 333.045 535.004 326.887 Q535.004 320.522 538.43 316.795 Q541.879 313.045 547.712 313.045 Q552.944 313.045 555.976 316.425 Q559.032 319.781 559.032 325.568 M554.773 324.318 Q554.726 320.823 552.805 318.739 Q550.907 316.656 547.759 316.656 Q544.194 316.656 542.041 318.67 Q539.912 320.684 539.587 324.341 L554.773 324.318 Z" fill="#000000" fill-rule="nonzero" fill-opacity="1"></path><path clip-path="url(#clip920)" d="M570.235 306.309 L570.235 313.67 L579.009 313.67 L579.009 316.98 L570.235 316.98 L570.235 331.054 Q570.235 334.225 571.092 335.128 Q571.972 336.031 574.634 336.031 L579.009 336.031 L579.009 339.596 L574.634 339.596 Q569.703 339.596 567.828 337.767 Q565.953 335.915 565.953 331.054 L565.953 316.98 L562.828 316.98 L562.828 313.67 L565.953 313.67 L565.953 306.309 L570.235 306.309 Z" fill="#000000" fill-rule="nonzero" fill-opacity="1"></path><path clip-path="url(#clip920)" d="M596.393 326.563 Q591.231 326.563 589.24 327.744 Q587.249 328.924 587.249 331.772 Q587.249 334.04 588.731 335.383 Q590.235 336.702 592.805 336.702 Q596.346 336.702 598.476 334.202 Q600.629 331.679 600.629 327.512 L600.629 326.563 L596.393 326.563 M604.888 324.804 L604.888 339.596 L600.629 339.596 L600.629 335.661 Q599.17 338.022 596.995 339.156 Q594.819 340.267 591.67 340.267 Q587.689 340.267 585.328 338.045 Q582.99 335.799 582.99 332.049 Q582.99 327.674 585.907 325.452 Q588.846 323.23 594.657 323.23 L600.629 323.23 L600.629 322.813 Q600.629 319.874 598.684 318.276 Q596.763 316.656 593.268 316.656 Q591.045 316.656 588.939 317.188 Q586.833 317.721 584.888 318.786 L584.888 314.85 Q587.226 313.948 589.425 313.508 Q591.624 313.045 593.708 313.045 Q599.332 313.045 602.11 315.962 Q604.888 318.878 604.888 324.804 Z" fill="#000000" fill-rule="nonzero" fill-opacity="1"></path><path clip-path="url(#clip920)" d="M629.286 318.068 L658.962 318.068 L658.962 321.957 L629.286 321.957 L629.286 318.068 M629.286 327.512 L658.962 327.512 L658.962 331.448 L629.286 331.448 L629.286 327.512 Z" fill="#000000" fill-rule="nonzero" fill-opacity="1"></path><path clip-path="url(#clip920)" d="M684.934 335.661 L692.573 335.661 L692.573 309.295 L684.263 310.962 L684.263 306.702 L692.526 305.036 L697.202 305.036 L697.202 335.661 L704.841 335.661 L704.841 339.596 L684.934 339.596 L684.934 335.661 Z" fill="#000000" fill-rule="nonzero" fill-opacity="1"></path><path clip-path="url(#clip920)" d="M714.286 333.716 L719.17 333.716 L719.17 339.596 L714.286 339.596 L714.286 333.716 Z" fill="#000000" fill-rule="nonzero" fill-opacity="1"></path><path clip-path="url(#clip920)" d="M739.355 308.114 Q735.744 308.114 733.915 311.679 Q732.11 315.221 732.11 322.35 Q732.11 329.457 733.915 333.022 Q735.744 336.563 739.355 336.563 Q742.989 336.563 744.795 333.022 Q746.623 329.457 746.623 322.35 Q746.623 315.221 744.795 311.679 Q742.989 308.114 739.355 308.114 M739.355 304.411 Q745.165 304.411 748.221 309.017 Q751.299 313.6 751.299 322.35 Q751.299 331.077 748.221 335.684 Q745.165 340.267 739.355 340.267 Q733.545 340.267 730.466 335.684 Q727.411 331.077 727.411 322.35 Q727.411 313.6 730.466 309.017 Q733.545 304.411 739.355 304.411 Z" fill="#000000" fill-rule="nonzero" fill-opacity="1"></path><polyline clip-path="url(#clip920)" style="stroke:#800080; stroke-linecap:round; stroke-linejoin:round; stroke-width:8; stroke-opacity:1; fill:none" points="343.018,374.156 483.232,374.156 "></polyline>
<path clip-path="url(#clip920)" d="M525.375 378.496 Q525.375 373.797 523.43 371.135 Q521.509 368.45 518.129 368.45 Q514.75 368.45 512.805 371.135 Q510.884 373.797 510.884 378.496 Q510.884 383.195 512.805 385.88 Q514.75 388.542 518.129 388.542 Q521.509 388.542 523.43 385.88 Q525.375 383.195 525.375 378.496 M510.884 369.445 Q512.226 367.13 514.264 366.019 Q516.324 364.885 519.171 364.885 Q523.893 364.885 526.833 368.635 Q529.796 372.385 529.796 378.496 Q529.796 384.607 526.833 388.357 Q523.893 392.107 519.171 392.107 Q516.324 392.107 514.264 390.996 Q512.226 389.862 510.884 387.547 L510.884 391.436 L506.602 391.436 L506.602 355.417 L510.884 355.417 L510.884 369.445 Z" fill="#000000" fill-rule="nonzero" fill-opacity="1"></path><path clip-path="url(#clip920)" d="M559.032 377.408 L559.032 379.491 L539.449 379.491 Q539.726 383.889 542.087 386.204 Q544.472 388.496 548.708 388.496 Q551.161 388.496 553.453 387.894 Q555.768 387.292 558.036 386.089 L558.036 390.116 Q555.745 391.088 553.337 391.598 Q550.93 392.107 548.453 392.107 Q542.249 392.107 538.615 388.496 Q535.004 384.885 535.004 378.727 Q535.004 372.362 538.43 368.635 Q541.879 364.885 547.712 364.885 Q552.944 364.885 555.976 368.265 Q559.032 371.621 559.032 377.408 M554.773 376.158 Q554.726 372.663 552.805 370.579 Q550.907 368.496 547.759 368.496 Q544.194 368.496 542.041 370.51 Q539.912 372.524 539.587 376.181 L554.773 376.158 Z" fill="#000000" fill-rule="nonzero" fill-opacity="1"></path><path clip-path="url(#clip920)" d="M570.235 358.149 L570.235 365.51 L579.009 365.51 L579.009 368.82 L570.235 368.82 L570.235 382.894 Q570.235 386.065 571.092 386.968 Q571.972 387.871 574.634 387.871 L579.009 387.871 L579.009 391.436 L574.634 391.436 Q569.703 391.436 567.828 389.607 Q565.953 387.755 565.953 382.894 L565.953 368.82 L562.828 368.82 L562.828 365.51 L565.953 365.51 L565.953 358.149 L570.235 358.149 Z" fill="#000000" fill-rule="nonzero" fill-opacity="1"></path><path clip-path="url(#clip920)" d="M596.393 378.403 Q591.231 378.403 589.24 379.584 Q587.249 380.764 587.249 383.612 Q587.249 385.88 588.731 387.223 Q590.235 388.542 592.805 388.542 Q596.346 388.542 598.476 386.042 Q600.629 383.519 600.629 379.352 L600.629 378.403 L596.393 378.403 M604.888 376.644 L604.888 391.436 L600.629 391.436 L600.629 387.501 Q599.17 389.862 596.995 390.996 Q594.819 392.107 591.67 392.107 Q587.689 392.107 585.328 389.885 Q582.99 387.639 582.99 383.889 Q582.99 379.514 585.907 377.292 Q588.846 375.07 594.657 375.07 L600.629 375.07 L600.629 374.653 Q600.629 371.714 598.684 370.116 Q596.763 368.496 593.268 368.496 Q591.045 368.496 588.939 369.028 Q586.833 369.561 584.888 370.626 L584.888 366.69 Q587.226 365.788 589.425 365.348 Q591.624 364.885 593.708 364.885 Q599.332 364.885 602.11 367.802 Q604.888 370.718 604.888 376.644 Z" fill="#000000" fill-rule="nonzero" fill-opacity="1"></path><path clip-path="url(#clip920)" d="M629.286 369.908 L658.962 369.908 L658.962 373.797 L629.286 373.797 L629.286 369.908 M629.286 379.352 L658.962 379.352 L658.962 383.288 L629.286 383.288 L629.286 379.352 Z" fill="#000000" fill-rule="nonzero" fill-opacity="1"></path><path clip-path="url(#clip920)" d="M688.151 387.501 L704.471 387.501 L704.471 391.436 L682.526 391.436 L682.526 387.501 Q685.189 384.746 689.772 380.116 Q694.378 375.464 695.559 374.121 Q697.804 371.598 698.684 369.862 Q699.587 368.103 699.587 366.413 Q699.587 363.658 697.642 361.922 Q695.721 360.186 692.619 360.186 Q690.42 360.186 687.966 360.95 Q685.536 361.714 682.758 363.265 L682.758 358.542 Q685.582 357.408 688.036 356.829 Q690.489 356.251 692.526 356.251 Q697.897 356.251 701.091 358.936 Q704.286 361.621 704.286 366.112 Q704.286 368.241 703.475 370.163 Q702.688 372.061 700.582 374.653 Q700.003 375.325 696.901 378.542 Q693.8 381.737 688.151 387.501 Z" fill="#000000" fill-rule="nonzero" fill-opacity="1"></path><path clip-path="url(#clip920)" d="M714.286 385.556 L719.17 385.556 L719.17 391.436 L714.286 391.436 L714.286 385.556 Z" fill="#000000" fill-rule="nonzero" fill-opacity="1"></path><path clip-path="url(#clip920)" d="M739.355 359.954 Q735.744 359.954 733.915 363.519 Q732.11 367.061 732.11 374.19 Q732.11 381.297 733.915 384.862 Q735.744 388.403 739.355 388.403 Q742.989 388.403 744.795 384.862 Q746.623 381.297 746.623 374.19 Q746.623 367.061 744.795 363.519 Q742.989 359.954 739.355 359.954 M739.355 356.251 Q745.165 356.251 748.221 360.857 Q751.299 365.44 751.299 374.19 Q751.299 382.917 748.221 387.524 Q745.165 392.107 739.355 392.107 Q733.545 392.107 730.466 387.524 Q727.411 382.917 727.411 374.19 Q727.411 365.44 730.466 360.857 Q733.545 356.251 739.355 356.251 Z" fill="#000000" fill-rule="nonzero" fill-opacity="1"></path></svg>