<svg xmlns="http://www.w3.org/2000/svg" xmlns:xlink="http://www.w3.org/1999/xlink" width="600" height="400" viewBox="0 0 2400 1600">
<defs>
  <clipPath id="clip960">
    <rect x="0" y="0" width="2400" height="1600"></rect>
  </clipPath>
</defs>
<path clip-path="url(#clip960)" d="M0 1600 L2400 1600 L2400 0 L0 0  Z" fill="#ffffff" fill-rule="evenodd" fill-opacity="1"></path>
<defs>
  <clipPath id="clip961">
    <rect x="480" y="0" width="1681" height="1600"></rect>
  </clipPath>
</defs>
<path clip-path="url(#clip960)" d="M249.542 1423.18 L2352.76 1423.18 L2352.76 123.472 L249.542 123.472  Z" fill="#ffffff" fill-rule="evenodd" fill-opacity="1"></path>
<defs>
  <clipPath id="clip962">
    <rect x="249" y="123" width="2104" height="1301"></rect>
  </clipPath>
</defs>
<polyline clip-path="url(#clip962)" style="stroke:#000000; stroke-linecap:round; stroke-linejoin:round; stroke-width:2; stroke-opacity:0.1; fill:none" points="309.067,1423.18 309.067,123.472 "></polyline>
<polyline clip-path="url(#clip962)" style="stroke:#000000; stroke-linecap:round; stroke-linejoin:round; stroke-width:2; stroke-opacity:0.1; fill:none" points="805.108,1423.18 805.108,123.472 "></polyline>
<polyline clip-path="url(#clip962)" style="stroke:#000000; stroke-linecap:round; stroke-linejoin:round; stroke-width:2; stroke-opacity:0.1; fill:none" points="1301.15,1423.18 1301.15,123.472 "></polyline>
<polyline clip-path="url(#clip962)" style="stroke:#000000; stroke-linecap:round; stroke-linejoin:round; stroke-width:2; stroke-opacity:0.1; fill:none" points="1797.19,1423.18 1797.19,123.472 "></polyline>
<polyline clip-path="url(#clip962)" style="stroke:#000000; stroke-linecap:round; stroke-linejoin:round; stroke-width:2; stroke-opacity:0.1; fill:none" points="2293.23,1423.18 2293.23,123.472 "></polyline>
<polyline clip-path="url(#clip960)" style="stroke:#000000; stroke-linecap:round; stroke-linejoin:round; stroke-width:4; stroke-opacity:1; fill:none" points="249.542,1423.18 2352.76,1423.18 "></polyline>
<polyline clip-path="url(#clip960)" style="stroke:#000000; stroke-linecap:round; stroke-linejoin:round; stroke-width:4; stroke-opacity:1; fill:none" points="309.067,1423.18 309.067,1404.28 "></polyline>
<polyline clip-path="url(#clip960)" style="stroke:#000000; stroke-linecap:round; stroke-linejoin:round; stroke-width:4; stroke-opacity:1; fill:none" points="805.108,1423.18 805.108,1404.28 "></polyline>
<polyline clip-path="url(#clip960)" style="stroke:#000000; stroke-linecap:round; stroke-linejoin:round; stroke-width:4; stroke-opacity:1; fill:none" points="1301.15,1423.18 1301.15,1404.28 "></polyline>
<polyline clip-path="url(#clip960)" style="stroke:#000000; stroke-linecap:round; stroke-linejoin:round; stroke-width:4; stroke-opacity:1; fill:none" points="1797.19,1423.18 1797.19,1404.28 "></polyline>
<polyline clip-path="url(#clip960)" style="stroke:#000000; stroke-linecap:round; stroke-linejoin:round; stroke-width:4; stroke-opacity:1; fill:none" points="2293.23,1423.18 2293.23,1404.28 "></polyline>
<path clip-path="url(#clip960)" d="M271.37 1454.1 Q267.759 1454.1 265.931 1457.66 Q264.125 1461.2 264.125 1468.33 Q264.125 1475.44 265.931 1479.01 Q267.759 1482.55 271.37 1482.55 Q275.005 1482.55 276.81 1479.01 Q278.639 1475.44 278.639 1468.33 Q278.639 1461.2 276.81 1457.66 Q275.005 1454.1 271.37 1454.1 M271.37 1450.39 Q277.181 1450.39 280.236 1455 Q283.315 1459.58 283.315 1468.33 Q283.315 1477.06 280.236 1481.67 Q277.181 1486.25 271.37 1486.25 Q265.56 1486.25 262.482 1481.67 Q259.426 1477.06 259.426 1468.33 Q259.426 1459.58 262.482 1455 Q265.56 1450.39 271.37 1450.39 Z" fill="#000000" fill-rule="nonzero" fill-opacity="1"></path><path clip-path="url(#clip960)" d="M291.532 1479.7 L296.417 1479.7 L296.417 1485.58 L291.532 1485.58 L291.532 1479.7 Z" fill="#000000" fill-rule="nonzero" fill-opacity="1"></path><path clip-path="url(#clip960)" d="M316.602 1454.1 Q312.991 1454.1 311.162 1457.66 Q309.356 1461.2 309.356 1468.33 Q309.356 1475.44 311.162 1479.01 Q312.991 1482.55 316.602 1482.55 Q320.236 1482.55 322.041 1479.01 Q323.87 1475.44 323.87 1468.33 Q323.87 1461.2 322.041 1457.66 Q320.236 1454.1 316.602 1454.1 M316.602 1450.39 Q322.412 1450.39 325.467 1455 Q328.546 1459.58 328.546 1468.33 Q328.546 1477.06 325.467 1481.67 Q322.412 1486.25 316.602 1486.25 Q310.791 1486.25 307.713 1481.67 Q304.657 1477.06 304.657 1468.33 Q304.657 1459.58 307.713 1455 Q310.791 1450.39 316.602 1450.39 Z" fill="#000000" fill-rule="nonzero" fill-opacity="1"></path><path clip-path="url(#clip960)" d="M346.764 1454.1 Q343.152 1454.1 341.324 1457.66 Q339.518 1461.2 339.518 1468.33 Q339.518 1475.44 341.324 1479.01 Q343.152 1482.55 346.764 1482.55 Q350.398 1482.55 352.203 1479.01 Q354.032 1475.44 354.032 1468.33 Q354.032 1461.2 352.203 1457.66 Q350.398 1454.1 346.764 1454.1 M346.764 1450.39 Q352.574 1450.39 355.629 1455 Q358.708 1459.58 358.708 1468.33 Q358.708 1477.06 355.629 1481.67 Q352.574 1486.25 346.764 1486.25 Q340.953 1486.25 337.875 1481.67 Q334.819 1477.06 334.819 1468.33 Q334.819 1459.58 337.875 1455 Q340.953 1450.39 346.764 1450.39 Z" fill="#000000" fill-rule="nonzero" fill-opacity="1"></path><path clip-path="url(#clip960)" d="M767.909 1454.1 Q764.298 1454.1 762.469 1457.66 Q760.664 1461.2 760.664 1468.33 Q760.664 1475.44 762.469 1479.01 Q764.298 1482.55 767.909 1482.55 Q771.543 1482.55 773.349 1479.01 Q775.178 1475.44 775.178 1468.33 Q775.178 1461.2 773.349 1457.66 Q771.543 1454.1 767.909 1454.1 M767.909 1450.39 Q773.719 1450.39 776.775 1455 Q779.853 1459.58 779.853 1468.33 Q779.853 1477.06 776.775 1481.67 Q773.719 1486.25 767.909 1486.25 Q762.099 1486.25 759.02 1481.67 Q755.965 1477.06 755.965 1468.33 Q755.965 1459.58 759.02 1455 Q762.099 1450.39 767.909 1450.39 Z" fill="#000000" fill-rule="nonzero" fill-opacity="1"></path><path clip-path="url(#clip960)" d="M788.071 1479.7 L792.955 1479.7 L792.955 1485.58 L788.071 1485.58 L788.071 1479.7 Z" fill="#000000" fill-rule="nonzero" fill-opacity="1"></path><path clip-path="url(#clip960)" d="M807.168 1481.64 L823.487 1481.64 L823.487 1485.58 L801.543 1485.58 L801.543 1481.64 Q804.205 1478.89 808.788 1474.26 Q813.395 1469.61 814.576 1468.27 Q816.821 1465.74 817.7 1464.01 Q818.603 1462.25 818.603 1460.56 Q818.603 1457.8 816.659 1456.07 Q814.738 1454.33 811.636 1454.33 Q809.437 1454.33 806.983 1455.09 Q804.552 1455.86 801.775 1457.41 L801.775 1452.69 Q804.599 1451.55 807.052 1450.97 Q809.506 1450.39 811.543 1450.39 Q816.913 1450.39 820.108 1453.08 Q823.302 1455.77 823.302 1460.26 Q823.302 1462.39 822.492 1464.31 Q821.705 1466.2 819.599 1468.8 Q819.02 1469.47 815.918 1472.69 Q812.816 1475.88 807.168 1481.64 Z" fill="#000000" fill-rule="nonzero" fill-opacity="1"></path><path clip-path="url(#clip960)" d="M833.349 1451.02 L851.705 1451.02 L851.705 1454.96 L837.631 1454.96 L837.631 1463.43 Q838.649 1463.08 839.668 1462.92 Q840.686 1462.73 841.705 1462.73 Q847.492 1462.73 850.872 1465.9 Q854.251 1469.08 854.251 1474.49 Q854.251 1480.07 850.779 1483.17 Q847.307 1486.25 840.987 1486.25 Q838.811 1486.25 836.543 1485.88 Q834.298 1485.51 831.89 1484.77 L831.89 1480.07 Q833.974 1481.2 836.196 1481.76 Q838.418 1482.32 840.895 1482.32 Q844.899 1482.32 847.237 1480.21 Q849.575 1478.1 849.575 1474.49 Q849.575 1470.88 847.237 1468.77 Q844.899 1466.67 840.895 1466.67 Q839.02 1466.67 837.145 1467.08 Q835.293 1467.5 833.349 1468.38 L833.349 1451.02 Z" fill="#000000" fill-rule="nonzero" fill-opacity="1"></path><path clip-path="url(#clip960)" d="M1263.45 1454.1 Q1259.84 1454.1 1258.01 1457.66 Q1256.21 1461.2 1256.21 1468.33 Q1256.21 1475.44 1258.01 1479.01 Q1259.84 1482.55 1263.45 1482.55 Q1267.09 1482.55 1268.89 1479.01 Q1270.72 1475.44 1270.72 1468.33 Q1270.72 1461.2 1268.89 1457.66 Q1267.09 1454.1 1263.45 1454.1 M1263.45 1450.39 Q1269.26 1450.39 1272.32 1455 Q1275.4 1459.58 1275.4 1468.33 Q1275.4 1477.06 1272.32 1481.67 Q1269.26 1486.25 1263.45 1486.25 Q1257.64 1486.25 1254.56 1481.67 Q1251.51 1477.06 1251.51 1468.33 Q1251.51 1459.58 1254.56 1455 Q1257.64 1450.39 1263.45 1450.39 Z" fill="#000000" fill-rule="nonzero" fill-opacity="1"></path><path clip-path="url(#clip960)" d="M1283.61 1479.7 L1288.5 1479.7 L1288.5 1485.58 L1283.61 1485.58 L1283.61 1479.7 Z" fill="#000000" fill-rule="nonzero" fill-opacity="1"></path><path clip-path="url(#clip960)" d="M1298.73 1451.02 L1317.09 1451.02 L1317.09 1454.96 L1303.01 1454.96 L1303.01 1463.43 Q1304.03 1463.08 1305.05 1462.92 Q1306.07 1462.73 1307.09 1462.73 Q1312.87 1462.73 1316.25 1465.9 Q1319.63 1469.08 1319.63 1474.49 Q1319.63 1480.07 1316.16 1483.17 Q1312.69 1486.25 1306.37 1486.25 Q1304.19 1486.25 1301.92 1485.88 Q1299.68 1485.51 1297.27 1484.77 L1297.27 1480.07 Q1299.35 1481.2 1301.58 1481.76 Q1303.8 1482.32 1306.28 1482.32 Q1310.28 1482.32 1312.62 1480.21 Q1314.96 1478.1 1314.96 1474.49 Q1314.96 1470.88 1312.62 1468.77 Q1310.28 1466.67 1306.28 1466.67 Q1304.4 1466.67 1302.53 1467.08 Q1300.67 1467.5 1298.73 1468.38 L1298.73 1451.02 Z" fill="#000000" fill-rule="nonzero" fill-opacity="1"></path><path clip-path="url(#clip960)" d="M1338.85 1454.1 Q1335.23 1454.1 1333.41 1457.66 Q1331.6 1461.2 1331.6 1468.33 Q1331.6 1475.44 1333.41 1479.01 Q1335.23 1482.55 1338.85 1482.55 Q1342.48 1482.55 1344.29 1479.01 Q1346.11 1475.44 1346.11 1468.33 Q1346.11 1461.2 1344.29 1457.66 Q1342.48 1454.1 1338.85 1454.1 M1338.85 1450.39 Q1344.66 1450.39 1347.71 1455 Q1350.79 1459.58 1350.79 1468.33 Q1350.79 1477.06 1347.71 1481.67 Q1344.66 1486.25 1338.85 1486.25 Q1333.04 1486.25 1329.96 1481.67 Q1326.9 1477.06 1326.9 1468.33 Q1326.9 1459.58 1329.96 1455 Q1333.04 1450.39 1338.85 1450.39 Z" fill="#000000" fill-rule="nonzero" fill-opacity="1"></path><path clip-path="url(#clip960)" d="M1759.99 1454.1 Q1756.38 1454.1 1754.55 1457.66 Q1752.75 1461.2 1752.75 1468.33 Q1752.75 1475.44 1754.55 1479.01 Q1756.38 1482.55 1759.99 1482.55 Q1763.63 1482.55 1765.43 1479.01 Q1767.26 1475.44 1767.26 1468.33 Q1767.26 1461.2 1765.43 1457.66 Q1763.63 1454.1 1759.99 1454.1 M1759.99 1450.39 Q1765.8 1450.39 1768.86 1455 Q1771.94 1459.58 1771.94 1468.33 Q1771.94 1477.06 1768.86 1481.67 Q1765.8 1486.25 1759.99 1486.25 Q1754.18 1486.25 1751.1 1481.67 Q1748.05 1477.06 1748.05 1468.33 Q1748.05 1459.58 1751.1 1455 Q1754.18 1450.39 1759.99 1450.39 Z" fill="#000000" fill-rule="nonzero" fill-opacity="1"></path><path clip-path="url(#clip960)" d="M1780.15 1479.7 L1785.04 1479.7 L1785.04 1485.58 L1780.15 1485.58 L1780.15 1479.7 Z" fill="#000000" fill-rule="nonzero" fill-opacity="1"></path><path clip-path="url(#clip960)" d="M1794.04 1451.02 L1816.26 1451.02 L1816.26 1453.01 L1803.72 1485.58 L1798.83 1485.58 L1810.64 1454.96 L1794.04 1454.96 L1794.04 1451.02 Z" fill="#000000" fill-rule="nonzero" fill-opacity="1"></path><path clip-path="url(#clip960)" d="M1825.43 1451.02 L1843.79 1451.02 L1843.79 1454.96 L1829.71 1454.96 L1829.71 1463.43 Q1830.73 1463.08 1831.75 1462.92 Q1832.77 1462.73 1833.79 1462.73 Q1839.57 1462.73 1842.95 1465.9 Q1846.33 1469.08 1846.33 1474.49 Q1846.33 1480.07 1842.86 1483.17 Q1839.39 1486.25 1833.07 1486.25 Q1830.89 1486.25 1828.62 1485.88 Q1826.38 1485.51 1823.97 1484.77 L1823.97 1480.07 Q1826.06 1481.2 1828.28 1481.76 Q1830.5 1482.32 1832.98 1482.32 Q1836.98 1482.32 1839.32 1480.21 Q1841.66 1478.1 1841.66 1474.49 Q1841.66 1470.88 1839.32 1468.77 Q1836.98 1466.67 1832.98 1466.67 Q1831.1 1466.67 1829.23 1467.08 Q1827.38 1467.5 1825.43 1468.38 L1825.43 1451.02 Z" fill="#000000" fill-rule="nonzero" fill-opacity="1"></path><path clip-path="url(#clip960)" d="M2245.3 1481.64 L2252.94 1481.64 L2252.94 1455.28 L2244.63 1456.95 L2244.63 1452.69 L2252.9 1451.02 L2257.57 1451.02 L2257.57 1481.64 L2265.21 1481.64 L2265.21 1485.58 L2245.3 1485.58 L2245.3 1481.64 Z" fill="#000000" fill-rule="nonzero" fill-opacity="1"></path><path clip-path="url(#clip960)" d="M2274.65 1479.7 L2279.54 1479.7 L2279.54 1485.58 L2274.65 1485.58 L2274.65 1479.7 Z" fill="#000000" fill-rule="nonzero" fill-opacity="1"></path><path clip-path="url(#clip960)" d="M2299.72 1454.1 Q2296.11 1454.1 2294.28 1457.66 Q2292.48 1461.2 2292.48 1468.33 Q2292.48 1475.44 2294.28 1479.01 Q2296.11 1482.55 2299.72 1482.55 Q2303.36 1482.55 2305.16 1479.01 Q2306.99 1475.44 2306.99 1468.33 Q2306.99 1461.2 2305.16 1457.66 Q2303.36 1454.1 2299.72 1454.1 M2299.72 1450.39 Q2305.53 1450.39 2308.59 1455 Q2311.67 1459.58 2311.67 1468.33 Q2311.67 1477.06 2308.59 1481.67 Q2305.53 1486.25 2299.72 1486.25 Q2293.91 1486.25 2290.84 1481.67 Q2287.78 1477.06 2287.78 1468.33 Q2287.78 1459.58 2290.84 1455 Q2293.91 1450.39 2299.72 1450.39 Z" fill="#000000" fill-rule="nonzero" fill-opacity="1"></path><path clip-path="url(#clip960)" d="M2329.89 1454.1 Q2326.27 1454.1 2324.45 1457.66 Q2322.64 1461.2 2322.64 1468.33 Q2322.64 1475.44 2324.45 1479.01 Q2326.27 1482.55 2329.89 1482.55 Q2333.52 1482.55 2335.33 1479.01 Q2337.15 1475.44 2337.15 1468.33 Q2337.15 1461.2 2335.33 1457.66 Q2333.52 1454.1 2329.89 1454.1 M2329.89 1450.39 Q2335.7 1450.39 2338.75 1455 Q2341.83 1459.58 2341.83 1468.33 Q2341.83 1477.06 2338.75 1481.67 Q2335.7 1486.25 2329.89 1486.25 Q2324.08 1486.25 2321 1481.67 Q2317.94 1477.06 2317.94 1468.33 Q2317.94 1459.58 2321 1455 Q2324.08 1450.39 2329.89 1450.39 Z" fill="#000000" fill-rule="nonzero" fill-opacity="1"></path><path clip-path="url(#clip960)" d="M1003.17 1520.52 L1030.48 1520.52 L1030.48 1525.93 L1009.6 1525.93 L1009.6 1539.94 L1028.44 1539.94 L1028.44 1545.35 L1009.6 1545.35 L1009.6 1568.04 L1003.17 1568.04 L1003.17 1520.52 Z" fill="#000000" fill-rule="nonzero" fill-opacity="1"></path><path clip-path="url(#clip960)" d="M1050.63 1550.12 Q1043.53 1550.12 1040.79 1551.75 Q1038.05 1553.37 1038.05 1557.29 Q1038.05 1560.4 1040.09 1562.25 Q1042.16 1564.07 1045.69 1564.07 Q1050.56 1564.07 1053.49 1560.63 Q1056.45 1557.16 1056.45 1551.43 L1056.45 1550.12 L1050.63 1550.12 M1062.31 1547.71 L1062.31 1568.04 L1056.45 1568.04 L1056.45 1562.63 Q1054.45 1565.88 1051.45 1567.44 Q1048.46 1568.97 1044.13 1568.97 Q1038.66 1568.97 1035.41 1565.91 Q1032.2 1562.82 1032.2 1557.67 Q1032.2 1551.65 1036.21 1548.6 Q1040.25 1545.54 1048.24 1545.54 L1056.45 1545.54 L1056.45 1544.97 Q1056.45 1540.93 1053.78 1538.73 Q1051.14 1536.5 1046.33 1536.5 Q1043.27 1536.5 1040.38 1537.23 Q1037.48 1537.97 1034.81 1539.43 L1034.81 1534.02 Q1038.02 1532.78 1041.05 1532.17 Q1044.07 1531.54 1046.93 1531.54 Q1054.67 1531.54 1058.49 1535.55 Q1062.31 1539.56 1062.31 1547.71 Z" fill="#000000" fill-rule="nonzero" fill-opacity="1"></path><path clip-path="url(#clip960)" d="M1074.37 1518.52 L1080.23 1518.52 L1080.23 1568.04 L1074.37 1568.04 L1074.37 1518.52 Z" fill="#000000" fill-rule="nonzero" fill-opacity="1"></path><path clip-path="url(#clip960)" d="M1115.21 1533.45 L1115.21 1538.98 Q1112.72 1537.71 1110.05 1537.07 Q1107.38 1536.44 1104.51 1536.44 Q1100.15 1536.44 1097.96 1537.77 Q1095.79 1539.11 1095.79 1541.79 Q1095.79 1543.82 1097.35 1545 Q1098.91 1546.15 1103.62 1547.2 L1105.63 1547.64 Q1111.86 1548.98 1114.47 1551.43 Q1117.12 1553.85 1117.12 1558.21 Q1117.12 1563.17 1113.17 1566.07 Q1109.25 1568.97 1102.38 1568.97 Q1099.52 1568.97 1096.4 1568.39 Q1093.31 1567.85 1089.87 1566.74 L1089.87 1560.69 Q1093.12 1562.38 1096.27 1563.24 Q1099.42 1564.07 1102.51 1564.07 Q1106.64 1564.07 1108.87 1562.66 Q1111.1 1561.23 1111.1 1558.65 Q1111.1 1556.27 1109.48 1554.99 Q1107.89 1553.72 1102.44 1552.54 L1100.41 1552.07 Q1094.96 1550.92 1092.54 1548.56 Q1090.13 1546.18 1090.13 1542.04 Q1090.13 1537.01 1093.69 1534.27 Q1097.26 1531.54 1103.81 1531.54 Q1107.06 1531.54 1109.92 1532.01 Q1112.79 1532.49 1115.21 1533.45 Z" fill="#000000" fill-rule="nonzero" fill-opacity="1"></path><path clip-path="url(#clip960)" d="M1156.93 1548.76 L1156.93 1551.62 L1130.01 1551.62 Q1130.39 1557.67 1133.64 1560.85 Q1136.91 1564 1142.74 1564 Q1146.11 1564 1149.26 1563.17 Q1152.45 1562.35 1155.57 1560.69 L1155.57 1566.23 Q1152.41 1567.57 1149.1 1568.27 Q1145.79 1568.97 1142.39 1568.97 Q1133.86 1568.97 1128.86 1564 Q1123.9 1559.04 1123.9 1550.57 Q1123.9 1541.82 1128.61 1536.69 Q1133.35 1531.54 1141.37 1531.54 Q1148.56 1531.54 1152.73 1536.18 Q1156.93 1540.8 1156.93 1548.76 M1151.08 1547.04 Q1151.01 1542.23 1148.37 1539.37 Q1145.76 1536.5 1141.43 1536.5 Q1136.53 1536.5 1133.57 1539.27 Q1130.64 1542.04 1130.2 1547.07 L1151.08 1547.04 Z" fill="#000000" fill-rule="nonzero" fill-opacity="1"></path><path clip-path="url(#clip960)" d="M1193.95 1525.81 L1193.95 1543.66 L1202.03 1543.66 Q1206.52 1543.66 1208.97 1541.34 Q1211.42 1539.02 1211.42 1534.72 Q1211.42 1530.45 1208.97 1528.13 Q1206.52 1525.81 1202.03 1525.81 L1193.95 1525.81 M1187.52 1520.52 L1202.03 1520.52 Q1210.02 1520.52 1214.1 1524.15 Q1218.2 1527.75 1218.2 1534.72 Q1218.2 1541.75 1214.1 1545.35 Q1210.02 1548.95 1202.03 1548.95 L1193.95 1548.95 L1193.95 1568.04 L1187.52 1568.04 L1187.52 1520.52 Z" fill="#000000" fill-rule="nonzero" fill-opacity="1"></path><path clip-path="url(#clip960)" d="M1238.06 1536.5 Q1233.35 1536.5 1230.62 1540.19 Q1227.88 1543.85 1227.88 1550.25 Q1227.88 1556.65 1230.59 1560.34 Q1233.32 1564 1238.06 1564 Q1242.74 1564 1245.48 1560.31 Q1248.22 1556.62 1248.22 1550.25 Q1248.22 1543.92 1245.48 1540.23 Q1242.74 1536.5 1238.06 1536.5 M1238.06 1531.54 Q1245.7 1531.54 1250.06 1536.5 Q1254.42 1541.47 1254.42 1550.25 Q1254.42 1559 1250.06 1564 Q1245.7 1568.97 1238.06 1568.97 Q1230.39 1568.97 1226.03 1564 Q1221.7 1559 1221.7 1550.25 Q1221.7 1541.47 1226.03 1536.5 Q1230.39 1531.54 1238.06 1531.54 Z" fill="#000000" fill-rule="nonzero" fill-opacity="1"></path><path clip-path="url(#clip960)" d="M1286.86 1533.45 L1286.86 1538.98 Q1284.38 1537.71 1281.7 1537.07 Q1279.03 1536.44 1276.16 1536.44 Q1271.8 1536.44 1269.61 1537.77 Q1267.44 1539.11 1267.44 1541.79 Q1267.44 1543.82 1269 1545 Q1270.56 1546.15 1275.27 1547.2 L1277.28 1547.64 Q1283.52 1548.98 1286.13 1551.43 Q1288.77 1553.85 1288.77 1558.21 Q1288.77 1563.17 1284.82 1566.07 Q1280.91 1568.97 1274.03 1568.97 Q1271.17 1568.97 1268.05 1568.39 Q1264.96 1567.85 1261.52 1566.74 L1261.52 1560.69 Q1264.77 1562.38 1267.92 1563.24 Q1271.07 1564.07 1274.16 1564.07 Q1278.3 1564.07 1280.52 1562.66 Q1282.75 1561.23 1282.75 1558.65 Q1282.75 1556.27 1281.13 1554.99 Q1279.54 1553.72 1274.09 1552.54 L1272.06 1552.07 Q1266.62 1550.92 1264.2 1548.56 Q1261.78 1546.18 1261.78 1542.04 Q1261.78 1537.01 1265.34 1534.27 Q1268.91 1531.54 1275.46 1531.54 Q1278.71 1531.54 1281.57 1532.01 Q1284.44 1532.49 1286.86 1533.45 Z" fill="#000000" fill-rule="nonzero" fill-opacity="1"></path><path clip-path="url(#clip960)" d="M1298.09 1532.4 L1303.95 1532.4 L1303.95 1568.04 L1298.09 1568.04 L1298.09 1532.4 M1298.09 1518.52 L1303.95 1518.52 L1303.95 1525.93 L1298.09 1525.93 L1298.09 1518.52 Z" fill="#000000" fill-rule="nonzero" fill-opacity="1"></path><path clip-path="url(#clip960)" d="M1322 1522.27 L1322 1532.4 L1334.06 1532.4 L1334.06 1536.95 L1322 1536.95 L1322 1556.3 Q1322 1560.66 1323.17 1561.9 Q1324.38 1563.14 1328.04 1563.14 L1334.06 1563.14 L1334.06 1568.04 L1328.04 1568.04 Q1321.26 1568.04 1318.69 1565.53 Q1316.11 1562.98 1316.11 1556.3 L1316.11 1536.95 L1311.81 1536.95 L1311.81 1532.4 L1316.11 1532.4 L1316.11 1522.27 L1322 1522.27 Z" fill="#000000" fill-rule="nonzero" fill-opacity="1"></path><path clip-path="url(#clip960)" d="M1341.76 1532.4 L1347.62 1532.4 L1347.62 1568.04 L1341.76 1568.04 L1341.76 1532.4 M1341.76 1518.52 L1347.62 1518.52 L1347.62 1525.93 L1341.76 1525.93 L1341.76 1518.52 Z" fill="#000000" fill-rule="nonzero" fill-opacity="1"></path><path clip-path="url(#clip960)" d="M1355.67 1532.4 L1361.88 1532.4 L1373.02 1562.31 L1384.16 1532.4 L1390.36 1532.4 L1377 1568.04 L1369.04 1568.04 L1355.67 1532.4 Z" fill="#000000" fill-rule="nonzero" fill-opacity="1"></path><path clip-path="url(#clip960)" d="M1428.94 1548.76 L1428.94 1551.62 L1402.01 1551.62 Q1402.4 1557.67 1405.64 1560.85 Q1408.92 1564 1414.75 1564 Q1418.12 1564 1421.27 1563.17 Q1424.45 1562.35 1427.57 1560.69 L1427.57 1566.23 Q1424.42 1567.57 1421.11 1568.27 Q1417.8 1568.97 1414.39 1568.97 Q1405.86 1568.97 1400.87 1564 Q1395.9 1559.04 1395.9 1550.57 Q1395.9 1541.82 1400.61 1536.69 Q1405.36 1531.54 1413.38 1531.54 Q1420.57 1531.54 1424.74 1536.18 Q1428.94 1540.8 1428.94 1548.76 M1423.08 1547.04 Q1423.02 1542.23 1420.38 1539.37 Q1417.77 1536.5 1413.44 1536.5 Q1408.54 1536.5 1405.58 1539.27 Q1402.65 1542.04 1402.2 1547.07 L1423.08 1547.04 Z" fill="#000000" fill-rule="nonzero" fill-opacity="1"></path><path clip-path="url(#clip960)" d="M1482.06 1545.76 Q1484.13 1546.46 1486.07 1548.76 Q1488.05 1551.05 1490.02 1555.06 L1496.54 1568.04 L1489.64 1568.04 L1483.56 1555.85 Q1481.2 1551.08 1478.97 1549.52 Q1476.78 1547.96 1472.96 1547.96 L1465.96 1547.96 L1465.96 1568.04 L1459.53 1568.04 L1459.53 1520.52 L1474.04 1520.52 Q1482.19 1520.52 1486.2 1523.93 Q1490.21 1527.34 1490.21 1534.21 Q1490.21 1538.7 1488.11 1541.66 Q1486.04 1544.62 1482.06 1545.76 M1465.96 1525.81 L1465.96 1542.68 L1474.04 1542.68 Q1478.69 1542.68 1481.04 1540.54 Q1483.43 1538.38 1483.43 1534.21 Q1483.43 1530.04 1481.04 1527.94 Q1478.69 1525.81 1474.04 1525.81 L1465.96 1525.81 Z" fill="#000000" fill-rule="nonzero" fill-opacity="1"></path><path clip-path="url(#clip960)" d="M1519.33 1550.12 Q1512.24 1550.12 1509.5 1551.75 Q1506.76 1553.37 1506.76 1557.29 Q1506.76 1560.4 1508.8 1562.25 Q1510.87 1564.07 1514.4 1564.07 Q1519.27 1564.07 1522.2 1560.63 Q1525.16 1557.16 1525.16 1551.43 L1525.16 1550.12 L1519.33 1550.12 M1531.01 1547.71 L1531.01 1568.04 L1525.16 1568.04 L1525.16 1562.63 Q1523.15 1565.88 1520.16 1567.44 Q1517.17 1568.97 1512.84 1568.97 Q1507.37 1568.97 1504.12 1565.91 Q1500.9 1562.82 1500.9 1557.67 Q1500.9 1551.65 1504.92 1548.6 Q1508.96 1545.54 1516.95 1545.54 L1525.16 1545.54 L1525.16 1544.97 Q1525.16 1540.93 1522.48 1538.73 Q1519.84 1536.5 1515.04 1536.5 Q1511.98 1536.5 1509.08 1537.23 Q1506.19 1537.97 1503.51 1539.43 L1503.51 1534.02 Q1506.73 1532.78 1509.75 1532.17 Q1512.78 1531.54 1515.64 1531.54 Q1523.38 1531.54 1527.2 1535.55 Q1531.01 1539.56 1531.01 1547.71 Z" fill="#000000" fill-rule="nonzero" fill-opacity="1"></path><path clip-path="url(#clip960)" d="M1548.87 1522.27 L1548.87 1532.4 L1560.93 1532.4 L1560.93 1536.95 L1548.87 1536.95 L1548.87 1556.3 Q1548.87 1560.66 1550.05 1561.9 Q1551.26 1563.14 1554.92 1563.14 L1560.93 1563.14 L1560.93 1568.04 L1554.92 1568.04 Q1548.14 1568.04 1545.56 1565.53 Q1542.98 1562.98 1542.98 1556.3 L1542.98 1536.95 L1538.69 1536.95 L1538.69 1532.4 L1542.98 1532.4 L1542.98 1522.27 L1548.87 1522.27 Z" fill="#000000" fill-rule="nonzero" fill-opacity="1"></path><path clip-path="url(#clip960)" d="M1599.13 1548.76 L1599.13 1551.62 L1572.2 1551.62 Q1572.58 1557.67 1575.83 1560.85 Q1579.11 1564 1584.93 1564 Q1588.31 1564 1591.46 1563.17 Q1594.64 1562.35 1597.76 1560.69 L1597.76 1566.23 Q1594.61 1567.57 1591.3 1568.27 Q1587.99 1568.97 1584.58 1568.97 Q1576.05 1568.97 1571.05 1564 Q1566.09 1559.04 1566.09 1550.57 Q1566.09 1541.82 1570.8 1536.69 Q1575.54 1531.54 1583.56 1531.54 Q1590.76 1531.54 1594.93 1536.18 Q1599.13 1540.8 1599.13 1548.76 M1593.27 1547.04 Q1593.21 1542.23 1590.57 1539.37 Q1587.96 1536.5 1583.63 1536.5 Q1578.73 1536.5 1575.77 1539.27 Q1572.84 1542.04 1572.39 1547.07 L1593.27 1547.04 Z" fill="#000000" fill-rule="nonzero" fill-opacity="1"></path><polyline clip-path="url(#clip962)" style="stroke:#000000; stroke-linecap:round; stroke-linejoin:round; stroke-width:2; stroke-opacity:0.1; fill:none" points="249.542,1397.85 2352.76,1397.85 "></polyline>
<polyline clip-path="url(#clip962)" style="stroke:#000000; stroke-linecap:round; stroke-linejoin:round; stroke-width:2; stroke-opacity:0.1; fill:none" points="249.542,1088.46 2352.76,1088.46 "></polyline>
<polyline clip-path="url(#clip962)" style="stroke:#000000; stroke-linecap:round; stroke-linejoin:round; stroke-width:2; stroke-opacity:0.1; fill:none" points="249.542,779.056 2352.76,779.056 "></polyline>
<polyline clip-path="url(#clip962)" style="stroke:#000000; stroke-linecap:round; stroke-linejoin:round; stroke-width:2; stroke-opacity:0.1; fill:none" points="249.542,469.656 2352.76,469.656 "></polyline>
<polyline clip-path="url(#clip962)" style="stroke:#000000; stroke-linecap:round; stroke-linejoin:round; stroke-width:2; stroke-opacity:0.1; fill:none" points="249.542,160.256 2352.76,160.256 "></polyline>
<polyline clip-path="url(#clip960)" style="stroke:#000000; stroke-linecap:round; stroke-linejoin:round; stroke-width:4; stroke-opacity:1; fill:none" points="249.542,1423.18 249.542,123.472 "></polyline>
<polyline clip-path="url(#clip960)" style="stroke:#000000; stroke-linecap:round; stroke-linejoin:round; stroke-width:4; stroke-opacity:1; fill:none" points="249.542,1397.85 268.44,1397.85 "></polyline>
<polyline clip-path="url(#clip960)" style="stroke:#000000; stroke-linecap:round; stroke-linejoin:round; stroke-width:4; stroke-opacity:1; fill:none" points="249.542,1088.46 268.44,1088.46 "></polyline>
<polyline clip-path="url(#clip960)" style="stroke:#000000; stroke-linecap:round; stroke-linejoin:round; stroke-width:4; stroke-opacity:1; fill:none" points="249.542,779.056 268.44,779.056 "></polyline>
<polyline clip-path="url(#clip960)" style="stroke:#000000; stroke-linecap:round; stroke-linejoin:round; stroke-width:4; stroke-opacity:1; fill:none" points="249.542,469.656 268.44,469.656 "></polyline>
<polyline clip-path="url(#clip960)" style="stroke:#000000; stroke-linecap:round; stroke-linejoin:round; stroke-width:4; stroke-opacity:1; fill:none" points="249.542,160.256 268.44,160.256 "></polyline>
<path clip-path="url(#clip960)" d="M126.205 1383.65 Q122.593 1383.65 120.765 1387.22 Q118.959 1390.76 118.959 1397.89 Q118.959 1405 120.765 1408.56 Q122.593 1412.1 126.205 1412.1 Q129.839 1412.1 131.644 1408.56 Q133.473 1405 133.473 1397.89 Q133.473 1390.76 131.644 1387.22 Q129.839 1383.65 126.205 1383.65 M126.205 1379.95 Q132.015 1379.95 135.07 1384.56 Q138.149 1389.14 138.149 1397.89 Q138.149 1406.62 135.07 1411.22 Q132.015 1415.81 126.205 1415.81 Q120.394 1415.81 117.316 1411.22 Q114.26 1406.62 114.26 1397.89 Q114.26 1389.14 117.316 1384.56 Q120.394 1379.95 126.205 1379.95 Z" fill="#000000" fill-rule="nonzero" fill-opacity="1"></path><path clip-path="url(#clip960)" d="M146.366 1409.26 L151.251 1409.26 L151.251 1415.13 L146.366 1415.13 L146.366 1409.26 Z" fill="#000000" fill-rule="nonzero" fill-opacity="1"></path><path clip-path="url(#clip960)" d="M171.436 1383.65 Q167.825 1383.65 165.996 1387.22 Q164.19 1390.76 164.19 1397.89 Q164.19 1405 165.996 1408.56 Q167.825 1412.1 171.436 1412.1 Q175.07 1412.1 176.876 1408.56 Q178.704 1405 178.704 1397.89 Q178.704 1390.76 176.876 1387.22 Q175.07 1383.65 171.436 1383.65 M171.436 1379.95 Q177.246 1379.95 180.301 1384.56 Q183.38 1389.14 183.38 1397.89 Q183.38 1406.62 180.301 1411.22 Q177.246 1415.81 171.436 1415.81 Q165.626 1415.81 162.547 1411.22 Q159.491 1406.62 159.491 1397.89 Q159.491 1389.14 162.547 1384.56 Q165.626 1379.95 171.436 1379.95 Z" fill="#000000" fill-rule="nonzero" fill-opacity="1"></path><path clip-path="url(#clip960)" d="M201.598 1383.65 Q197.987 1383.65 196.158 1387.22 Q194.352 1390.76 194.352 1397.89 Q194.352 1405 196.158 1408.56 Q197.987 1412.1 201.598 1412.1 Q205.232 1412.1 207.037 1408.56 Q208.866 1405 208.866 1397.89 Q208.866 1390.76 207.037 1387.22 Q205.232 1383.65 201.598 1383.65 M201.598 1379.95 Q207.408 1379.95 210.463 1384.56 Q213.542 1389.14 213.542 1397.89 Q213.542 1406.62 210.463 1411.22 Q207.408 1415.81 201.598 1415.81 Q195.787 1415.81 192.709 1411.22 Q189.653 1406.62 189.653 1397.89 Q189.653 1389.14 192.709 1384.56 Q195.787 1379.95 201.598 1379.95 Z" fill="#000000" fill-rule="nonzero" fill-opacity="1"></path><path clip-path="url(#clip960)" d="M127.2 1074.25 Q123.589 1074.25 121.76 1077.82 Q119.955 1081.36 119.955 1088.49 Q119.955 1095.6 121.76 1099.16 Q123.589 1102.7 127.2 1102.7 Q130.834 1102.7 132.64 1099.16 Q134.468 1095.6 134.468 1088.49 Q134.468 1081.36 132.64 1077.82 Q130.834 1074.25 127.2 1074.25 M127.2 1070.55 Q133.01 1070.55 136.066 1075.16 Q139.144 1079.74 139.144 1088.49 Q139.144 1097.22 136.066 1101.82 Q133.01 1106.41 127.2 1106.41 Q121.39 1106.41 118.311 1101.82 Q115.256 1097.22 115.256 1088.49 Q115.256 1079.74 118.311 1075.16 Q121.39 1070.55 127.2 1070.55 Z" fill="#000000" fill-rule="nonzero" fill-opacity="1"></path><path clip-path="url(#clip960)" d="M147.362 1099.86 L152.246 1099.86 L152.246 1105.74 L147.362 1105.74 L147.362 1099.86 Z" fill="#000000" fill-rule="nonzero" fill-opacity="1"></path><path clip-path="url(#clip960)" d="M166.459 1101.8 L182.778 1101.8 L182.778 1105.74 L160.834 1105.74 L160.834 1101.8 Q163.496 1099.05 168.079 1094.42 Q172.686 1089.76 173.866 1088.42 Q176.112 1085.9 176.991 1084.16 Q177.894 1082.4 177.894 1080.71 Q177.894 1077.96 175.95 1076.22 Q174.028 1074.49 170.927 1074.49 Q168.727 1074.49 166.274 1075.25 Q163.843 1076.01 161.065 1077.56 L161.065 1072.84 Q163.89 1071.71 166.343 1071.13 Q168.797 1070.55 170.834 1070.55 Q176.204 1070.55 179.399 1073.24 Q182.593 1075.92 182.593 1080.41 Q182.593 1082.54 181.783 1084.46 Q180.996 1086.36 178.889 1088.95 Q178.311 1089.62 175.209 1092.84 Q172.107 1096.04 166.459 1101.8 Z" fill="#000000" fill-rule="nonzero" fill-opacity="1"></path><path clip-path="url(#clip960)" d="M192.639 1071.18 L210.996 1071.18 L210.996 1075.11 L196.922 1075.11 L196.922 1083.58 Q197.94 1083.24 198.959 1083.07 Q199.977 1082.89 200.996 1082.89 Q206.783 1082.89 210.162 1086.06 Q213.542 1089.23 213.542 1094.65 Q213.542 1100.23 210.07 1103.33 Q206.598 1106.41 200.278 1106.41 Q198.102 1106.41 195.834 1106.04 Q193.588 1105.67 191.181 1104.93 L191.181 1100.23 Q193.264 1101.36 195.487 1101.92 Q197.709 1102.47 200.186 1102.47 Q204.19 1102.47 206.528 1100.36 Q208.866 1098.26 208.866 1094.65 Q208.866 1091.04 206.528 1088.93 Q204.19 1086.82 200.186 1086.82 Q198.311 1086.82 196.436 1087.24 Q194.584 1087.66 192.639 1088.54 L192.639 1071.18 Z" fill="#000000" fill-rule="nonzero" fill-opacity="1"></path><path clip-path="url(#clip960)" d="M126.205 764.854 Q122.593 764.854 120.765 768.419 Q118.959 771.961 118.959 779.09 Q118.959 786.197 120.765 789.762 Q122.593 793.303 126.205 793.303 Q129.839 793.303 131.644 789.762 Q133.473 786.197 133.473 779.09 Q133.473 771.961 131.644 768.419 Q129.839 764.854 126.205 764.854 M126.205 761.151 Q132.015 761.151 135.07 765.757 Q138.149 770.34 138.149 779.09 Q138.149 787.817 135.07 792.424 Q132.015 797.007 126.205 797.007 Q120.394 797.007 117.316 792.424 Q114.26 787.817 114.26 779.09 Q114.26 770.34 117.316 765.757 Q120.394 761.151 126.205 761.151 Z" fill="#000000" fill-rule="nonzero" fill-opacity="1"></path><path clip-path="url(#clip960)" d="M146.366 790.456 L151.251 790.456 L151.251 796.336 L146.366 796.336 L146.366 790.456 Z" fill="#000000" fill-rule="nonzero" fill-opacity="1"></path><path clip-path="url(#clip960)" d="M161.482 761.776 L179.839 761.776 L179.839 765.711 L165.765 765.711 L165.765 774.183 Q166.783 773.836 167.802 773.674 Q168.82 773.489 169.839 773.489 Q175.626 773.489 179.005 776.66 Q182.385 779.831 182.385 785.248 Q182.385 790.826 178.913 793.928 Q175.44 797.007 169.121 797.007 Q166.945 797.007 164.677 796.637 Q162.431 796.266 160.024 795.525 L160.024 790.826 Q162.107 791.961 164.329 792.516 Q166.552 793.072 169.028 793.072 Q173.033 793.072 175.371 790.965 Q177.709 788.859 177.709 785.248 Q177.709 781.637 175.371 779.53 Q173.033 777.424 169.028 777.424 Q167.153 777.424 165.278 777.84 Q163.427 778.257 161.482 779.137 L161.482 761.776 Z" fill="#000000" fill-rule="nonzero" fill-opacity="1"></path><path clip-path="url(#clip960)" d="M201.598 764.854 Q197.987 764.854 196.158 768.419 Q194.352 771.961 194.352 779.09 Q194.352 786.197 196.158 789.762 Q197.987 793.303 201.598 793.303 Q205.232 793.303 207.037 789.762 Q208.866 786.197 208.866 779.09 Q208.866 771.961 207.037 768.419 Q205.232 764.854 201.598 764.854 M201.598 761.151 Q207.408 761.151 210.463 765.757 Q213.542 770.34 213.542 779.09 Q213.542 787.817 210.463 792.424 Q207.408 797.007 201.598 797.007 Q195.787 797.007 192.709 792.424 Q189.653 787.817 189.653 779.09 Q189.653 770.34 192.709 765.757 Q195.787 761.151 201.598 761.151 Z" fill="#000000" fill-rule="nonzero" fill-opacity="1"></path><path clip-path="url(#clip960)" d="M127.2 455.455 Q123.589 455.455 121.76 459.019 Q119.955 462.561 119.955 469.691 Q119.955 476.797 121.76 480.362 Q123.589 483.904 127.2 483.904 Q130.834 483.904 132.64 480.362 Q134.468 476.797 134.468 469.691 Q134.468 462.561 132.64 459.019 Q130.834 455.455 127.2 455.455 M127.2 451.751 Q133.01 451.751 136.066 456.357 Q139.144 460.941 139.144 469.691 Q139.144 478.417 136.066 483.024 Q133.01 487.607 127.2 487.607 Q121.39 487.607 118.311 483.024 Q115.256 478.417 115.256 469.691 Q115.256 460.941 118.311 456.357 Q121.39 451.751 127.2 451.751 Z" fill="#000000" fill-rule="nonzero" fill-opacity="1"></path><path clip-path="url(#clip960)" d="M147.362 481.056 L152.246 481.056 L152.246 486.936 L147.362 486.936 L147.362 481.056 Z" fill="#000000" fill-rule="nonzero" fill-opacity="1"></path><path clip-path="url(#clip960)" d="M161.251 452.376 L183.473 452.376 L183.473 454.367 L170.927 486.936 L166.042 486.936 L177.848 456.311 L161.251 456.311 L161.251 452.376 Z" fill="#000000" fill-rule="nonzero" fill-opacity="1"></path><path clip-path="url(#clip960)" d="M192.639 452.376 L210.996 452.376 L210.996 456.311 L196.922 456.311 L196.922 464.783 Q197.94 464.436 198.959 464.274 Q199.977 464.089 200.996 464.089 Q206.783 464.089 210.162 467.26 Q213.542 470.431 213.542 475.848 Q213.542 481.427 210.07 484.529 Q206.598 487.607 200.278 487.607 Q198.102 487.607 195.834 487.237 Q193.588 486.867 191.181 486.126 L191.181 481.427 Q193.264 482.561 195.487 483.117 Q197.709 483.672 200.186 483.672 Q204.19 483.672 206.528 481.566 Q208.866 479.459 208.866 475.848 Q208.866 472.237 206.528 470.13 Q204.19 468.024 200.186 468.024 Q198.311 468.024 196.436 468.441 Q194.584 468.857 192.639 469.737 L192.639 452.376 Z" fill="#000000" fill-rule="nonzero" fill-opacity="1"></path><path clip-path="url(#clip960)" d="M117.015 173.601 L124.654 173.601 L124.654 147.236 L116.343 148.902 L116.343 144.643 L124.607 142.976 L129.283 142.976 L129.283 173.601 L136.922 173.601 L136.922 177.536 L117.015 177.536 L117.015 173.601 Z" fill="#000000" fill-rule="nonzero" fill-opacity="1"></path><path clip-path="url(#clip960)" d="M146.366 171.657 L151.251 171.657 L151.251 177.536 L146.366 177.536 L146.366 171.657 Z" fill="#000000" fill-rule="nonzero" fill-opacity="1"></path><path clip-path="url(#clip960)" d="M171.436 146.055 Q167.825 146.055 165.996 149.62 Q164.19 153.161 164.19 160.291 Q164.19 167.397 165.996 170.962 Q167.825 174.504 171.436 174.504 Q175.07 174.504 176.876 170.962 Q178.704 167.397 178.704 160.291 Q178.704 153.161 176.876 149.62 Q175.07 146.055 171.436 146.055 M171.436 142.351 Q177.246 142.351 180.301 146.958 Q183.38 151.541 183.38 160.291 Q183.38 169.018 180.301 173.624 Q177.246 178.208 171.436 178.208 Q165.626 178.208 162.547 173.624 Q159.491 169.018 159.491 160.291 Q159.491 151.541 162.547 146.958 Q165.626 142.351 171.436 142.351 Z" fill="#000000" fill-rule="nonzero" fill-opacity="1"></path><path clip-path="url(#clip960)" d="M201.598 146.055 Q197.987 146.055 196.158 149.62 Q194.352 153.161 194.352 160.291 Q194.352 167.397 196.158 170.962 Q197.987 174.504 201.598 174.504 Q205.232 174.504 207.037 170.962 Q208.866 167.397 208.866 160.291 Q208.866 153.161 207.037 149.62 Q205.232 146.055 201.598 146.055 M201.598 142.351 Q207.408 142.351 210.463 146.958 Q213.542 151.541 213.542 160.291 Q213.542 169.018 210.463 173.624 Q207.408 178.208 201.598 178.208 Q195.787 178.208 192.709 173.624 Q189.653 169.018 189.653 160.291 Q189.653 151.541 192.709 146.958 Q195.787 142.351 201.598 142.351 Z" fill="#000000" fill-rule="nonzero" fill-opacity="1"></path><path clip-path="url(#clip960)" d="M16.4842 1062.01 L16.4842 1021.81 L21.895 1021.81 L21.895 1038.68 L64.0042 1038.68 L64.0042 1045.14 L21.895 1045.14 L21.895 1062.01 L16.4842 1062.01 Z" fill="#000000" fill-rule="nonzero" fill-opacity="1"></path><path clip-path="url(#clip960)" d="M33.8307 1004.78 Q33.2578 1005.77 33.0032 1006.95 Q32.7167 1008.09 32.7167 1009.49 Q32.7167 1014.46 35.9632 1017.13 Q39.1779 1019.77 45.2253 1019.77 L64.0042 1019.77 L64.0042 1025.66 L28.3562 1025.66 L28.3562 1019.77 L33.8944 1019.77 Q30.6479 1017.93 29.0883 1014.97 Q27.4968 1012.01 27.4968 1007.77 Q27.4968 1007.17 27.5923 1006.44 Q27.656 1005.71 27.8151 1004.81 L33.8307 1004.78 Z" fill="#000000" fill-rule="nonzero" fill-opacity="1"></path><path clip-path="url(#clip960)" d="M49.9359 999.245 L28.3562 999.245 L28.3562 993.388 L49.7131 993.388 Q54.7739 993.388 57.3202 991.415 Q59.8346 989.442 59.8346 985.495 Q59.8346 980.753 56.8109 978.015 Q53.7872 975.246 48.5673 975.246 L28.3562 975.246 L28.3562 969.39 L64.0042 969.39 L64.0042 975.246 L58.5296 975.246 Q61.7762 977.379 63.3676 980.211 Q64.9272 983.012 64.9272 986.736 Q64.9272 992.879 61.1078 996.062 Q57.2883 999.245 49.9359 999.245 M27.4968 984.508 L27.4968 984.508 Z" fill="#000000" fill-rule="nonzero" fill-opacity="1"></path><path clip-path="url(#clip960)" d="M44.7161 926.835 L47.5806 926.835 L47.5806 953.762 Q53.6281 953.38 56.8109 950.133 Q59.9619 946.855 59.9619 941.031 Q59.9619 937.657 59.1344 934.506 Q58.3069 931.323 56.6518 928.204 L62.1899 928.204 Q63.5267 931.355 64.227 934.665 Q64.9272 937.975 64.9272 941.381 Q64.9272 949.911 59.9619 954.908 Q54.9967 959.873 46.5303 959.873 Q37.7774 959.873 32.6531 955.162 Q27.4968 950.42 27.4968 942.399 Q27.4968 935.206 32.1438 931.036 Q36.7589 926.835 44.7161 926.835 M42.9973 932.691 Q38.1912 932.755 35.3266 935.397 Q32.4621 938.007 32.4621 942.335 Q32.4621 947.237 35.2312 950.197 Q38.0002 953.125 43.0292 953.571 L42.9973 932.691 Z" fill="#000000" fill-rule="nonzero" fill-opacity="1"></path><path clip-path="url(#clip960)" d="M21.7677 889.818 L39.6235 889.818 L39.6235 881.734 Q39.6235 877.246 37.3 874.795 Q34.9765 872.345 30.6797 872.345 Q26.4147 872.345 24.0912 874.795 Q21.7677 877.246 21.7677 881.734 L21.7677 889.818 M16.4842 896.248 L16.4842 881.734 Q16.4842 873.745 20.1126 869.671 Q23.7092 865.565 30.6797 865.565 Q37.7138 865.565 41.3104 869.671 Q44.907 873.745 44.907 881.734 L44.907 889.818 L64.0042 889.818 L64.0042 896.248 L16.4842 896.248 Z" fill="#000000" fill-rule="nonzero" fill-opacity="1"></path><path clip-path="url(#clip960)" d="M32.4621 845.704 Q32.4621 850.415 36.1542 853.152 Q39.8145 855.889 46.212 855.889 Q52.6095 855.889 56.3017 853.184 Q59.9619 850.447 59.9619 845.704 Q59.9619 841.025 56.2698 838.288 Q52.5777 835.551 46.212 835.551 Q39.8781 835.551 36.186 838.288 Q32.4621 841.025 32.4621 845.704 M27.4968 845.704 Q27.4968 838.065 32.4621 833.705 Q37.4273 829.344 46.212 829.344 Q54.9649 829.344 59.9619 833.705 Q64.9272 838.065 64.9272 845.704 Q64.9272 853.375 59.9619 857.735 Q54.9649 862.064 46.212 862.064 Q37.4273 862.064 32.4621 857.735 Q27.4968 853.375 27.4968 845.704 Z" fill="#000000" fill-rule="nonzero" fill-opacity="1"></path><path clip-path="url(#clip960)" d="M29.4065 796.911 L34.9447 796.911 Q33.6716 799.394 33.035 802.067 Q32.3984 804.741 32.3984 807.605 Q32.3984 811.966 33.7352 814.162 Q35.072 816.326 37.7456 816.326 Q39.7826 816.326 40.9603 814.767 Q42.1061 813.207 43.1565 808.497 L43.6021 806.491 Q44.9389 800.253 47.3897 797.643 Q49.8086 795.001 54.1691 795.001 Q59.1344 795.001 62.0308 798.948 Q64.9272 802.863 64.9272 809.738 Q64.9272 812.602 64.3543 815.722 Q63.8132 818.809 62.6992 822.246 L56.6518 822.246 Q58.3387 819 59.198 815.849 Q60.0256 812.698 60.0256 809.611 Q60.0256 805.473 58.6251 803.245 Q57.1929 801.017 54.6147 801.017 Q52.2276 801.017 50.9545 802.64 Q49.6813 804.231 48.5037 809.674 L48.0262 811.711 Q46.8804 817.154 44.5251 819.573 Q42.138 821.992 38.0002 821.992 Q32.9713 821.992 30.2341 818.427 Q27.4968 814.862 27.4968 808.306 Q27.4968 805.059 27.9743 802.194 Q28.4517 799.33 29.4065 796.911 Z" fill="#000000" fill-rule="nonzero" fill-opacity="1"></path><path clip-path="url(#clip960)" d="M28.3562 785.675 L28.3562 779.819 L64.0042 779.819 L64.0042 785.675 L28.3562 785.675 M14.479 785.675 L14.479 779.819 L21.895 779.819 L21.895 785.675 L14.479 785.675 Z" fill="#000000" fill-rule="nonzero" fill-opacity="1"></path><path clip-path="url(#clip960)" d="M18.2347 761.772 L28.3562 761.772 L28.3562 749.709 L32.9077 749.709 L32.9077 761.772 L52.2594 761.772 Q56.6199 761.772 57.8613 760.595 Q59.1026 759.385 59.1026 755.725 L59.1026 749.709 L64.0042 749.709 L64.0042 755.725 Q64.0042 762.504 61.4897 765.082 Q58.9434 767.661 52.2594 767.661 L32.9077 767.661 L32.9077 771.957 L28.3562 771.957 L28.3562 767.661 L18.2347 767.661 L18.2347 761.772 Z" fill="#000000" fill-rule="nonzero" fill-opacity="1"></path><path clip-path="url(#clip960)" d="M28.3562 742.007 L28.3562 736.15 L64.0042 736.15 L64.0042 742.007 L28.3562 742.007 M14.479 742.007 L14.479 736.15 L21.895 736.15 L21.895 742.007 L14.479 742.007 Z" fill="#000000" fill-rule="nonzero" fill-opacity="1"></path><path clip-path="url(#clip960)" d="M28.3562 728.098 L28.3562 721.891 L58.275 710.751 L28.3562 699.611 L28.3562 693.405 L64.0042 706.773 L64.0042 714.73 L28.3562 728.098 Z" fill="#000000" fill-rule="nonzero" fill-opacity="1"></path><path clip-path="url(#clip960)" d="M44.7161 654.828 L47.5806 654.828 L47.5806 681.755 Q53.6281 681.373 56.8109 678.127 Q59.9619 674.849 59.9619 669.024 Q59.9619 665.65 59.1344 662.499 Q58.3069 659.316 56.6518 656.197 L62.1899 656.197 Q63.5267 659.348 64.227 662.658 Q64.9272 665.968 64.9272 669.374 Q64.9272 677.904 59.9619 682.901 Q54.9967 687.866 46.5303 687.866 Q37.7774 687.866 32.6531 683.156 Q27.4968 678.413 27.4968 670.393 Q27.4968 663.199 32.1438 659.03 Q36.7589 654.828 44.7161 654.828 M42.9973 660.685 Q38.1912 660.748 35.3266 663.39 Q32.4621 666 32.4621 670.329 Q32.4621 675.23 35.2312 678.19 Q38.0002 681.119 43.0292 681.564 L42.9973 660.685 Z" fill="#000000" fill-rule="nonzero" fill-opacity="1"></path><path clip-path="url(#clip960)" d="M41.7242 601.707 Q42.4244 599.638 44.7161 597.696 Q47.0077 595.723 51.0181 593.749 L64.0042 587.225 L64.0042 594.131 L51.8138 600.211 Q47.0395 602.566 45.48 604.794 Q43.9204 606.99 43.9204 610.809 L43.9204 617.812 L64.0042 617.812 L64.0042 624.241 L16.4842 624.241 L16.4842 609.727 Q16.4842 601.579 19.8898 597.569 Q23.2955 593.558 30.1704 593.558 Q34.6582 593.558 37.6183 595.659 Q40.5784 597.728 41.7242 601.707 M21.7677 617.812 L38.6368 617.812 L38.6368 609.727 Q38.6368 605.08 36.5043 602.725 Q34.34 600.338 30.1704 600.338 Q26.0009 600.338 23.9002 602.725 Q21.7677 605.08 21.7677 609.727 L21.7677 617.812 Z" fill="#000000" fill-rule="nonzero" fill-opacity="1"></path><path clip-path="url(#clip960)" d="M46.0847 564.435 Q46.0847 571.533 47.7079 574.27 Q49.3312 577.008 53.2461 577.008 Q56.3653 577.008 58.2114 574.971 Q60.0256 572.902 60.0256 569.369 Q60.0256 564.499 56.5881 561.571 Q53.1188 558.611 47.3897 558.611 L46.0847 558.611 L46.0847 564.435 M43.6657 552.754 L64.0042 552.754 L64.0042 558.611 L58.5933 558.611 Q61.8398 560.616 63.3994 563.608 Q64.9272 566.6 64.9272 570.928 Q64.9272 576.403 61.8716 579.649 Q58.7843 582.864 53.6281 582.864 Q47.6125 582.864 44.5569 578.854 Q41.5014 574.811 41.5014 566.822 L41.5014 558.611 L40.9285 558.611 Q36.8862 558.611 34.6901 561.284 Q32.4621 563.926 32.4621 568.732 Q32.4621 571.788 33.1941 574.684 Q33.9262 577.581 35.3903 580.254 L29.9795 580.254 Q28.7381 577.039 28.1334 574.016 Q27.4968 570.992 27.4968 568.127 Q27.4968 560.393 31.5072 556.574 Q35.5176 552.754 43.6657 552.754 Z" fill="#000000" fill-rule="nonzero" fill-opacity="1"></path><path clip-path="url(#clip960)" d="M18.2347 534.898 L28.3562 534.898 L28.3562 522.835 L32.9077 522.835 L32.9077 534.898 L52.2594 534.898 Q56.6199 534.898 57.8613 533.721 Q59.1026 532.511 59.1026 528.851 L59.1026 522.835 L64.0042 522.835 L64.0042 528.851 Q64.0042 535.63 61.4897 538.209 Q58.9434 540.787 52.2594 540.787 L32.9077 540.787 L32.9077 545.084 L28.3562 545.084 L28.3562 540.787 L18.2347 540.787 L18.2347 534.898 Z" fill="#000000" fill-rule="nonzero" fill-opacity="1"></path><path clip-path="url(#clip960)" d="M44.7161 484.641 L47.5806 484.641 L47.5806 511.568 Q53.6281 511.186 56.8109 507.94 Q59.9619 504.661 59.9619 498.837 Q59.9619 495.463 59.1344 492.312 Q58.3069 489.129 56.6518 486.01 L62.1899 486.01 Q63.5267 489.161 64.227 492.471 Q64.9272 495.781 64.9272 499.187 Q64.9272 507.717 59.9619 512.714 Q54.9967 517.679 46.5303 517.679 Q37.7774 517.679 32.6531 512.969 Q27.4968 508.226 27.4968 500.205 Q27.4968 493.012 32.1438 488.843 Q36.7589 484.641 44.7161 484.641 M42.9973 490.498 Q38.1912 490.561 35.3266 493.203 Q32.4621 495.813 32.4621 500.142 Q32.4621 505.043 35.2312 508.003 Q38.0002 510.932 43.0292 511.377 L42.9973 490.498 Z" fill="#000000" fill-rule="nonzero" fill-opacity="1"></path><path clip-path="url(#clip960)" d="M807.323 16.7545 L807.323 25.383 Q803.192 21.5346 798.493 19.6307 Q793.834 17.7268 788.568 17.7268 Q778.197 17.7268 772.688 24.0867 Q767.179 30.4061 767.179 42.3968 Q767.179 54.3469 772.688 60.7069 Q778.197 67.0263 788.568 67.0263 Q793.834 67.0263 798.493 65.1223 Q803.192 63.2184 807.323 59.3701 L807.323 67.9175 Q803.03 70.8341 798.209 72.2924 Q793.429 73.7508 788.082 73.7508 Q774.349 73.7508 766.45 65.3654 Q758.551 56.9395 758.551 42.3968 Q758.551 27.8135 766.45 19.4281 Q774.349 11.0023 788.082 11.0023 Q793.51 11.0023 798.29 12.4606 Q803.111 13.8784 807.323 16.7545 Z" fill="#000000" fill-rule="nonzero" fill-opacity="1"></path><path clip-path="url(#clip960)" d="M818.869 54.671 L818.869 27.2059 L826.322 27.2059 L826.322 54.3874 Q826.322 60.8284 828.834 64.0691 Q831.345 67.2693 836.368 67.2693 Q842.404 67.2693 845.888 63.421 Q849.412 59.5726 849.412 52.9291 L849.412 27.2059 L856.866 27.2059 L856.866 72.576 L849.412 72.576 L849.412 65.6084 Q846.698 69.7404 843.093 71.7658 Q839.528 73.7508 834.789 73.7508 Q826.97 73.7508 822.919 68.8897 Q818.869 64.0286 818.869 54.671 M837.624 26.1121 L837.624 26.1121 Z" fill="#000000" fill-rule="nonzero" fill-opacity="1"></path><path clip-path="url(#clip960)" d="M898.509 34.1734 Q897.254 33.4443 895.755 33.1202 Q894.296 32.7556 892.514 32.7556 Q886.195 32.7556 882.792 36.8875 Q879.43 40.9789 879.43 48.6757 L879.43 72.576 L871.935 72.576 L871.935 27.2059 L879.43 27.2059 L879.43 34.2544 Q881.779 30.1225 885.546 28.1376 Q889.314 26.1121 894.701 26.1121 Q895.471 26.1121 896.403 26.2337 Q897.335 26.3147 898.469 26.5172 L898.509 34.1734 Z" fill="#000000" fill-rule="nonzero" fill-opacity="1"></path><path clip-path="url(#clip960)" d="M900.98 27.2059 L908.88 27.2059 L923.058 65.2844 L937.236 27.2059 L945.135 27.2059 L928.121 72.576 L917.994 72.576 L900.98 27.2059 Z" fill="#000000" fill-rule="nonzero" fill-opacity="1"></path><path clip-path="url(#clip960)" d="M976.044 49.7694 Q967.01 49.7694 963.526 51.8354 Q960.043 53.9013 960.043 58.8839 Q960.043 62.8538 962.635 65.2034 Q965.268 67.5124 969.765 67.5124 Q975.963 67.5124 979.689 63.1374 Q983.457 58.7219 983.457 51.4303 L983.457 49.7694 L976.044 49.7694 M990.91 46.6907 L990.91 72.576 L983.457 72.576 L983.457 65.6895 Q980.905 69.8214 977.097 71.8063 Q973.289 73.7508 967.78 73.7508 Q960.812 73.7508 956.68 69.8619 Q952.589 65.9325 952.589 59.3701 Q952.589 51.7138 957.693 47.825 Q962.838 43.9361 973.005 43.9361 L983.457 43.9361 L983.457 43.2069 Q983.457 38.0623 980.054 35.2672 Q976.692 32.4315 970.575 32.4315 Q966.686 32.4315 963 33.3632 Q959.313 34.295 955.911 36.1584 L955.911 29.2718 Q960.002 27.692 963.85 26.9223 Q967.699 26.1121 971.345 26.1121 Q981.188 26.1121 986.049 31.2163 Q990.91 36.3204 990.91 46.6907 Z" fill="#000000" fill-rule="nonzero" fill-opacity="1"></path><path clip-path="url(#clip960)" d="M1061.64 44.2197 Q1064.27 45.1109 1066.74 48.0275 Q1069.25 50.9442 1071.77 56.0483 L1080.07 72.576 L1071.28 72.576 L1063.54 57.061 Q1060.55 50.9847 1057.71 48.9997 Q1054.91 47.0148 1050.05 47.0148 L1041.14 47.0148 L1041.14 72.576 L1032.96 72.576 L1032.96 12.096 L1051.43 12.096 Q1061.8 12.096 1066.91 16.4305 Q1072.01 20.7649 1072.01 29.5149 Q1072.01 35.2267 1069.34 38.994 Q1066.7 42.7613 1061.64 44.2197 M1041.14 18.8205 L1041.14 40.2903 L1051.43 40.2903 Q1057.35 40.2903 1060.34 37.5762 Q1063.38 34.8216 1063.38 29.5149 Q1063.38 24.2082 1060.34 21.5346 Q1057.35 18.8205 1051.43 18.8205 L1041.14 18.8205 Z" fill="#000000" fill-rule="nonzero" fill-opacity="1"></path><path clip-path="url(#clip960)" d="M1115.15 17.6457 Q1106.24 17.6457 1100.97 24.2892 Q1095.75 30.9327 1095.75 42.3968 Q1095.75 53.8203 1100.97 60.4638 Q1106.24 67.1073 1115.15 67.1073 Q1124.06 67.1073 1129.25 60.4638 Q1134.47 53.8203 1134.47 42.3968 Q1134.47 30.9327 1129.25 24.2892 Q1124.06 17.6457 1115.15 17.6457 M1115.15 11.0023 Q1127.87 11.0023 1135.49 19.5497 Q1143.1 28.0566 1143.1 42.3968 Q1143.1 56.6965 1135.49 65.2439 Q1127.87 73.7508 1115.15 73.7508 Q1102.39 73.7508 1094.74 65.2439 Q1087.12 56.737 1087.12 42.3968 Q1087.12 28.0566 1094.74 19.5497 Q1102.39 11.0023 1115.15 11.0023 Z" fill="#000000" fill-rule="nonzero" fill-opacity="1"></path><path clip-path="url(#clip960)" d="M1201.19 16.7545 L1201.19 25.383 Q1197.06 21.5346 1192.36 19.6307 Q1187.7 17.7268 1182.44 17.7268 Q1172.07 17.7268 1166.56 24.0867 Q1161.05 30.4061 1161.05 42.3968 Q1161.05 54.3469 1166.56 60.7069 Q1172.07 67.0263 1182.44 67.0263 Q1187.7 67.0263 1192.36 65.1223 Q1197.06 63.2184 1201.19 59.3701 L1201.19 67.9175 Q1196.9 70.8341 1192.08 72.2924 Q1187.3 73.7508 1181.95 73.7508 Q1168.22 73.7508 1160.32 65.3654 Q1152.42 56.9395 1152.42 42.3968 Q1152.42 27.8135 1160.32 19.4281 Q1168.22 11.0023 1181.95 11.0023 Q1187.38 11.0023 1192.16 12.4606 Q1196.98 13.8784 1201.19 16.7545 Z" fill="#000000" fill-rule="nonzero" fill-opacity="1"></path><path clip-path="url(#clip960)" d="M1247.09 65.7705 L1247.09 89.8329 L1239.6 89.8329 L1239.6 27.2059 L1247.09 27.2059 L1247.09 34.0924 Q1249.44 30.0415 1253 28.0971 Q1256.61 26.1121 1261.59 26.1121 Q1269.86 26.1121 1275 32.6746 Q1280.19 39.2371 1280.19 49.9314 Q1280.19 60.6258 1275 67.1883 Q1269.86 73.7508 1261.59 73.7508 Q1256.61 73.7508 1253 71.8063 Q1249.44 69.8214 1247.09 65.7705 M1272.45 49.9314 Q1272.45 41.7081 1269.05 37.0496 Q1265.68 32.3505 1259.77 32.3505 Q1253.85 32.3505 1250.45 37.0496 Q1247.09 41.7081 1247.09 49.9314 Q1247.09 58.1548 1250.45 62.8538 Q1253.85 67.5124 1259.77 67.5124 Q1265.68 67.5124 1269.05 62.8538 Q1272.45 58.1548 1272.45 49.9314 Z" fill="#000000" fill-rule="nonzero" fill-opacity="1"></path><path clip-path="url(#clip960)" d="M1313.16 49.7694 Q1304.13 49.7694 1300.64 51.8354 Q1297.16 53.9013 1297.16 58.8839 Q1297.16 62.8538 1299.75 65.2034 Q1302.38 67.5124 1306.88 67.5124 Q1313.08 67.5124 1316.81 63.1374 Q1320.57 58.7219 1320.57 51.4303 L1320.57 49.7694 L1313.16 49.7694 M1328.03 46.6907 L1328.03 72.576 L1320.57 72.576 L1320.57 65.6895 Q1318.02 69.8214 1314.21 71.8063 Q1310.41 73.7508 1304.9 73.7508 Q1297.93 73.7508 1293.8 69.8619 Q1289.71 65.9325 1289.71 59.3701 Q1289.71 51.7138 1294.81 47.825 Q1299.95 43.9361 1310.12 43.9361 L1320.57 43.9361 L1320.57 43.2069 Q1320.57 38.0623 1317.17 35.2672 Q1313.81 32.4315 1307.69 32.4315 Q1303.8 32.4315 1300.12 33.3632 Q1296.43 34.295 1293.03 36.1584 L1293.03 29.2718 Q1297.12 27.692 1300.97 26.9223 Q1304.82 26.1121 1308.46 26.1121 Q1318.3 26.1121 1323.17 31.2163 Q1328.03 36.3204 1328.03 46.6907 Z" fill="#000000" fill-rule="nonzero" fill-opacity="1"></path><path clip-path="url(#clip960)" d="M1369.67 34.1734 Q1368.41 33.4443 1366.92 33.1202 Q1365.46 32.7556 1363.67 32.7556 Q1357.36 32.7556 1353.95 36.8875 Q1350.59 40.9789 1350.59 48.6757 L1350.59 72.576 L1343.1 72.576 L1343.1 27.2059 L1350.59 27.2059 L1350.59 34.2544 Q1352.94 30.1225 1356.71 28.1376 Q1360.47 26.1121 1365.86 26.1121 Q1366.63 26.1121 1367.56 26.2337 Q1368.5 26.3147 1369.63 26.5172 L1369.67 34.1734 Z" fill="#000000" fill-rule="nonzero" fill-opacity="1"></path><path clip-path="url(#clip960)" d="M1398.11 49.7694 Q1389.07 49.7694 1385.59 51.8354 Q1382.11 53.9013 1382.11 58.8839 Q1382.11 62.8538 1384.7 65.2034 Q1387.33 67.5124 1391.83 67.5124 Q1398.03 67.5124 1401.75 63.1374 Q1405.52 58.7219 1405.52 51.4303 L1405.52 49.7694 L1398.11 49.7694 M1412.97 46.6907 L1412.97 72.576 L1405.52 72.576 L1405.52 65.6895 Q1402.97 69.8214 1399.16 71.8063 Q1395.35 73.7508 1389.84 73.7508 Q1382.88 73.7508 1378.74 69.8619 Q1374.65 65.9325 1374.65 59.3701 Q1374.65 51.7138 1379.76 47.825 Q1384.9 43.9361 1395.07 43.9361 L1405.52 43.9361 L1405.52 43.2069 Q1405.52 38.0623 1402.12 35.2672 Q1398.76 32.4315 1392.64 32.4315 Q1388.75 32.4315 1385.06 33.3632 Q1381.38 34.295 1377.97 36.1584 L1377.97 29.2718 Q1382.07 27.692 1385.91 26.9223 Q1389.76 26.1121 1393.41 26.1121 Q1403.25 26.1121 1408.11 31.2163 Q1412.97 36.3204 1412.97 46.6907 Z" fill="#000000" fill-rule="nonzero" fill-opacity="1"></path><path clip-path="url(#clip960)" d="M1455.02 12.096 L1467.22 12.096 L1482.65 53.2532 L1498.16 12.096 L1510.36 12.096 L1510.36 72.576 L1502.38 72.576 L1502.38 19.4686 L1486.78 60.9499 L1478.56 60.9499 L1462.96 19.4686 L1462.96 72.576 L1455.02 72.576 L1455.02 12.096 Z" fill="#000000" fill-rule="nonzero" fill-opacity="1"></path><path clip-path="url(#clip960)" d="M1560.75 65.6895 L1589.31 65.6895 L1589.31 72.576 L1550.91 72.576 L1550.91 65.6895 Q1555.57 60.8689 1563.59 52.7671 Q1571.65 44.6248 1573.71 42.2752 Q1577.64 37.8598 1579.18 34.8216 Q1580.76 31.7429 1580.76 28.7857 Q1580.76 23.9651 1577.36 20.927 Q1574 17.8888 1568.57 17.8888 Q1564.72 17.8888 1560.43 19.2256 Q1556.17 20.5624 1551.31 23.2765 L1551.31 15.0127 Q1556.25 13.0277 1560.55 12.015 Q1564.84 11.0023 1568.41 11.0023 Q1577.81 11.0023 1583.4 15.7013 Q1588.99 20.4004 1588.99 28.2591 Q1588.99 31.9859 1587.57 35.3482 Q1586.19 38.6699 1582.5 43.2069 Q1581.49 44.3817 1576.06 50.0125 Q1570.64 55.6027 1560.75 65.6895 Z" fill="#000000" fill-rule="nonzero" fill-opacity="1"></path><path clip-path="url(#clip960)" d="M1640.31 18.8205 L1640.31 65.8515 L1650.2 65.8515 Q1662.71 65.8515 1668.51 60.1802 Q1674.34 54.509 1674.34 42.2752 Q1674.34 30.1225 1668.51 24.4918 Q1662.71 18.8205 1650.2 18.8205 L1640.31 18.8205 M1632.13 12.096 L1648.94 12.096 Q1666.52 12.096 1674.74 19.4281 Q1682.97 26.7198 1682.97 42.2752 Q1682.97 57.9117 1674.7 65.2439 Q1666.44 72.576 1648.94 72.576 L1632.13 72.576 L1632.13 12.096 Z" fill="#000000" fill-rule="nonzero" fill-opacity="1"></path><path clip-path="url(#clip960)" d="M1713.59 9.62495 Q1708.16 18.942 1705.53 28.0566 Q1702.9 37.1711 1702.9 46.5287 Q1702.9 55.8863 1705.53 65.0818 Q1708.2 74.2369 1713.59 83.5134 L1707.11 83.5134 Q1701.03 73.9938 1698 64.7983 Q1695 55.6027 1695 46.5287 Q1695 37.4952 1698 28.3401 Q1700.99 19.1851 1707.11 9.62495 L1713.59 9.62495 Z" fill="#000000" fill-rule="nonzero" fill-opacity="1"></path><path clip-path="url(#clip960)" d="M1760.7 28.9478 L1760.7 35.9153 Q1757.54 34.1734 1754.34 33.3227 Q1751.18 32.4315 1747.94 32.4315 Q1740.69 32.4315 1736.68 37.0496 Q1732.67 41.6271 1732.67 49.9314 Q1732.67 58.2358 1736.68 62.8538 Q1740.69 67.4314 1747.94 67.4314 Q1751.18 67.4314 1754.34 66.5807 Q1757.54 65.6895 1760.7 63.9476 L1760.7 70.8341 Q1757.58 72.2924 1754.22 73.0216 Q1750.9 73.7508 1747.13 73.7508 Q1736.88 73.7508 1730.85 67.3098 Q1724.81 60.8689 1724.81 49.9314 Q1724.81 38.832 1730.89 32.472 Q1737.01 26.1121 1747.62 26.1121 Q1751.06 26.1121 1754.34 26.8413 Q1757.63 27.5299 1760.7 28.9478 Z" fill="#000000" fill-rule="nonzero" fill-opacity="1"></path><path clip-path="url(#clip960)" d="M1806.24 49.9314 Q1806.24 41.7081 1802.83 37.0496 Q1799.47 32.3505 1793.56 32.3505 Q1787.64 32.3505 1784.24 37.0496 Q1780.88 41.7081 1780.88 49.9314 Q1780.88 58.1548 1784.24 62.8538 Q1787.64 67.5124 1793.56 67.5124 Q1799.47 67.5124 1802.83 62.8538 Q1806.24 58.1548 1806.24 49.9314 M1780.88 34.0924 Q1783.23 30.0415 1786.79 28.0971 Q1790.4 26.1121 1795.38 26.1121 Q1803.64 26.1121 1808.79 32.6746 Q1813.97 39.2371 1813.97 49.9314 Q1813.97 60.6258 1808.79 67.1883 Q1803.64 73.7508 1795.38 73.7508 Q1790.4 73.7508 1786.79 71.8063 Q1783.23 69.8214 1780.88 65.7705 L1780.88 72.576 L1773.38 72.576 L1773.38 9.54393 L1780.88 9.54393 L1780.88 34.0924 Z" fill="#000000" fill-rule="nonzero" fill-opacity="1"></path><path clip-path="url(#clip960)" d="M1825.15 9.62495 L1831.64 9.62495 Q1837.71 19.1851 1840.71 28.3401 Q1843.75 37.4952 1843.75 46.5287 Q1843.75 55.6027 1840.71 64.7983 Q1837.71 73.9938 1831.64 83.5134 L1825.15 83.5134 Q1830.54 74.2369 1833.17 65.0818 Q1835.85 55.8863 1835.85 46.5287 Q1835.85 37.1711 1833.17 28.0566 Q1830.54 18.942 1825.15 9.62495 Z" fill="#000000" fill-rule="nonzero" fill-opacity="1"></path><polyline clip-path="url(#clip962)" style="stroke:#0000ff; stroke-linecap:round; stroke-linejoin:round; stroke-width:8; stroke-opacity:1; fill:none" points="309.067,1386.4 309.067,1363.48 309.067,1352.02 309.067,1340.56 309.067,1329.1 309.067,1317.64 309.067,1306.18 309.067,1294.72 309.067,1283.26 317.965,1283.26 326.862,1283.26 326.862,1248.88 344.657,1214.51 344.657,1191.59 362.453,1168.67 371.35,1157.21 371.35,1145.75 371.35,1134.29 371.35,1122.83 380.248,1122.83 433.633,1042.62 433.633,1031.16 442.531,1031.16 478.121,1008.24 478.121,996.781 487.019,973.863 504.814,973.863 513.712,973.863 513.712,962.404 513.712,950.944 522.609,950.944 531.507,928.026 540.404,916.567 558.2,916.567 584.892,905.107 611.585,882.189 638.278,847.811 647.176,847.811 664.971,847.811 673.868,847.811 673.868,836.352 700.561,824.893 709.459,801.974 736.152,779.056 745.049,779.056 753.947,744.678 816.23,710.3 834.025,710.3 923.001,595.708 967.489,595.708 985.284,584.248 1029.77,561.33 1038.67,549.871 1038.67,538.411 1047.57,538.411 1074.26,504.034 1092.06,504.034 1145.44,504.034 1154.34,481.115 1163.24,481.115 1234.42,446.737 1590.32,355.063 1590.32,343.604 1892.84,263.39 1955.12,240.471 1972.92,229.012 1981.82,229.012 1990.71,217.553 2026.3,206.093 2061.89,183.175 2070.79,183.175 2097.48,183.175 2248.74,160.256 2293.23,160.256 "></polyline>
<polyline clip-path="url(#clip962)" style="stroke:#008000; stroke-linecap:round; stroke-linejoin:round; stroke-width:8; stroke-opacity:1; fill:none" points="362.453,1225.97 771.742,721.759 2230.95,206.093 2293.23,160.256 "></polyline>
<polyline clip-path="url(#clip962)" style="stroke:#ff0000; stroke-linecap:round; stroke-linejoin:round; stroke-width:8; stroke-opacity:1; fill:none" points="309.067,1386.4 309.067,1374.94 309.067,1352.02 309.067,1317.64 309.067,1306.18 317.965,1271.8 326.862,1260.34 344.657,1225.97 344.657,1214.51 362.453,1180.13 371.35,1145.75 398.043,1134.29 415.838,1054.08 451.428,996.781 460.326,962.404 460.326,950.944 469.224,939.485 540.404,882.189 629.38,767.596 638.278,767.596 638.278,756.137 647.176,756.137 664.971,744.678 682.766,744.678 816.23,698.841 842.923,687.382 1038.67,618.626 1038.67,607.167 1047.57,607.167 1323.39,515.493 1341.19,481.115 1385.68,458.197 1394.57,458.197 1403.47,458.197 1652.6,400.9 1705.99,400.9 1768.27,377.982 1768.27,355.063 1794.97,320.686 1848.35,309.227 2133.07,251.93 2168.66,240.471 2177.56,240.471 2186.46,240.471 2204.26,229.012 2230.95,194.634 2275.44,183.175 2275.44,171.716 2284.33,160.256 2293.23,160.256 "></polyline>
<polyline clip-path="url(#clip962)" style="stroke:#800080; stroke-linecap:round; stroke-linejoin:round; stroke-width:8; stroke-opacity:1; fill:none" points="309.067,1374.94 309.067,1306.18 353.555,1157.21 575.995,882.189 1412.37,492.574 1972.92,309.227 2239.85,171.716 2284.33,160.256 2293.23,160.256 "></polyline>
<path clip-path="url(#clip960)" d="M319.649 425.996 L774.668 425.996 L774.668 166.796 L319.649 166.796  Z" fill="#ffffff" fill-rule="evenodd" fill-opacity="1"></path>
<polyline clip-path="url(#clip960)" style="stroke:#000000; stroke-linecap:round; stroke-linejoin:round; stroke-width:4; stroke-opacity:1; fill:none" points="319.649,425.996 774.668,425.996 774.668,166.796 319.649,166.796 319.649,425.996 "></polyline>
<polyline clip-path="url(#clip960)" style="stroke:#0000ff; stroke-linecap:round; stroke-linejoin:round; stroke-width:8; stroke-opacity:1; fill:none" points="343.018,218.636 483.232,218.636 "></polyline>
<path clip-path="url(#clip960)" d="M525.375 222.976 Q525.375 218.277 523.43 215.615 Q521.509 212.93 518.129 212.93 Q514.75 212.93 512.805 215.615 Q510.884 218.277 510.884 222.976 Q510.884 227.675 512.805 230.36 Q514.75 233.022 518.129 233.022 Q521.509 233.022 523.43 230.36 Q525.375 227.675 525.375 222.976 M510.884 213.925 Q512.226 211.61 514.264 210.499 Q516.324 209.365 519.171 209.365 Q523.893 209.365 526.833 213.115 Q529.796 216.865 529.796 222.976 Q529.796 229.087 526.833 232.837 Q523.893 236.587 519.171 236.587 Q516.324 236.587 514.264 235.476 Q512.226 234.342 510.884 232.027 L510.884 235.916 L506.602 235.916 L506.602 199.897 L510.884 199.897 L510.884 213.925 Z" fill="#000000" fill-rule="nonzero" fill-opacity="1"></path><path clip-path="url(#clip960)" d="M559.032 221.888 L559.032 223.971 L539.449 223.971 Q539.726 228.369 542.087 230.684 Q544.472 232.976 548.708 232.976 Q551.161 232.976 553.453 232.374 Q555.768 231.772 558.036 230.569 L558.036 234.596 Q555.745 235.568 553.337 236.078 Q550.93 236.587 548.453 236.587 Q542.249 236.587 538.615 232.976 Q535.004 229.365 535.004 223.207 Q535.004 216.842 538.43 213.115 Q541.879 209.365 547.712 209.365 Q552.944 209.365 555.976 212.745 Q559.032 216.101 559.032 221.888 M554.773 220.638 Q554.726 217.143 552.805 215.059 Q550.907 212.976 547.759 212.976 Q544.194 212.976 542.041 214.99 Q539.912 217.004 539.587 220.661 L554.773 220.638 Z" fill="#000000" fill-rule="nonzero" fill-opacity="1"></path><path clip-path="url(#clip960)" d="M570.235 202.629 L570.235 209.99 L579.009 209.99 L579.009 213.3 L570.235 213.3 L570.235 227.374 Q570.235 230.545 571.092 231.448 Q571.972 232.351 574.634 232.351 L579.009 232.351 L579.009 235.916 L574.634 235.916 Q569.703 235.916 567.828 234.087 Q565.953 232.235 565.953 227.374 L565.953 213.3 L562.828 213.3 L562.828 209.99 L565.953 209.99 L565.953 202.629 L570.235 202.629 Z" fill="#000000" fill-rule="nonzero" fill-opacity="1"></path><path clip-path="url(#clip960)" d="M596.393 222.883 Q591.231 222.883 589.24 224.064 Q587.249 225.244 587.249 228.092 Q587.249 230.36 588.731 231.703 Q590.235 233.022 592.805 233.022 Q596.346 233.022 598.476 230.522 Q600.629 227.999 600.629 223.832 L600.629 222.883 L596.393 222.883 M604.888 221.124 L604.888 235.916 L600.629 235.916 L600.629 231.981 Q599.17 234.342 596.995 235.476 Q594.819 236.587 591.67 236.587 Q587.689 236.587 585.328 234.365 Q582.99 232.119 582.99 228.369 Q582.99 223.994 585.907 221.772 Q588.846 219.55 594.657 219.55 L600.629 219.55 L600.629 219.133 Q600.629 216.194 598.684 214.596 Q596.763 212.976 593.268 212.976 Q591.045 212.976 588.939 213.508 Q586.833 214.041 584.888 215.106 L584.888 211.17 Q587.226 210.268 589.425 209.828 Q591.624 209.365 593.708 209.365 Q599.332 209.365 602.11 212.282 Q604.888 215.198 604.888 221.124 Z" fill="#000000" fill-rule="nonzero" fill-opacity="1"></path><path clip-path="url(#clip960)" d="M629.286 214.388 L658.962 214.388 L658.962 218.277 L629.286 218.277 L629.286 214.388 M629.286 223.832 L658.962 223.832 L658.962 227.768 L629.286 227.768 L629.286 223.832 Z" fill="#000000" fill-rule="nonzero" fill-opacity="1"></path><path clip-path="url(#clip960)" d="M694.124 204.434 Q690.513 204.434 688.684 207.999 Q686.878 211.541 686.878 218.67 Q686.878 225.777 688.684 229.342 Q690.513 232.883 694.124 232.883 Q697.758 232.883 699.563 229.342 Q701.392 225.777 701.392 218.67 Q701.392 211.541 699.563 207.999 Q697.758 204.434 694.124 204.434 M694.124 200.731 Q699.934 200.731 702.989 205.337 Q706.068 209.92 706.068 218.67 Q706.068 227.397 702.989 232.004 Q699.934 236.587 694.124 236.587 Q688.313 236.587 685.235 232.004 Q682.179 227.397 682.179 218.67 Q682.179 209.92 685.235 205.337 Q688.313 200.731 694.124 200.731 Z" fill="#000000" fill-rule="nonzero" fill-opacity="1"></path><path clip-path="url(#clip960)" d="M714.286 230.036 L719.17 230.036 L719.17 235.916 L714.286 235.916 L714.286 230.036 Z" fill="#000000" fill-rule="nonzero" fill-opacity="1"></path><path clip-path="url(#clip960)" d="M730.165 231.981 L737.804 231.981 L737.804 205.615 L729.494 207.282 L729.494 203.022 L737.758 201.356 L742.434 201.356 L742.434 231.981 L750.072 231.981 L750.072 235.916 L730.165 235.916 L730.165 231.981 Z" fill="#000000" fill-rule="nonzero" fill-opacity="1"></path><polyline clip-path="url(#clip960)" style="stroke:#008000; stroke-linecap:round; stroke-linejoin:round; stroke-width:8; stroke-opacity:1; fill:none" points="343.018,270.476 483.232,270.476 "></polyline>
<path clip-path="url(#clip960)" d="M525.375 274.816 Q525.375 270.117 523.43 267.455 Q521.509 264.77 518.129 264.77 Q514.75 264.77 512.805 267.455 Q510.884 270.117 510.884 274.816 Q510.884 279.515 512.805 282.2 Q514.75 284.862 518.129 284.862 Q521.509 284.862 523.43 282.2 Q525.375 279.515 525.375 274.816 M510.884 265.765 Q512.226 263.45 514.264 262.339 Q516.324 261.205 519.171 261.205 Q523.893 261.205 526.833 264.955 Q529.796 268.705 529.796 274.816 Q529.796 280.927 526.833 284.677 Q523.893 288.427 519.171 288.427 Q516.324 288.427 514.264 287.316 Q512.226 286.182 510.884 283.867 L510.884 287.756 L506.602 287.756 L506.602 251.737 L510.884 251.737 L510.884 265.765 Z" fill="#000000" fill-rule="nonzero" fill-opacity="1"></path><path clip-path="url(#clip960)" d="M559.032 273.728 L559.032 275.811 L539.449 275.811 Q539.726 280.209 542.087 282.524 Q544.472 284.816 548.708 284.816 Q551.161 284.816 553.453 284.214 Q555.768 283.612 558.036 282.409 L558.036 286.436 Q555.745 287.408 553.337 287.918 Q550.93 288.427 548.453 288.427 Q542.249 288.427 538.615 284.816 Q535.004 281.205 535.004 275.047 Q535.004 268.682 538.43 264.955 Q541.879 261.205 547.712 261.205 Q552.944 261.205 555.976 264.585 Q559.032 267.941 559.032 273.728 M554.773 272.478 Q554.726 268.983 552.805 266.899 Q550.907 264.816 547.759 264.816 Q544.194 264.816 542.041 266.83 Q539.912 268.844 539.587 272.501 L554.773 272.478 Z" fill="#000000" fill-rule="nonzero" fill-opacity="1"></path><path clip-path="url(#clip960)" d="M570.235 254.469 L570.235 261.83 L579.009 261.83 L579.009 265.14 L570.235 265.14 L570.235 279.214 Q570.235 282.385 571.092 283.288 Q571.972 284.191 574.634 284.191 L579.009 284.191 L579.009 287.756 L574.634 287.756 Q569.703 287.756 567.828 285.927 Q565.953 284.075 565.953 279.214 L565.953 265.14 L562.828 265.14 L562.828 261.83 L565.953 261.83 L565.953 254.469 L570.235 254.469 Z" fill="#000000" fill-rule="nonzero" fill-opacity="1"></path><path clip-path="url(#clip960)" d="M596.393 274.723 Q591.231 274.723 589.24 275.904 Q587.249 277.084 587.249 279.932 Q587.249 282.2 588.731 283.543 Q590.235 284.862 592.805 284.862 Q596.346 284.862 598.476 282.362 Q600.629 279.839 600.629 275.672 L600.629 274.723 L596.393 274.723 M604.888 272.964 L604.888 287.756 L600.629 287.756 L600.629 283.821 Q599.17 286.182 596.995 287.316 Q594.819 288.427 591.67 288.427 Q587.689 288.427 585.328 286.205 Q582.99 283.959 582.99 280.209 Q582.99 275.834 585.907 273.612 Q588.846 271.39 594.657 271.39 L600.629 271.39 L600.629 270.973 Q600.629 268.034 598.684 266.436 Q596.763 264.816 593.268 264.816 Q591.045 264.816 588.939 265.348 Q586.833 265.881 584.888 266.946 L584.888 263.01 Q587.226 262.108 589.425 261.668 Q591.624 261.205 593.708 261.205 Q599.332 261.205 602.11 264.122 Q604.888 267.038 604.888 272.964 Z" fill="#000000" fill-rule="nonzero" fill-opacity="1"></path><path clip-path="url(#clip960)" d="M629.286 266.228 L658.962 266.228 L658.962 270.117 L629.286 270.117 L629.286 266.228 M629.286 275.672 L658.962 275.672 L658.962 279.608 L629.286 279.608 L629.286 275.672 Z" fill="#000000" fill-rule="nonzero" fill-opacity="1"></path><path clip-path="url(#clip960)" d="M694.124 256.274 Q690.513 256.274 688.684 259.839 Q686.878 263.381 686.878 270.51 Q686.878 277.617 688.684 281.182 Q690.513 284.723 694.124 284.723 Q697.758 284.723 699.563 281.182 Q701.392 277.617 701.392 270.51 Q701.392 263.381 699.563 259.839 Q697.758 256.274 694.124 256.274 M694.124 252.571 Q699.934 252.571 702.989 257.177 Q706.068 261.76 706.068 270.51 Q706.068 279.237 702.989 283.844 Q699.934 288.427 694.124 288.427 Q688.313 288.427 685.235 283.844 Q682.179 279.237 682.179 270.51 Q682.179 261.76 685.235 257.177 Q688.313 252.571 694.124 252.571 Z" fill="#000000" fill-rule="nonzero" fill-opacity="1"></path><path clip-path="url(#clip960)" d="M714.286 281.876 L719.17 281.876 L719.17 287.756 L714.286 287.756 L714.286 281.876 Z" fill="#000000" fill-rule="nonzero" fill-opacity="1"></path><path clip-path="url(#clip960)" d="M729.401 253.196 L747.758 253.196 L747.758 257.131 L733.684 257.131 L733.684 265.603 Q734.702 265.256 735.721 265.094 Q736.739 264.909 737.758 264.909 Q743.545 264.909 746.924 268.08 Q750.304 271.251 750.304 276.668 Q750.304 282.246 746.832 285.348 Q743.359 288.427 737.04 288.427 Q734.864 288.427 732.596 288.057 Q730.35 287.686 727.943 286.946 L727.943 282.246 Q730.026 283.381 732.248 283.936 Q734.471 284.492 736.947 284.492 Q740.952 284.492 743.29 282.385 Q745.628 280.279 745.628 276.668 Q745.628 273.057 743.29 270.95 Q740.952 268.844 736.947 268.844 Q735.073 268.844 733.198 269.26 Q731.346 269.677 729.401 270.557 L729.401 253.196 Z" fill="#000000" fill-rule="nonzero" fill-opacity="1"></path><polyline clip-path="url(#clip960)" style="stroke:#ff0000; stroke-linecap:round; stroke-linejoin:round; stroke-width:8; stroke-opacity:1; fill:none" points="343.018,322.316 483.232,322.316 "></polyline>
<path clip-path="url(#clip960)" d="M525.375 326.656 Q525.375 321.957 523.43 319.295 Q521.509 316.61 518.129 316.61 Q514.75 316.61 512.805 319.295 Q510.884 321.957 510.884 326.656 Q510.884 331.355 512.805 334.04 Q514.75 336.702 518.129 336.702 Q521.509 336.702 523.43 334.04 Q525.375 331.355 525.375 326.656 M510.884 317.605 Q512.226 315.29 514.264 314.179 Q516.324 313.045 519.171 313.045 Q523.893 313.045 526.833 316.795 Q529.796 320.545 529.796 326.656 Q529.796 332.767 526.833 336.517 Q523.893 340.267 519.171 340.267 Q516.324 340.267 514.264 339.156 Q512.226 338.022 510.884 335.707 L510.884 339.596 L506.602 339.596 L506.602 303.577 L510.884 303.577 L510.884 317.605 Z" fill="#000000" fill-rule="nonzero" fill-opacity="1"></path><path clip-path="url(#clip960)" d="M559.032 325.568 L559.032 327.651 L539.449 327.651 Q539.726 332.049 542.087 334.364 Q544.472 336.656 548.708 336.656 Q551.161 336.656 553.453 336.054 Q555.768 335.452 558.036 334.249 L558.036 338.276 Q555.745 339.248 553.337 339.758 Q550.93 340.267 548.453 340.267 Q542.249 340.267 538.615 336.656 Q535.004 333.045 535.004 326.887 Q535.004 320.522 538.43 316.795 Q541.879 313.045 547.712 313.045 Q552.944 313.045 555.976 316.425 Q559.032 319.781 559.032 325.568 M554.773 324.318 Q554.726 320.823 552.805 318.739 Q550.907 316.656 547.759 316.656 Q544.194 316.656 542.041 318.67 Q539.912 320.684 539.587 324.341 L554.773 324.318 Z" fill="#000000" fill-rule="nonzero" fill-opacity="1"></path><path clip-path="url(#clip960)" d="M570.235 306.309 L570.235 313.67 L579.009 313.67 L579.009 316.98 L570.235 316.98 L570.235 331.054 Q570.235 334.225 571.092 335.128 Q571.972 336.031 574.634 336.031 L579.009 336.031 L579.009 339.596 L574.634 339.596 Q569.703 339.596 567.828 337.767 Q565.953 335.915 565.953 331.054 L565.953 316.98 L562.828 316.98 L562.828 313.67 L565.953 313.67 L565.953 306.309 L570.235 306.309 Z" fill="#000000" fill-rule="nonzero" fill-opacity="1"></path><path clip-path="url(#clip960)" d="M596.393 326.563 Q591.231 326.563 589.24 327.744 Q587.249 328.924 587.249 331.772 Q587.249 334.04 588.731 335.383 Q590.235 336.702 592.805 336.702 Q596.346 336.702 598.476 334.202 Q600.629 331.679 600.629 327.512 L600.629 326.563 L596.393 326.563 M604.888 324.804 L604.888 339.596 L600.629 339.596 L600.629 335.661 Q599.17 338.022 596.995 339.156 Q594.819 340.267 591.67 340.267 Q587.689 340.267 585.328 338.045 Q582.99 335.799 582.99 332.049 Q582.99 327.674 585.907 325.452 Q588.846 323.23 594.657 323.23 L600.629 323.23 L600.629 322.813 Q600.629 319.874 598.684 318.276 Q596.763 316.656 593.268 316.656 Q591.045 316.656 588.939 317.188 Q586.833 317.721 584.888 318.786 L584.888 314.85 Q587.226 313.948 589.425 313.508 Q591.624 313.045 593.708 313.045 Q599.332 313.045 602.11 315.962 Q604.888 318.878 604.888 324.804 Z" fill="#000000" fill-rule="nonzero" fill-opacity="1"></path><path clip-path="url(#clip960)" d="M629.286 318.068 L658.962 318.068 L658.962 321.957 L629.286 321.957 L629.286 318.068 M629.286 327.512 L658.962 327.512 L658.962 331.448 L629.286 331.448 L629.286 327.512 Z" fill="#000000" fill-rule="nonzero" fill-opacity="1"></path><path clip-path="url(#clip960)" d="M684.934 335.661 L692.573 335.661 L692.573 309.295 L684.263 310.962 L684.263 306.702 L692.526 305.036 L697.202 305.036 L697.202 335.661 L704.841 335.661 L704.841 339.596 L684.934 339.596 L684.934 335.661 Z" fill="#000000" fill-rule="nonzero" fill-opacity="1"></path><path clip-path="url(#clip960)" d="M714.286 333.716 L719.17 333.716 L719.17 339.596 L714.286 339.596 L714.286 333.716 Z" fill="#000000" fill-rule="nonzero" fill-opacity="1"></path><path clip-path="url(#clip960)" d="M739.355 308.114 Q735.744 308.114 733.915 311.679 Q732.11 315.221 732.11 322.35 Q732.11 329.457 733.915 333.022 Q735.744 336.563 739.355 336.563 Q742.989 336.563 744.795 333.022 Q746.623 329.457 746.623 322.35 Q746.623 315.221 744.795 311.679 Q742.989 308.114 739.355 308.114 M739.355 304.411 Q745.165 304.411 748.221 309.017 Q751.299 313.6 751.299 322.35 Q751.299 331.077 748.221 335.684 Q745.165 340.267 739.355 340.267 Q733.545 340.267 730.466 335.684 Q727.411 331.077 727.411 322.35 Q727.411 313.6 730.466 309.017 Q733.545 304.411 739.355 304.411 Z" fill="#000000" fill-rule="nonzero" fill-opacity="1"></path><polyline clip-path="url(#clip960)" style="stroke:#800080; stroke-linecap:round; stroke-linejoin:round; stroke-width:8; stroke-opacity:1; fill:none" points="343.018,374.156 483.232,374.156 "></polyline>
<path clip-path="url(#clip960)" d="M525.375 378.496 Q525.375 373.797 523.43 371.135 Q521.509 368.45 518.129 368.45 Q514.75 368.45 512.805 371.135 Q510.884 373.797 510.884 378.496 Q510.884 383.195 512.805 385.88 Q514.75 388.542 518.129 388.542 Q521.509 388.542 523.43 385.88 Q525.375 383.195 525.375 378.496 M510.884 369.445 Q512.226 367.13 514.264 366.019 Q516.324 364.885 519.171 364.885 Q523.893 364.885 526.833 368.635 Q529.796 372.385 529.796 378.496 Q529.796 384.607 526.833 388.357 Q523.893 392.107 519.171 392.107 Q516.324 392.107 514.264 390.996 Q512.226 389.862 510.884 387.547 L510.884 391.436 L506.602 391.436 L506.602 355.417 L510.884 355.417 L510.884 369.445 Z" fill="#000000" fill-rule="nonzero" fill-opacity="1"></path><path clip-path="url(#clip960)" d="M559.032 377.408 L559.032 379.491 L539.449 379.491 Q539.726 383.889 542.087 386.204 Q544.472 388.496 548.708 388.496 Q551.161 388.496 553.453 387.894 Q555.768 387.292 558.036 386.089 L558.036 390.116 Q555.745 391.088 553.337 391.598 Q550.93 392.107 548.453 392.107 Q542.249 392.107 538.615 388.496 Q535.004 384.885 535.004 378.727 Q535.004 372.362 538.43 368.635 Q541.879 364.885 547.712 364.885 Q552.944 364.885 555.976 368.265 Q559.032 371.621 559.032 377.408 M554.773 376.158 Q554.726 372.663 552.805 370.579 Q550.907 368.496 547.759 368.496 Q544.194 368.496 542.041 370.51 Q539.912 372.524 539.587 376.181 L554.773 376.158 Z" fill="#000000" fill-rule="nonzero" fill-opacity="1"></path><path clip-path="url(#clip960)" d="M570.235 358.149 L570.235 365.51 L579.009 365.51 L579.009 368.82 L570.235 368.82 L570.235 382.894 Q570.235 386.065 571.092 386.968 Q571.972 387.871 574.634 387.871 L579.009 387.871 L579.009 391.436 L574.634 391.436 Q569.703 391.436 567.828 389.607 Q565.953 387.755 565.953 382.894 L565.953 368.82 L562.828 368.82 L562.828 365.51 L565.953 365.51 L565.953 358.149 L570.235 358.149 Z" fill="#000000" fill-rule="nonzero" fill-opacity="1"></path><path clip-path="url(#clip960)" d="M596.393 378.403 Q591.231 378.403 589.24 379.584 Q587.249 380.764 587.249 383.612 Q587.249 385.88 588.731 387.223 Q590.235 388.542 592.805 388.542 Q596.346 388.542 598.476 386.042 Q600.629 383.519 600.629 379.352 L600.629 378.403 L596.393 378.403 M604.888 376.644 L604.888 391.436 L600.629 391.436 L600.629 387.501 Q599.17 389.862 596.995 390.996 Q594.819 392.107 591.67 392.107 Q587.689 392.107 585.328 389.885 Q582.99 387.639 582.99 383.889 Q582.99 379.514 585.907 377.292 Q588.846 375.07 594.657 375.07 L600.629 375.07 L600.629 374.653 Q600.629 371.714 598.684 370.116 Q596.763 368.496 593.268 368.496 Q591.045 368.496 588.939 369.028 Q586.833 369.561 584.888 370.626 L584.888 366.69 Q587.226 365.788 589.425 365.348 Q591.624 364.885 593.708 364.885 Q599.332 364.885 602.11 367.802 Q604.888 370.718 604.888 376.644 Z" fill="#000000" fill-rule="nonzero" fill-opacity="1"></path><path clip-path="url(#clip960)" d="M629.286 369.908 L658.962 369.908 L658.962 373.797 L629.286 373.797 L629.286 369.908 M629.286 379.352 L658.962 379.352 L658.962 383.288 L629.286 383.288 L629.286 379.352 Z" fill="#000000" fill-rule="nonzero" fill-opacity="1"></path><path clip-path="url(#clip960)" d="M688.151 387.501 L704.471 387.501 L704.471 391.436 L682.526 391.436 L682.526 387.501 Q685.189 384.746 689.772 380.116 Q694.378 375.464 695.559 374.121 Q697.804 371.598 698.684 369.862 Q699.587 368.103 699.587 366.413 Q699.587 363.658 697.642 361.922 Q695.721 360.186 692.619 360.186 Q690.42 360.186 687.966 360.95 Q685.536 361.714 682.758 363.265 L682.758 358.542 Q685.582 357.408 688.036 356.829 Q690.489 356.251 692.526 356.251 Q697.897 356.251 701.091 358.936 Q704.286 361.621 704.286 366.112 Q704.286 368.241 703.475 370.163 Q702.688 372.061 700.582 374.653 Q700.003 375.325 696.901 378.542 Q693.8 381.737 688.151 387.501 Z" fill="#000000" fill-rule="nonzero" fill-opacity="1"></path><path clip-path="url(#clip960)" d="M714.286 385.556 L719.17 385.556 L719.17 391.436 L714.286 391.436 L714.286 385.556 Z" fill="#000000" fill-rule="nonzero" fill-opacity="1"></path><path clip-path="url(#clip960)" d="M739.355 359.954 Q735.744 359.954 733.915 363.519 Q732.11 367.061 732.11 374.19 Q732.11 381.297 733.915 384.862 Q735.744 388.403 739.355 388.403 Q742.989 388.403 744.795 384.862 Q746.623 381.297 746.623 374.19 Q746.623 367.061 744.795 363.519 Q742.989 359.954 739.355 359.954 M739.355 356.251 Q745.165 356.251 748.221 360.857 Q751.299 365.44 751.299 374.19 Q751.299 382.917 748.221 387.524 Q745.165 392.107 739.355 392.107 Q733.545 392.107 730.466 387.524 Q727.411 382.917 727.411 374.19 Q727.411 365.44 730.466 360.857 Q733.545 356.251 739.355 356.251 Z" fill="#000000" fill-rule="nonzero" fill-opacity="1"></path></svg>